SplineFontDB: 3.2
FontName: heks_jed_ke_smal_cambay
FullName: smal_cambay
FamilyName: heks_jed_ke
Weight: Regular
Copyright: Copyright (c) 2014 Pooja Saxena (www.poojasaxena.in)
Version: 1.181;PS 001.181;hotconv 1.0.70;makeotf.lib2.5.58329
ItalicAngle: 0
UnderlinePosition: -100
UnderlineWidth: 50
Ascent: 640
Descent: 160
InvalidEm: 0
sfntRevision: 0x00012e56
LayerCount: 2
Layer: 0 1 "Back" 1
Layer: 1 1 "Fore" 0
XUID: [1021 467 -1121320856 8048991]
StyleMap: 0x0040
FSType: 0
OS2Version: 3
OS2_WeightWidthSlopeOnly: 0
OS2_UseTypoMetrics: 0
CreationTime: 1416805460
ModificationTime: 1599694022
PfmFamily: 81
TTFWeight: 400
TTFWidth: 5
LineGap: 0
VLineGap: 0
Panose: 0 0 5 0 0 0 0 0 0 0
OS2TypoAscent: 800
OS2TypoAOffset: 0
OS2TypoDescent: -503
OS2TypoDOffset: 0
OS2TypoLinegap: 0
OS2WinAscent: 800
OS2WinAOffset: 0
OS2WinDescent: 503
OS2WinDOffset: 0
HheadAscent: 800
HheadAOffset: 0
HheadDescent: -503
HheadDOffset: 0
OS2SubXSize: 650
OS2SubYSize: 600
OS2SubXOff: 0
OS2SubYOff: 75
OS2SupXSize: 650
OS2SupYSize: 600
OS2SupXOff: 0
OS2SupYOff: 350
OS2StrikeYSize: 50
OS2StrikeYPos: 230
OS2CapHeight: 550
OS2XHeight: 384
OS2Vendor: 'UKWN'
OS2CodePages: 20000093.00000000
OS2UnicodeRanges: 00008007.00000000.00000000.00000000
Lookup: 1 0 0 "'aalt' Access All Alternates lookup 0" { "'aalt' Access All Alternates lookup 0 subtable"  } ['aalt' ('DFLT' <'dflt' > 'dev2' <'MAR ' 'NEP ' 'dflt' > 'deva' <'dflt' > 'latn' <'dflt' > ) ]
Lookup: 3 0 0 "'aalt' Access All Alternates lookup 1" { "'aalt' Access All Alternates lookup 1 subtable"  } ['aalt' ('DFLT' <'dflt' > 'dev2' <'MAR ' 'NEP ' 'dflt' > 'deva' <'dflt' > 'latn' <'dflt' > ) ]
Lookup: 4 0 0 "Ligature Substitution lookup 2" { "Ligature Substitution lookup 2 subtable"  } []
Lookup: 1 0 0 "'locl' Localized Forms in Devanagari2 lookup 3" { "'locl' Localized Forms in Devanagari2 lookup 3 subtable"  } ['locl' ('dev2' <'MAR ' > ) ]

StartChar: .notdef
Encoding: 65536 -1 0
Width: 407
Flags: W
LayerCount: 2
Fore
SplineSet
50 0 m 1,0,-1
 50 456 l 1,1,-1
 357 456 l 1,2,-1
 357 0 l 1,3,-1
 50 0 l 1,0,-1
102 45 m 1,4,-1
 304 45 l 1,5,-1
 304 411 l 1,6,-1
 102 411 l 1,7,-1
 102 45 l 1,4,-1
EndSplineSet
EndChar

StartChar: A
Encoding: 65 65 3
Width: 234
GlyphClass: 2
Flags: W
LayerCount: 2
Fore
SplineSet
85.5 246 m 128,-1,1
 74 258 74 258 74 277 c 256,2,3
 74 296 74 296 85.5 308 c 128,-1,4
 97 320 97 320 117 320 c 256,5,6
 137 320 137 320 148.5 308 c 128,-1,7
 160 296 160 296 160 277 c 256,8,9
 160 258 160 258 148.5 246 c 128,-1,10
 137 234 137 234 117 234 c 256,11,0
 97 234 97 234 85.5 246 c 128,-1,1
85.5 6 m 128,-1,13
 74 18 74 18 74 37 c 256,14,15
 74 56 74 56 85.5 68 c 128,-1,16
 97 80 97 80 117 80 c 256,17,18
 137 80 137 80 148.5 68 c 128,-1,19
 160 56 160 56 160 37 c 256,20,21
 160 18 160 18 148.5 6 c 128,-1,22
 137 -6 137 -6 117 -6 c 256,23,12
 97 -6 97 -6 85.5 6 c 128,-1,13
EndSplineSet
EndChar

StartChar: Aacute
Encoding: 193 193 4
Width: 439
GlyphClass: 2
Flags: W
LayerCount: 2
Fore
SplineSet
116 32 m 1,1,-1
 116 -206 l 1,2,-1
 51 -206 l 1,3,-1
 51 550 l 1,4,-1
 116 550 l 1,5,-1
 116 344 l 1,6,7
 155 388 155 388 226 388 c 0,8,9
 268 388 268 388 301.5 372.5 c 128,-1,10
 335 357 335 357 357 330 c 0,11,12
 401 280 401 280 401 195 c 0,13,14
 401 130 401 130 370.5 78.5 c 128,-1,15
 340 27 340 27 291 7 c 0,16,17
 257 -10 257 -10 222 -10 c 0,18,0
 160 -10 160 -10 116 32 c 1,1,-1
305 84.5 m 128,-1,20
 339 123 339 123 339 180 c 0,21,22
 339 239 339 239 319 270 c 0,23,24
 280 332 280 332 217 334 c 0,25,26
 163 334 163 334 137 293.5 c 128,-1,27
 111 253 111 253 111 189 c 0,28,29
 111 122 111 122 129 95 c 0,30,31
 159 46 159 46 217 46 c 0,32,19
 271 46 271 46 305 84.5 c 128,-1,20
EndSplineSet
EndChar

StartChar: Acircumflex
Encoding: 194 194 5
Width: 430
GlyphClass: 2
Flags: W
AnchorPoint: "Anchor-1" 216 384 basechar 0
AnchorPoint: "Anchor-0" 0 0 basechar 0
LayerCount: 2
Fore
SplineSet
155.5 583 m 0
 181 609 181 609 216 609 c 0
 250 609 250 609 275.5 583 c 0
 301 557 301 557 301 522 c 256
 301 487 301 487 276 461 c 0
 251 435 251 435 216 435 c 256
 181 435 181 435 155.5 461 c 0
 130 487 130 487 130 522 c 256
 130 557 130 557 155.5 583 c 0
249 555.5 m 0
 236 569 236 569 216 569 c 0
 195 569 195 569 182.5 556 c 0
 170 543 170 543 170 522 c 0
 170 502 170 502 182.5 488.5 c 0
 195 475 195 475 215 475 c 0
 236 475 236 475 249 488.5 c 0
 262 502 262 502 262 522 c 256
 262 542 262 542 249 555.5 c 0
EndSplineSet
Refer: 688 -1 N 1 0 0 1 56 0 0
Refer: 47 117 N 1 0 0 1 0 0 0
EndChar

StartChar: Adieresis
Encoding: 196 196 6
Width: 363
GlyphClass: 2
Flags: W
AnchorPoint: "Anchor-1" 212 384 basechar 0
AnchorPoint: "Anchor-0" 0 0 basechar 0
LayerCount: 2
Fore
SplineSet
86.5 42 m 128,-1,1
 38 93 38 93 38 185 c 0,2,3
 38 271 38 271 88 333 c 0,4,5
 138 389 138 389 237 389 c 0,6,7
 286 389 286 389 335 368 c 1,8,-1
 319 320 l 1,9,10
 284 335 284 335 240 335 c 0,11,12
 172 335 172 335 138 299.5 c 128,-1,13
 104 264 104 264 104 197 c 0,14,15
 104 111 104 111 145 78 c 128,-1,16
 186 45 186 45 246 45 c 0,17,18
 284 45 284 45 319 58 c 1,19,-1
 334 13 l 1,20,21
 276 -9 276 -9 224 -9 c 0,22,0
 135 -9 135 -9 86.5 42 c 128,-1,1
EndSplineSet
EndChar

StartChar: Agrave
Encoding: 192 192 7
Width: 456
GlyphClass: 2
Flags: W
LayerCount: 2
Fore
SplineSet
108 29 m 1,1,-1
 66 -12 l 1,2,-1
 29 22 l 1,3,-1
 74 68 l 1,4,5
 44 115 44 115 44 190 c 0,6,7
 44 282 44 282 92.5 335.5 c 128,-1,8
 141 389 141 389 228 389 c 0,9,10
 300 389 300 389 349 351 c 1,11,-1
 390 393 l 1,12,-1
 427 355 l 1,13,-1
 384 311 l 1,14,15
 412 264 412 264 412 191 c 0,16,17
 412 100 412 100 362.5 45.5 c 128,-1,18
 313 -9 313 -9 226 -9 c 0,19,0
 160 -9 160 -9 108 29 c 1,1,-1
140.5 296 m 128,-1,21
 109 254 109 254 109 190 c 0,22,23
 109 149 109 149 122 117 c 1,24,-1
 307 307 l 1,25,26
 276 338 276 338 228 338 c 0,27,20
 172 338 172 338 140.5 296 c 128,-1,21
334 260 m 1,29,-1
 151 73 l 1,30,31
 182 44 182 44 228 44 c 0,32,33
 285 44 285 44 316 85 c 128,-1,34
 347 126 347 126 347 190 c 0,35,28
 347 231 347 231 334 260 c 1,29,-1
EndSplineSet
EndChar

StartChar: Atilde
Encoding: 195 195 8
Width: 393
GlyphClass: 2
Flags: W
AnchorPoint: "Anchor-1" 189 384 basechar 0
AnchorPoint: "Anchor-0" 0 0 basechar 0
LayerCount: 2
Fore
SplineSet
129.5 328.5 m 128,-1,1
 100 324 100 324 77 317 c 1,2,-1
 64 365 l 1,3,4
 131 388 131 388 189 388 c 0,5,6
 254 388 254 388 288 368 c 0,7,8
 318 346 318 346 329.5 321 c 128,-1,9
 341 296 341 296 341 248 c 2,10,-1
 341 0 l 1,11,-1
 292 0 l 1,12,-1
 278 36 l 1,13,14
 221 -10 221 -10 161 -10 c 0,15,16
 109 -10 109 -10 73.5 20 c 128,-1,17
 38 50 38 50 38 96 c 0,18,19
 38 141 38 141 65.5 170.5 c 128,-1,20
 93 200 93 200 133 210 c 0,21,22
 184 223 184 223 276 225 c 1,23,-1
 276 228 l 2,24,25
 276 269 276 269 268 288 c 0,26,27
 252 333 252 333 180 333 c 0,28,0
 159 333 159 333 129.5 328.5 c 128,-1,1
228 53.5 m 128,-1,30
 253 65 253 65 276 86 c 1,31,-1
 276 178 l 1,32,33
 207 177 207 177 174 170 c 0,34,35
 137 162 137 162 119 146.5 c 128,-1,36
 101 131 101 131 101 103 c 0,37,38
 101 74 101 74 121.5 58 c 128,-1,39
 142 42 142 42 170 42 c 0,40,29
 203 42 203 42 228 53.5 c 128,-1,30
EndSplineSet
EndChar

StartChar: AE
Encoding: 198 198 9
Width: 180
GlyphClass: 2
Flags: W
AnchorPoint: "Anchor-1" 90 384 basechar 0
AnchorPoint: "Anchor-0" 0 0 basechar 0
LayerCount: 2
Fore
SplineSet
59.5 478.5 m 0
 47 491 47 491 47 508 c 256
 47 525 47 525 59.5 537.5 c 0
 72 550 72 550 89 550 c 256
 106 550 106 550 118.5 537.5 c 0
 131 525 131 525 131 508 c 256
 131 491 131 491 118.5 478.5 c 0
 106 466 106 466 89 466 c 256
 72 466 72 466 59.5 478.5 c 0
122 384 m 1
 122 -50 l 2
 122 -89 122 -89 119 -104 c 0
 116 -119 116 -119 105 -143 c 0
 83 -189 83 -189 20 -208 c 1
 -4 -161 l 1
 59 -131 59 -131 59 -62 c 2
 59 384 l 1
 122 384 l 1
EndSplineSet
Refer: 688 -1 N 1 0 0 1 0 0 0
EndChar

StartChar: B
Encoding: 66 66 10
Width: 234
GlyphClass: 2
Flags: W
LayerCount: 2
Fore
SplineSet
85.5 246 m 128,-1,1
 74 258 74 258 74 277 c 256,2,3
 74 296 74 296 85.5 308 c 128,-1,4
 97 320 97 320 117 320 c 256,5,6
 137 320 137 320 148.5 308 c 128,-1,7
 160 296 160 296 160 277 c 256,8,9
 160 258 160 258 148.5 246 c 128,-1,10
 137 234 137 234 117 234 c 256,11,0
 97 234 97 234 85.5 246 c 128,-1,1
151 56.5 m 128,-1,13
 164 43 164 43 164 19 c 0,14,15
 164 -15 164 -15 141.5 -48 c 128,-1,16
 119 -81 119 -81 87 -108 c 1,17,-1
 63 -92 l 1,18,19
 89 -47 89 -47 103 -17 c 1,20,21
 71 -6 71 -6 71 27 c 0,22,23
 71 46 71 46 83.5 58 c 128,-1,24
 96 70 96 70 117 70 c 256,25,12
 138 70 138 70 151 56.5 c 128,-1,13
EndSplineSet
EndChar

StartChar: C
Encoding: 67 67 11
Width: 426
GlyphClass: 2
Flags: W
LayerCount: 2
Fore
SplineSet
378 104 m 1,0,-1
 107 240 l 1,1,-1
 378 377 l 1,2,-1
 378 439 l 1,3,-1
 40 272 l 1,4,-1
 40 208 l 1,5,-1
 378 42 l 1,6,-1
 378 104 l 1,0,-1
EndSplineSet
EndChar

StartChar: Ccedilla
Encoding: 199 199 12
Width: 452
GlyphClass: 2
Flags: W
LayerCount: 2
Fore
SplineSet
263 456 m 1,0,-1
 191 456 l 1,1,-1
 32 50 l 1,2,-1
 32 0 l 1,3,-1
 420 0 l 1,4,-1
 420 50 l 1,5,-1
 263 456 l 1,0,-1
99 56 m 1,6,-1
 226 388 l 1,7,-1
 354 56 l 1,8,-1
 99 56 l 1,6,-1
EndSplineSet
EndChar

StartChar: D
Encoding: 68 68 13
Width: 522
GlyphClass: 2
Flags: W
LayerCount: 2
Fore
SplineSet
442 277 m 1,0,-1
 442 333 l 1,1,-1
 80 333 l 1,2,-1
 80 277 l 1,3,-1
 442 277 l 1,0,-1
442 128 m 1,4,-1
 442 184 l 1,5,-1
 80 184 l 1,6,-1
 80 128 l 1,7,-1
 442 128 l 1,4,-1
EndSplineSet
EndChar

StartChar: E
Encoding: 69 69 14
Width: 428
GlyphClass: 2
Flags: W
LayerCount: 2
Fore
SplineSet
48 377 m 1,0,-1
 319 240 l 1,1,-1
 48 104 l 1,2,-1
 48 42 l 1,3,-1
 388 208 l 1,4,-1
 388 272 l 1,5,-1
 48 439 l 1,6,-1
 48 377 l 1,0,-1
EndSplineSet
EndChar

StartChar: Eacute
Encoding: 201 201 15
Width: 452
GlyphClass: 2
Flags: W
LayerCount: 2
Fore
SplineSet
392 204 m 1,0,-1
 392 260 l 1,1,-1
 60 260 l 1,2,-1
 60 204 l 1,3,-1
 392 204 l 1,0,-1
EndSplineSet
EndChar

StartChar: Ecircumflex
Encoding: 202 202 16
Width: 337
GlyphClass: 2
Flags: W
LayerCount: 2
Fore
SplineSet
120 177.5 m 128,-1,1
 140 158 140 158 169 158 c 0,2,3
 197 158 197 158 217 177.5 c 128,-1,4
 237 197 237 197 237 226 c 256,5,6
 237 255 237 255 217 275 c 128,-1,7
 197 295 197 295 169 295 c 0,8,9
 140 295 140 295 120 275 c 128,-1,10
 100 255 100 255 100 226 c 256,11,0
 100 197 100 197 120 177.5 c 128,-1,1
EndSplineSet
EndChar

StartChar: Edieresis
Encoding: 203 203 17
Width: 420
GlyphClass: 2
Flags: W
LayerCount: 2
Fore
SplineSet
161 245 m 1,0,-1
 25 186 l 1,1,-1
 45 135 l 1,2,-1
 122 168 l 1,3,-1
 196 -35 l 1,4,-1
 261 -35 l 1,5,-1
 400 518 l 1,6,-1
 342 527 l 1,7,-1
 225 53 l 1,8,-1
 161 245 l 1,0,-1
EndSplineSet
EndChar

StartChar: F
Encoding: 70 70 18
Width: 425
GlyphClass: 2
Flags: W
LayerCount: 2
Fore
SplineSet
342 464 m 128,-1,1
 385 430 385 430 385 366 c 0,2,3
 385 321 385 321 367 292 c 128,-1,4
 349 263 349 263 314 230 c 0,5,6
 309 225 309 225 284.5 201.5 c 128,-1,7
 260 178 260 178 251 152.5 c 128,-1,8
 242 127 242 127 242 92 c 1,9,-1
 179 92 l 1,10,11
 179 165 179 165 213 210 c 0,12,13
 226 226 226 226 257 255 c 0,14,15
 291 287 291 287 307.5 309.5 c 128,-1,16
 324 332 324 332 324 361 c 0,17,18
 324 401 324 401 299.5 420.5 c 128,-1,19
 275 440 275 440 230 440 c 0,20,21
 193 440 193 440 167.5 432.5 c 128,-1,22
 142 425 142 425 110 410 c 1,23,-1
 90 464 l 1,24,25
 126 480 126 480 158.5 489 c 128,-1,26
 191 498 191 498 234 498 c 0,27,0
 299 498 299 498 342 464 c 128,-1,1
182 -29.5 m 128,-1,29
 172 -19 172 -19 172 -2 c 256,30,31
 172 15 172 15 182 25.5 c 128,-1,32
 192 36 192 36 210 36 c 256,33,34
 228 36 228 36 238 25.5 c 128,-1,35
 248 15 248 15 248 -2 c 256,36,37
 248 -19 248 -19 238 -29.5 c 128,-1,38
 228 -40 228 -40 210 -40 c 256,39,28
 192 -40 192 -40 182 -29.5 c 128,-1,29
EndSplineSet
EndChar

StartChar: H
Encoding: 72 72 19
Width: 522
GlyphClass: 2
Flags: W
LayerCount: 2
Fore
SplineSet
279 184 m 1,0,-1
 442 184 l 1,1,-1
 442 128 l 1,2,-1
 261 128 l 1,3,-1
 219 0 l 1,4,-1
 157 0 l 1,5,-1
 199 128 l 1,6,-1
 80 128 l 1,7,-1
 80 184 l 1,8,-1
 217 184 l 1,9,-1
 248 277 l 1,10,-1
 80 277 l 1,11,-1
 80 333 l 1,12,-1
 266 333 l 1,13,-1
 306 456 l 1,14,-1
 368 456 l 1,15,-1
 328 333 l 1,16,-1
 442 333 l 1,17,-1
 442 277 l 1,18,-1
 310 277 l 1,19,-1
 279 184 l 1,0,-1
EndSplineSet
EndChar

StartChar: Iacute
Encoding: 205 205 20
Width: 276
GlyphClass: 2
Flags: W
LayerCount: 2
Fore
SplineSet
215.5 96.5 m 128,-1,1
 200 147 200 147 170 221 c 2,2,-1
 152 267 l 1,3,-1
 143 291 l 2,4,5
 123 341 123 341 113 375 c 128,-1,6
 103 409 103 409 103 443 c 0,7,8
 103 466 103 466 117.5 482 c 128,-1,9
 132 498 132 498 158 498 c 0,10,11
 179 498 179 498 204 489 c 1,12,-1
 223 540 l 1,13,14
 187 555 187 555 152 555 c 0,15,16
 101 555 101 555 73 525 c 128,-1,17
 45 495 45 495 45 439 c 0,18,19
 45 412 45 412 55 378.5 c 128,-1,20
 65 345 65 345 89 279 c 2,21,-1
 101 247 l 2,22,23
 108 228 108 228 122 194 c 0,24,25
 147 135 147 135 160.5 91 c 128,-1,26
 174 47 174 47 175 1 c 0,27,28
 175 -27 175 -27 160.5 -47 c 128,-1,29
 146 -67 146 -67 120 -67 c 0,30,31
 105 -67 105 -67 91.5 -63 c 128,-1,32
 78 -59 78 -59 75 -58 c 2,33,-1
 56 -110 l 1,34,35
 84 -123 84 -123 124 -123 c 0,36,37
 175 -123 175 -123 203 -89 c 128,-1,38
 231 -55 231 -55 231 3 c 0,39,0
 231 46 231 46 215.5 96.5 c 128,-1,1
EndSplineSet
EndChar

StartChar: Igrave
Encoding: 204 204 21
Width: 634
GlyphClass: 2
Flags: W
LayerCount: 2
Fore
SplineSet
563 95 m 0,1,2
 583 117 583 117 593.5 145.5 c 128,-1,3
 604 174 604 174 604 207 c 0,4,5
 604 279 604 279 564 328 c 0,6,7
 544 352 544 352 515.5 365 c 128,-1,8
 487 378 487 378 454 378 c 0,9,10
 396 378 396 378 358 349.5 c 128,-1,11
 320 321 320 321 281 262 c 1,12,13
 254 300 254 300 225 321.5 c 128,-1,14
 196 343 196 343 160 343 c 0,15,16
 101 343 101 343 65.5 304 c 128,-1,17
 30 265 30 265 30 207 c 0,18,19
 30 150 30 150 65 110.5 c 128,-1,20
 100 71 100 71 155 71 c 0,21,22
 196 71 196 71 225 94.5 c 128,-1,23
 254 118 254 118 287 161 c 1,24,25
 326 108 326 108 364.5 78 c 128,-1,26
 403 48 403 48 452 48 c 0,27,0
 519 48 519 48 563 95 c 0,1,2
512 288 m 128,-1,29
 538 259 538 259 538 207 c 0,30,31
 538 163 538 163 514.5 135 c 128,-1,32
 491 107 491 107 454 107 c 0,33,34
 388 107 388 107 317 212 c 1,35,36
 348 263 348 263 376.5 290 c 128,-1,37
 405 317 405 317 439 317 c 0,38,28
 486 317 486 317 512 288 c 128,-1,29
110 150.5 m 128,-1,40
 92 171 92 171 92 207 c 0,41,42
 92 242 92 242 110.5 263 c 128,-1,43
 129 284 129 284 158 284 c 0,44,45
 184 284 184 284 203 266.5 c 128,-1,46
 222 249 222 249 235 231 c 128,-1,47
 248 213 248 213 252 208 c 1,48,49
 230 174 230 174 207 152 c 128,-1,50
 184 130 184 130 157 130 c 0,51,39
 128 130 128 130 110 150.5 c 128,-1,40
EndSplineSet
EndChar

StartChar: J
Encoding: 74 74 22
Width: 427
GlyphClass: 2
Flags: W
LayerCount: 2
Fore
SplineSet
48 377 m 1,0,-1
 48 321 l 1,1,-1
 319 237 l 1,2,-1
 48 154 l 1,3,-1
 48 97 l 1,4,-1
 386 205 l 1,5,-1
 386 269 l 1,6,-1
 48 377 l 1,0,-1
48 0 m 1,7,-1
 387 0 l 1,8,-1
 387 54 l 1,9,-1
 48 54 l 1,10,-1
 48 0 l 1,7,-1
EndSplineSet
EndChar

StartChar: K
Encoding: 75 75 23
Width: 427
GlyphClass: 2
Flags: W
LayerCount: 2
Fore
SplineSet
379 154 m 1,0,-1
 108 237 l 1,1,-1
 379 321 l 1,2,-1
 379 377 l 1,3,-1
 41 269 l 1,4,-1
 41 205 l 1,5,-1
 379 97 l 1,6,-1
 379 154 l 1,0,-1
379 0 m 1,7,-1
 379 54 l 1,8,-1
 40 54 l 1,9,-1
 40 0 l 1,10,-1
 379 0 l 1,7,-1
EndSplineSet
EndChar

StartChar: O
Encoding: 79 79 24
Width: 450
GlyphClass: 2
Flags: W
LayerCount: 2
Fore
SplineSet
193.5 332 m 128,-1,1
 182 344 182 344 182 363 c 256,2,3
 182 382 182 382 193.5 394 c 128,-1,4
 205 406 205 406 225 406 c 256,5,6
 245 406 245 406 256.5 394 c 128,-1,7
 268 382 268 382 268 363 c 256,8,9
 268 344 268 344 256.5 332 c 128,-1,10
 245 320 245 320 225 320 c 256,11,0
 205 320 205 320 193.5 332 c 128,-1,1
390 204 m 1,12,-1
 390 260 l 1,13,-1
 60 260 l 1,14,-1
 60 204 l 1,15,-1
 390 204 l 1,12,-1
193.5 70 m 128,-1,17
 182 82 182 82 182 101 c 256,18,19
 182 120 182 120 193.5 132 c 128,-1,20
 205 144 205 144 225 144 c 256,21,22
 245 144 245 144 256.5 132 c 128,-1,23
 268 120 268 120 268 101 c 256,24,25
 268 82 268 82 256.5 70 c 128,-1,26
 245 58 245 58 225 58 c 256,27,16
 205 58 205 58 193.5 70 c 128,-1,17
EndSplineSet
EndChar

StartChar: Oslash
Encoding: 216 216 25
Width: 393
GlyphClass: 2
Flags: W
AnchorPoint: "Anchor-1" 189 384 basechar 0
AnchorPoint: "Anchor-0" 0 0 basechar 0
LayerCount: 2
Fore
SplineSet
72 557 m 1
 108 592 l 1
 189 510 l 1
 270 592 l 1
 306 557 l 1
 189 435 l 1
 72 557 l 1
129.5 328.5 m 0
 100 324 100 324 77 317 c 1
 64 365 l 1
 131 388 131 388 189 388 c 0
 254 388 254 388 288 368 c 0
 318 346 318 346 329.5 321 c 0
 341 296 341 296 341 248 c 2
 341 0 l 1
 292 0 l 1
 278 36 l 1
 221 -10 221 -10 161 -10 c 0
 109 -10 109 -10 73.5 20 c 0
 38 50 38 50 38 96 c 0
 38 141 38 141 65.5 170.5 c 0
 93 200 93 200 133 210 c 0
 184 223 184 223 276 225 c 1
 276 228 l 2
 276 269 276 269 268 288 c 0
 252 333 252 333 180 333 c 0
 159 333 159 333 129.5 328.5 c 0
228 53.5 m 0
 253 65 253 65 276 86 c 1
 276 178 l 1
 207 177 207 177 174 170 c 0
 137 162 137 162 119 146.5 c 0
 101 131 101 131 101 103 c 0
 101 74 101 74 121.5 58 c 0
 142 42 142 42 170 42 c 0
 203 42 203 42 228 53.5 c 0
EndSplineSet
Refer: 688 -1 N 1 0 0 1 38 0 0
EndChar

StartChar: S
Encoding: 83 83 26
Width: 488
GlyphClass: 2
Flags: W
LayerCount: 2
Fore
SplineSet
440 478 m 1,0,-1
 60 478 l 1,1,-1
 60 424 l 1,2,-1
 268 203 l 1,3,-1
 60 -17 l 1,4,-1
 60 -71 l 1,5,-1
 440 -71 l 1,6,-1
 440 -18 l 1,7,-1
 135 -18 l 1,8,-1
 345 203 l 1,9,-1
 137 424 l 1,10,-1
 440 424 l 1,11,-1
 440 478 l 1,0,-1
EndSplineSet
EndChar

StartChar: X
Encoding: 88 88 27
Width: 436
GlyphClass: 2
Flags: W
LayerCount: 2
Fore
SplineSet
356 317 m 1,0,-1
 315 356 l 1,1,-1
 220 260 l 1,2,-1
 123 355 l 1,3,-1
 81 312 l 1,4,-1
 175 217 l 1,5,-1
 80 120 l 1,6,-1
 119 80 l 1,7,-1
 215 177 l 1,8,-1
 312 80 l 1,9,-1
 355 123 l 1,10,-1
 259 220 l 1,11,-1
 356 317 l 1,0,-1
EndSplineSet
EndChar

StartChar: Z
Encoding: 90 90 28
Width: 542
GlyphClass: 2
Flags: W
LayerCount: 2
Fore
SplineSet
320 261 m 128,-1,1
 338 256 338 256 359 256 c 0,2,3
 407 256 407 256 462 298 c 1,4,-1
 433 344 l 1,5,6
 390 311 390 311 359 311 c 0,7,8
 340 311 340 311 324 316 c 128,-1,9
 308 321 308 321 293.5 327.5 c 128,-1,10
 279 334 279 334 272 337 c 0,11,12
 225 359 225 359 184 359 c 0,13,14
 137 359 137 359 80 317 c 1,15,-1
 110 271 l 1,16,17
 152 305 152 305 184 305 c 0,18,19
 201 305 201 305 215 300.5 c 128,-1,20
 229 296 229 296 251 287 c 2,21,-1
 271 278 l 2,22,0
 302 266 302 266 320 261 c 128,-1,1
320 113 m 128,-1,24
 338 108 338 108 359 108 c 0,25,26
 407 108 407 108 462 150 c 1,27,-1
 433 196 l 1,28,29
 390 163 390 163 359 163 c 0,30,31
 340 163 340 163 324 168 c 128,-1,32
 308 173 308 173 293.5 179.5 c 128,-1,33
 279 186 279 186 272 189 c 0,34,35
 225 211 225 211 184 211 c 0,36,37
 137 211 137 211 80 169 c 1,38,-1
 110 123 l 1,39,40
 152 157 152 157 184 157 c 0,41,42
 201 157 201 157 215 152.5 c 128,-1,43
 229 148 229 148 251 139 c 2,44,-1
 271 130 l 2,45,23
 302 118 302 118 320 113 c 128,-1,24
EndSplineSet
EndChar

StartChar: a
Encoding: 97 97 29
Width: 393
GlyphClass: 2
Flags: W
AnchorPoint: "Anchor-1" 189 384 basechar 0
AnchorPoint: "Anchor-0" 0 0 basechar 0
LayerCount: 2
Fore
SplineSet
128.5 583 m 0
 154 609 154 609 189 609 c 0
 223 609 223 609 248.5 583 c 0
 274 557 274 557 274 522 c 256
 274 487 274 487 249 461 c 0
 224 435 224 435 189 435 c 256
 154 435 154 435 128.5 461 c 0
 103 487 103 487 103 522 c 256
 103 557 103 557 128.5 583 c 0
222 555.5 m 0
 209 569 209 569 189 569 c 0
 168 569 168 569 155.5 556 c 0
 143 543 143 543 143 522 c 0
 143 502 143 502 155.5 488.5 c 0
 168 475 168 475 188 475 c 0
 209 475 209 475 222 488.5 c 0
 235 502 235 502 235 522 c 256
 235 542 235 542 222 555.5 c 0
129.5 328.5 m 0
 100 324 100 324 77 317 c 1
 64 365 l 1
 131 388 131 388 189 388 c 0
 254 388 254 388 288 368 c 0
 318 346 318 346 329.5 321 c 0
 341 296 341 296 341 248 c 2
 341 0 l 1
 292 0 l 1
 278 36 l 1
 221 -10 221 -10 161 -10 c 0
 109 -10 109 -10 73.5 20 c 0
 38 50 38 50 38 96 c 0
 38 141 38 141 65.5 170.5 c 0
 93 200 93 200 133 210 c 0
 184 223 184 223 276 225 c 1
 276 228 l 2
 276 269 276 269 268 288 c 0
 252 333 252 333 180 333 c 0
 159 333 159 333 129.5 328.5 c 0
228 53.5 m 0
 253 65 253 65 276 86 c 1
 276 178 l 1
 207 177 207 177 174 170 c 0
 137 162 137 162 119 146.5 c 0
 101 131 101 131 101 103 c 0
 101 74 101 74 121.5 58 c 0
 142 42 142 42 170 42 c 0
 203 42 203 42 228 53.5 c 0
EndSplineSet
Refer: 688 -1 N 1 0 0 1 38 0 0
EndChar

StartChar: b
Encoding: 98 98 30
Width: 439
GlyphClass: 2
Flags: W
LayerCount: 2
Fore
SplineSet
58 0 m 1,0,-1
 58 532 l 1,1,-1
 123 532 l 1,2,-1
 123 374 l 1,3,4
 162 392 162 392 216 392 c 0,5,6
 297 392 297 392 348 344 c 0,7,8
 401 291 401 291 401 188 c 0,9,10
 401 99 401 99 355.5 45.5 c 128,-1,11
 310 -8 310 -8 225 -8 c 0,12,13
 169 -8 169 -8 116 27 c 1,14,-1
 104 0 l 1,15,-1
 58 0 l 1,0,-1
303 82 m 128,-1,17
 333 117 333 117 333 192 c 0,18,19
 333 259 333 259 301.5 299 c 128,-1,20
 270 339 270 339 208 339 c 0,21,22
 161 339 161 339 123 324 c 1,23,-1
 123 70 l 1,24,25
 146 58 146 58 164.5 52.5 c 128,-1,26
 183 47 183 47 209 47 c 0,27,16
 273 47 273 47 303 82 c 128,-1,17
EndSplineSet
EndChar

StartChar: c
Encoding: 99 99 31
Width: 358
GlyphClass: 2
Flags: W
LayerCount: 2
Fore
SplineSet
256 -131 m 0,1,2
 256 -106 256 -106 215 -96 c 2,3,-1
 161 -81 l 1,4,-1
 180 -6 l 1,5,6
 111 5 111 5 74.5 54.5 c 128,-1,7
 38 104 38 104 38 185 c 0,8,9
 38 278 38 278 85 332 c 0,10,11
 133 389 133 389 232 389 c 0,12,13
 283 389 283 389 332 368 c 1,14,-1
 315 320 l 1,15,16
 280 335 280 335 237 335 c 0,17,18
 169 335 169 335 134.5 299.5 c 128,-1,19
 100 264 100 264 100 197 c 0,20,21
 100 126 100 126 130.5 90 c 128,-1,22
 161 54 161 54 225 46 c 0,23,24
 230 45 230 45 242 45 c 0,25,26
 281 45 281 45 312 58 c 1,27,-1
 328 13 l 1,28,29
 271 -8 271 -8 228 -9 c 1,30,-1
 218 -49 l 1,31,-1
 232 -53 l 2,32,33
 266 -64 266 -64 286 -82 c 128,-1,34
 306 -100 306 -100 306 -136 c 0,35,36
 306 -168 306 -168 283 -187.5 c 128,-1,37
 260 -207 260 -207 218 -207 c 0,38,39
 198 -207 198 -207 179.5 -203.5 c 128,-1,40
 161 -200 161 -200 134 -192 c 2,41,-1
 122 -188 l 1,42,-1
 136 -142 l 1,43,-1
 148 -145 l 2,44,45
 184 -156 184 -156 215 -159 c 0,46,0
 256 -161 256 -161 256 -131 c 0,1,2
EndSplineSet
EndChar

StartChar: d
Encoding: 100 100 32
Width: 439
GlyphClass: 2
Flags: W
LayerCount: 2
Fore
SplineSet
84 45.5 m 128,-1,1
 38 99 38 99 38 188 c 0,2,3
 38 286 38 286 93 341 c 0,4,5
 146 392 146 392 225 392 c 0,6,7
 278 392 278 392 315 374 c 1,8,-1
 315 532 l 1,9,-1
 383 532 l 1,10,-1
 383 0 l 1,11,-1
 335 0 l 1,12,-1
 324 27 l 1,13,14
 270 -8 270 -8 216 -8 c 0,15,0
 130 -8 130 -8 84 45.5 c 128,-1,1
274.5 52.5 m 128,-1,17
 293 58 293 58 315 70 c 1,18,-1
 315 324 l 1,19,20
 278 339 278 339 230 339 c 0,21,22
 168 339 168 339 136.5 299 c 128,-1,23
 105 259 105 259 105 192 c 0,24,25
 105 126 105 126 136.5 86.5 c 128,-1,26
 168 47 168 47 229 47 c 0,27,16
 256 47 256 47 274.5 52.5 c 128,-1,17
EndSplineSet
EndChar

StartChar: e
Encoding: 101 101 33
Width: 404
GlyphClass: 2
Flags: W
AnchorPoint: "Anchor-1" 210 384 basechar 0
AnchorPoint: "Anchor-0" 0 0 basechar 0
LayerCount: 2
Fore
SplineSet
327 343.5 m 128,-1,1
 368 298 368 298 368 215 c 2,2,-1
 368 180 l 1,3,-1
 364 172 l 1,4,-1
 101 172 l 1,5,6
 101 123 101 123 138 81 c 0,7,8
 173 46 173 46 247 46 c 0,9,10
 296 46 296 46 340 61 c 1,11,-1
 352 13 l 1,12,13
 291 -8 291 -8 229 -8 c 0,14,15
 136 -8 136 -8 87 42 c 128,-1,16
 38 92 38 92 38 185 c 0,17,18
 38 273 38 273 81 330 c 0,19,20
 127 389 127 389 210 389 c 0,21,0
 286 389 286 389 327 343.5 c 128,-1,1
280.5 306 m 128,-1,23
 259 338 259 338 217 338 c 0,24,25
 164 338 164 338 136 306 c 128,-1,26
 108 274 108 274 102 224 c 1,27,-1
 302 224 l 1,28,22
 302 274 302 274 280.5 306 c 128,-1,23
EndSplineSet
EndChar

StartChar: g
Encoding: 103 103 34
Width: 439
GlyphClass: 2
Flags: W
AnchorPoint: "Anchor-1" 218 384 basechar 0
AnchorPoint: "Anchor-0" 0 0 basechar 0
LayerCount: 2
Fore
SplineSet
214 -8 m 0,1,2
 122 -8 122 -8 73 63 c 0,3,4
 38 115 38 115 38 185 c 0,5,6
 38 256 38 256 68.5 305.5 c 128,-1,7
 99 355 99 355 153 377 c 0,8,9
 178 389 178 389 218 389 c 0,10,11
 265 389 265 389 308 369 c 2,12,-1
 327 360 l 1,13,-1
 334 384 l 1,14,-1
 381 384 l 1,15,-1
 381 -18 l 2,16,17
 381 -71 381 -71 369 -103 c 128,-1,18
 357 -135 357 -135 328 -162 c 0,19,20
 304 -185 304 -185 268.5 -197.5 c 128,-1,21
 233 -210 233 -210 189 -210 c 0,22,23
 161 -210 161 -210 128.5 -203 c 128,-1,24
 96 -196 96 -196 72 -185 c 1,25,-1
 89 -139 l 1,26,27
 146 -159 146 -159 180 -159 c 0,28,29
 240 -159 240 -159 274 -130 c 128,-1,30
 308 -101 308 -101 314 -48 c 0,31,32
 315 -37 315 -37 315 8 c 2,33,-1
 315 18 l 1,34,0
 265 -8 265 -8 214 -8 c 0,1,2
315 66 m 1,36,-1
 315 317 l 1,37,38
 270 337 270 337 226 337 c 0,39,40
 166 337 166 337 135 298 c 128,-1,41
 104 259 104 259 104 194 c 0,42,43
 104 147 104 147 122 111 c 128,-1,44
 140 75 140 75 171 59 c 0,45,46
 196 45 196 45 229 45 c 0,47,35
 279 45 279 45 315 66 c 1,36,-1
EndSplineSet
EndChar

StartChar: h
Encoding: 104 104 35
Width: 430
GlyphClass: 2
Flags: W
LayerCount: 2
Fore
SplineSet
294 317 m 128,-1,1
 275 339 275 339 228 339 c 0,2,3
 184 339 184 339 125 311 c 1,4,-1
 125 0 l 1,5,-1
 60 0 l 1,6,-1
 60 532 l 1,7,-1
 125 532 l 1,8,-1
 125 359 l 1,9,10
 192 394 192 394 253 394 c 0,11,12
 313 394 313 394 346 358.5 c 128,-1,13
 379 323 379 323 379 261 c 2,14,-1
 379 0 l 1,15,-1
 313 0 l 1,16,-1
 313 246 l 2,17,0
 313 295 313 295 294 317 c 128,-1,1
EndSplineSet
EndChar

StartChar: i
Encoding: 105 105 36
Width: 181
GlyphClass: 2
Flags: W
LayerCount: 2
Fore
SplineSet
61 470.5 m 128,-1,1
 49 483 49 483 49 500 c 0,2,3
 49 516 49 516 61 528.5 c 128,-1,4
 73 541 73 541 91 541 c 0,5,6
 108 541 108 541 120 528.5 c 128,-1,7
 132 516 132 516 132 500 c 0,8,9
 132 483 132 483 120.5 470.5 c 128,-1,10
 109 458 109 458 91 458 c 256,11,0
 73 458 73 458 61 470.5 c 128,-1,1
123 0 m 1,12,-1
 58 0 l 1,13,-1
 58 384 l 1,14,-1
 123 384 l 1,15,-1
 123 0 l 1,12,-1
EndSplineSet
EndChar

StartChar: j
Encoding: 106 106 37
Width: 385
GlyphClass: 2
Flags: W
AnchorPoint: "Anchor-1" 192 384 basechar 0
AnchorPoint: "Anchor-0" 0 0 basechar 0
LayerCount: 2
Fore
SplineSet
337 350 m 1,0,-1
 129 49 l 1,1,-1
 348 49 l 1,2,-1
 348 0 l 1,3,-1
 46 0 l 1,4,-1
 46 33 l 1,5,-1
 252 333 l 1,6,-1
 46 333 l 1,7,-1
 46 384 l 1,8,-1
 337 384 l 1,9,-1
 337 350 l 1,0,-1
EndSplineSet
EndChar

StartChar: k
Encoding: 107 107 38
Width: 400
GlyphClass: 2
Flags: W
AnchorPoint: "Anchor-1" 0 0 basechar 0
AnchorPoint: "Anchor-0" 210 0 basechar 0
LayerCount: 2
Fore
SplineSet
125 0 m 1,0,-1
 60 0 l 1,1,-1
 60 532 l 1,2,-1
 125 532 l 1,3,-1
 125 0 l 1,0,-1
209 212 m 1,4,-1
 385 0 l 1,5,-1
 305 0 l 1,6,-1
 132 212 l 1,7,-1
 300 384 l 1,8,-1
 376 384 l 1,9,-1
 209 212 l 1,4,-1
EndSplineSet
EndChar

StartChar: l
Encoding: 108 108 39
Width: 220
GlyphClass: 2
Flags: W
AnchorPoint: "Anchor-1" 168 533 basechar 0
AnchorPoint: "Anchor-0" 138 0 basechar 0
LayerCount: 2
Fore
SplineSet
204 57 m 1,1,-1
 216 10 l 2,2,3
 213 9 213 9 192 0 c 128,-1,4
 171 -9 171 -9 138 -9 c 0,5,6
 101 -9 101 -9 79 16.5 c 128,-1,7
 57 42 57 42 56 83 c 2,8,-1
 56 533 l 1,9,-1
 119 533 l 1,10,-1
 119 106 l 2,11,12
 119 79 119 79 128 65 c 128,-1,13
 137 51 137 51 170 51 c 0,14,0
 185 51 185 51 204 57 c 1,1,-1
EndSplineSet
EndChar

StartChar: m
Encoding: 109 109 40
Width: 634
GlyphClass: 2
Flags: W
LayerCount: 2
Fore
SplineSet
440 338 m 0,1,2
 403 338 403 338 348 304 c 1,3,4
 351 293 351 293 351 260 c 2,5,-1
 351 0 l 1,6,-1
 286 0 l 1,7,-1
 286 244 l 2,8,9
 286 338 286 338 210 338 c 0,10,11
 174 338 174 338 121 309 c 1,12,-1
 121 0 l 1,13,-1
 56 0 l 1,14,-1
 56 384 l 1,15,-1
 101 384 l 1,16,-1
 115 352 l 1,17,18
 149 375 149 375 178 384 c 0,19,20
 201 390 201 390 231 390 c 0,21,22
 264 390 264 390 289.5 377 c 128,-1,23
 315 364 315 364 331 341 c 1,24,25
 364 365 364 365 394 377.5 c 128,-1,26
 424 390 424 390 460 390 c 0,27,28
 519 390 519 390 550.5 354.5 c 128,-1,29
 582 319 582 319 582 260 c 2,30,-1
 582 0 l 1,31,-1
 515 0 l 1,32,-1
 515 244 l 2,33,0
 515 338 515 338 440 338 c 0,1,2
EndSplineSet
EndChar

StartChar: n
Encoding: 110 110 41
Width: 427
GlyphClass: 2
Flags: W
AnchorPoint: "Anchor-1" 217 384 basechar 0
AnchorPoint: "Anchor-0" 214 0 basechar 0
LayerCount: 2
Fore
SplineSet
291.5 314 m 128,-1,1
 273 335 273 335 227 335 c 0,2,3
 178 335 178 335 121 308 c 1,4,-1
 121 0 l 1,5,-1
 56 0 l 1,6,-1
 56 384 l 1,7,-1
 101 384 l 1,8,-1
 115 352 l 1,9,10
 184 390 184 390 250 390 c 0,11,12
 311 390 311 390 343 355.5 c 128,-1,13
 375 321 375 321 375 260 c 2,14,-1
 375 0 l 1,15,-1
 310 0 l 1,16,-1
 310 244 l 2,17,0
 310 293 310 293 291.5 314 c 128,-1,1
EndSplineSet
EndChar

StartChar: o
Encoding: 111 111 42
Width: 447
GlyphClass: 2
Flags: W
AnchorPoint: "Anchor-1" 225 384 basechar 0
AnchorPoint: "Anchor-0" 0 0 basechar 0
LayerCount: 2
Fore
SplineSet
86.5 45 m 128,-1,1
 38 99 38 99 38 190 c 0,2,3
 38 282 38 282 87.5 335.5 c 128,-1,4
 137 389 137 389 225 389 c 256,5,6
 313 389 313 389 361 336 c 128,-1,7
 409 283 409 283 409 191 c 0,8,9
 409 101 409 101 359 46 c 128,-1,10
 309 -9 309 -9 222 -9 c 256,11,0
 135 -9 135 -9 86.5 45 c 128,-1,1
136.5 296 m 128,-1,13
 105 254 105 254 105 190 c 256,14,15
 105 126 105 126 136.5 85 c 128,-1,16
 168 44 168 44 225 44 c 0,17,18
 281 44 281 44 312 85.5 c 128,-1,19
 343 127 343 127 343 190 c 0,20,21
 343 254 343 254 311.5 296 c 128,-1,22
 280 338 280 338 225 338 c 0,23,12
 168 338 168 338 136.5 296 c 128,-1,13
EndSplineSet
EndChar

StartChar: p
Encoding: 112 112 43
Width: 440
GlyphClass: 2
Flags: W
LayerCount: 2
Fore
SplineSet
58 384 m 1,0,-1
 104 384 l 1,1,-1
 117 355 l 1,2,3
 166 389 166 389 225 389 c 0,4,5
 281 389 281 389 320 365 c 0,6,7
 403 313 403 313 403 196 c 0,8,9
 403 96 403 96 347 42 c 0,10,11
 292 -10 292 -10 216 -10 c 0,12,13
 167 -10 167 -10 123 9 c 1,14,-1
 123 -208 l 1,15,-1
 58 -208 l 1,16,-1
 58 384 l 1,0,-1
162.5 330 m 128,-1,18
 144 325 144 325 123 312 c 1,19,-1
 123 60 l 1,20,21
 162 42 162 42 208 42 c 0,22,23
 268 42 268 42 301 83 c 128,-1,24
 334 124 334 124 334 189 c 0,25,26
 334 256 334 256 302 295.5 c 128,-1,27
 270 335 270 335 209 335 c 0,28,17
 181 335 181 335 162.5 330 c 128,-1,18
EndSplineSet
EndChar

StartChar: r
Encoding: 114 114 44
Width: 293
GlyphClass: 2
Flags: W
AnchorPoint: "Anchor-1" 162 384 basechar 0
AnchorPoint: "Anchor-0" 84 0 basechar 0
LayerCount: 2
Fore
SplineSet
257.5 386.5 m 128,-1,1
 271 384 271 384 284 378 c 1,2,-1
 261 320 l 1,3,4
 235 332 235 332 204 332 c 0,5,6
 162 332 162 332 121 304 c 1,7,-1
 121 0 l 1,8,-1
 56 0 l 1,9,-1
 56 384 l 1,10,-1
 103 384 l 1,11,-1
 117 351 l 1,12,13
 167 389 167 389 222 389 c 0,14,0
 244 389 244 389 257.5 386.5 c 128,-1,1
EndSplineSet
EndChar

StartChar: s
Encoding: 115 115 45
Width: 370
GlyphClass: 2
Flags: W
AnchorPoint: "Anchor-1" 180 384 basechar 0
AnchorPoint: "Anchor-0" 169 0 basechar 0
LayerCount: 2
Fore
SplineSet
236.5 59.5 m 128,-1,1
 261 73 261 73 261 99 c 0,2,3
 261 120 261 120 243 132 c 128,-1,4
 225 144 225 144 167 168 c 2,5,-1
 129 183 l 2,6,7
 104 195 104 195 88 204.5 c 128,-1,8
 72 214 72 214 59 233.5 c 128,-1,9
 46 253 46 253 46 283 c 0,10,11
 46 337 46 337 90.5 363 c 128,-1,12
 135 389 135 389 200 389 c 0,13,14
 255 389 255 389 310 364 c 1,15,-1
 294 316 l 1,16,17
 249 335 249 335 207 335 c 0,18,19
 164 335 164 335 137.5 322.5 c 128,-1,20
 111 310 111 310 111 287 c 256,21,22
 111 264 111 264 129.5 251 c 128,-1,23
 148 238 148 238 193 221 c 2,24,-1
 226 208 l 2,25,26
 281 185 281 185 303 160 c 128,-1,27
 325 135 325 135 325 94 c 0,28,29
 325 52 325 52 286 21.5 c 128,-1,30
 247 -9 247 -9 182 -9 c 0,31,32
 108 -9 108 -9 36 20 c 1,33,-1
 54 69 l 1,34,35
 119 46 119 46 177 46 c 0,36,0
 212 46 212 46 236.5 59.5 c 128,-1,1
EndSplineSet
EndChar

StartChar: t
Encoding: 116 116 46
Width: 297
GlyphClass: 2
Flags: W
AnchorPoint: "Anchor-1" 0 0 basechar 0
AnchorPoint: "Anchor-0" 173 0 basechar 0
LayerCount: 2
Fore
SplineSet
105.5 23.5 m 128,-1,1
 81 55 81 55 81 119 c 2,2,-1
 81 330 l 1,3,-1
 16 330 l 1,4,-1
 16 384 l 1,5,-1
 81 384 l 1,6,-1
 81 478 l 1,7,-1
 146 483 l 1,8,-1
 146 384 l 1,9,-1
 272 384 l 1,10,-1
 272 330 l 1,11,-1
 146 330 l 1,12,-1
 146 123 l 2,13,14
 146 83 146 83 158.5 65 c 128,-1,15
 171 47 171 47 207 47 c 0,16,17
 241 47 241 47 268 53 c 1,18,-1
 279 9 l 1,19,20
 234 -8 234 -8 188 -8 c 0,21,0
 130 -8 130 -8 105.5 23.5 c 128,-1,1
EndSplineSet
EndChar

StartChar: u
Encoding: 117 117 47
Width: 430
GlyphClass: 2
Flags: W
AnchorPoint: "Anchor-1" 216 384 basechar 0
AnchorPoint: "Anchor-0" 0 0 basechar 0
LayerCount: 2
Fore
SplineSet
140 67 m 128,-1,1
 159 46 159 46 205 46 c 0,2,3
 252 46 252 46 310 73 c 1,4,-1
 310 384 l 1,5,-1
 375 384 l 1,6,-1
 375 0 l 1,7,-1
 330 0 l 1,8,-1
 316 28 l 1,9,10
 243 -10 243 -10 181 -10 c 0,11,12
 121 -10 121 -10 88.5 25 c 128,-1,13
 56 60 56 60 56 121 c 2,14,-1
 56 384 l 1,15,-1
 121 384 l 1,16,-1
 121 137 l 2,17,0
 121 88 121 88 140 67 c 128,-1,1
EndSplineSet
EndChar

StartChar: v
Encoding: 118 118 48
Width: 401
GlyphClass: 2
Flags: W
LayerCount: 2
Fore
SplineSet
165 0 m 1,0,-1
 22 384 l 1,1,-1
 92 384 l 1,2,-1
 198 83 l 1,3,-1
 202 63 l 1,4,-1
 205 83 l 1,5,-1
 312 384 l 1,6,-1
 379 384 l 1,7,-1
 237 0 l 1,8,-1
 165 0 l 1,0,-1
EndSplineSet
EndChar

StartChar: y
Encoding: 121 121 49
Width: 412
GlyphClass: 2
Flags: W
AnchorPoint: "Anchor-1" 202 384 basechar 0
AnchorPoint: "Anchor-0" 0 0 basechar 0
LayerCount: 2
Fore
SplineSet
169 -206 m 1,0,-1
 102 -206 l 1,1,-1
 176 -20 l 1,2,-1
 22 384 l 1,3,-1
 90 384 l 1,4,-1
 208 66 l 1,5,-1
 326 384 l 1,6,-1
 388 384 l 1,7,-1
 169 -206 l 1,0,-1
EndSplineSet
EndChar

StartChar: fi
Encoding: 64257 64257 50
Width: 469
GlyphClass: 3
Flags: W
LayerCount: 2
Fore
SplineSet
171 486 m 128,-1,1
 149 469 149 469 149 426 c 2,2,-1
 149 384 l 1,3,-1
 266 384 l 1,4,-1
 266 333 l 1,5,-1
 150 333 l 1,6,-1
 150 0 l 1,7,-1
 85 0 l 1,8,-1
 85 333 l 1,9,-1
 28 333 l 1,10,-1
 28 384 l 1,11,-1
 83 384 l 1,12,-1
 83 423 l 2,13,14
 83 472 83 472 96 495 c 0,15,16
 129 554 129 554 211 554 c 0,17,18
 246 554 246 554 284 544 c 1,19,-1
 271 497 l 1,20,21
 241 503 241 503 231 503 c 0,22,0
 193 503 193 503 171 486 c 128,-1,1
349 470.5 m 128,-1,24
 337 483 337 483 337 500 c 0,25,26
 337 516 337 516 349 528.5 c 128,-1,27
 361 541 361 541 379 541 c 0,28,29
 396 541 396 541 408 528.5 c 128,-1,30
 420 516 420 516 420 500 c 0,31,32
 420 483 420 483 408.5 470.5 c 128,-1,33
 397 458 397 458 379 458 c 256,34,23
 361 458 361 458 349 470.5 c 128,-1,24
411 0 m 1,35,-1
 346 0 l 1,36,-1
 346 384 l 1,37,-1
 411 384 l 1,38,-1
 411 0 l 1,35,-1
EndSplineSet
Ligature2: "'liga' Standard Ligatures lookup 22 subtable" f i
EndChar

StartChar: fl
Encoding: 64258 64258 51
Width: 509
GlyphClass: 3
Flags: W
LayerCount: 2
Fore
SplineSet
171 486 m 128,-1,1
 149 469 149 469 149 426 c 2,2,-1
 149 384 l 1,3,-1
 266 384 l 1,4,-1
 266 333 l 1,5,-1
 150 333 l 1,6,-1
 150 0 l 1,7,-1
 85 0 l 1,8,-1
 85 333 l 1,9,-1
 28 333 l 1,10,-1
 28 384 l 1,11,-1
 83 384 l 1,12,-1
 83 423 l 2,13,14
 83 472 83 472 96 495 c 0,15,16
 129 554 129 554 211 554 c 0,17,18
 246 554 246 554 284 544 c 1,19,-1
 271 497 l 1,20,21
 241 503 241 503 231 503 c 0,22,0
 193 503 193 503 171 486 c 128,-1,1
492 57 m 1,24,-1
 504 10 l 2,25,26
 501 9 501 9 480 0 c 128,-1,27
 459 -9 459 -9 426 -9 c 0,28,29
 389 -9 389 -9 367 16.5 c 128,-1,30
 345 42 345 42 344 83 c 2,31,-1
 344 533 l 1,32,-1
 407 533 l 1,33,-1
 407 106 l 2,34,35
 407 79 407 79 416 65 c 128,-1,36
 425 51 425 51 458 51 c 0,37,23
 473 51 473 51 492 57 c 1,24,-1
EndSplineSet
Ligature2: "'liga' Standard Ligatures lookup 22 subtable" f l
EndChar

StartChar: grave
Encoding: 96 96 52
Width: 193
Flags: W
LayerCount: 2
Fore
SplineSet
155 427 m 1,0,-1
 5 550 l 1,1,-1
 41 593 l 1,2,-1
 188 465 l 1,3,-1
 155 427 l 1,0,-1
EndSplineSet
EndChar

StartChar: acute.cap
Encoding: 65538 -1 53
Width: 203
Flags: W
LayerCount: 2
Fore
SplineSet
27 586 m 1,0,-1
 5 627 l 1,1,-1
 171 705 l 1,2,-1
 198 652 l 1,3,-1
 27 586 l 1,0,-1
EndSplineSet
EndChar

StartChar: breve.cap
Encoding: 65539 -1 54
Width: 250
Flags: W
LayerCount: 2
Fore
SplineSet
5 672 m 1,1,-1
 42 698 l 1,2,3
 63 672 63 672 82 659 c 128,-1,4
 101 646 101 646 125 646 c 0,5,6
 148 646 148 646 167 659 c 128,-1,7
 186 672 186 672 207 698 c 1,8,-1
 245 672 l 1,9,10
 198 598 198 598 125 598 c 256,11,0
 52 598 52 598 5 672 c 1,1,-1
EndSplineSet
EndChar

StartChar: caron.cap
Encoding: 65540 -1 55
Width: 255
Flags: W
LayerCount: 2
Fore
SplineSet
5 683 m 1,0,-1
 38 720 l 1,1,-1
 128 655 l 1,2,-1
 218 720 l 1,3,-1
 250 683 l 1,4,-1
 128 592 l 1,5,-1
 5 683 l 1,0,-1
EndSplineSet
EndChar

StartChar: circumflex.cap
Encoding: 65541 -1 56
Width: 255
Flags: W
LayerCount: 2
Fore
SplineSet
218 592 m 1,0,-1
 128 656 l 1,1,-1
 38 592 l 1,2,-1
 5 628 l 1,3,-1
 128 720 l 1,4,-1
 250 628 l 1,5,-1
 218 592 l 1,0,-1
EndSplineSet
EndChar

StartChar: dieresis.cap
Encoding: 65542 -1 57
Width: 232
Flags: W
LayerCount: 2
Fore
SplineSet
11 626 m 128,-1,1
 0 637 0 637 0 652 c 256,2,3
 0 667 0 667 11 678 c 128,-1,4
 22 689 22 689 37 689 c 256,5,6
 52 689 52 689 63 678 c 128,-1,7
 74 667 74 667 74 652 c 256,8,9
 74 637 74 637 63 626 c 128,-1,10
 52 615 52 615 37 615 c 256,11,0
 22 615 22 615 11 626 c 128,-1,1
169 626 m 128,-1,13
 158 637 158 637 158 652 c 256,14,15
 158 667 158 667 169 678 c 128,-1,16
 180 689 180 689 195 689 c 256,17,18
 210 689 210 689 221 678 c 128,-1,19
 232 667 232 667 232 652 c 256,20,21
 232 637 232 637 221 626 c 128,-1,22
 210 615 210 615 195 615 c 256,23,12
 180 615 180 615 169 626 c 128,-1,13
EndSplineSet
EndChar

StartChar: dotaccent.cap
Encoding: 65543 -1 58
Width: 85
Flags: W
LayerCount: 2
Fore
SplineSet
12.5 631.5 m 128,-1,1
 0 644 0 644 0 661 c 256,2,3
 0 678 0 678 12.5 690.5 c 128,-1,4
 25 703 25 703 42 703 c 256,5,6
 59 703 59 703 71.5 690.5 c 128,-1,7
 84 678 84 678 84 661 c 256,8,9
 84 644 84 644 71.5 631.5 c 128,-1,10
 59 619 59 619 42 619 c 256,11,0
 25 619 25 619 12.5 631.5 c 128,-1,1
EndSplineSet
EndChar

StartChar: grave.cap
Encoding: 65544 -1 59
Width: 201
Flags: W
LayerCount: 2
Fore
SplineSet
196 627 m 1,0,-1
 175 586 l 1,1,-1
 5 652 l 1,2,-1
 30 705 l 1,3,-1
 196 627 l 1,0,-1
EndSplineSet
EndChar

StartChar: hungarumlaut.cap
Encoding: 65545 -1 60
Width: 411
Flags: W
LayerCount: 2
Fore
SplineSet
27 586 m 1,0,-1
 5 627 l 1,1,-1
 171 705 l 1,2,-1
 198 652 l 1,3,-1
 27 586 l 1,0,-1
235 586 m 1,4,-1
 213 627 l 1,5,-1
 379 705 l 1,6,-1
 406 652 l 1,7,-1
 235 586 l 1,4,-1
EndSplineSet
EndChar

StartChar: macron.cap
Encoding: 65546 -1 61
Width: 249
Flags: W
LayerCount: 2
Fore
SplineSet
244 617 m 1,0,-1
 5 617 l 1,1,-1
 5 667 l 1,2,-1
 244 667 l 1,3,-1
 244 617 l 1,0,-1
EndSplineSet
EndChar

StartChar: ring.cap
Encoding: 65547 -1 62
Width: 181
Flags: W
LayerCount: 2
Fore
SplineSet
30 734.5 m 128,-1,1
 55 760 55 760 90 760 c 256,2,3
 125 760 125 760 150.5 734.5 c 128,-1,4
 176 709 176 709 176 674 c 0,5,6
 176 637 176 637 150.5 611.5 c 128,-1,7
 125 586 125 586 90 586 c 256,8,9
 55 586 55 586 30 611.5 c 128,-1,10
 5 637 5 637 5 674 c 0,11,0
 5 709 5 709 30 734.5 c 128,-1,1
123 707 m 128,-1,13
 110 721 110 721 90 721 c 0,14,15
 69 721 69 721 56.5 707.5 c 128,-1,16
 44 694 44 694 44 674 c 0,17,18
 44 652 44 652 56.5 638.5 c 128,-1,19
 69 625 69 625 89 625 c 0,20,21
 110 625 110 625 123 639 c 128,-1,22
 136 653 136 653 136 674 c 0,23,12
 136 693 136 693 123 707 c 128,-1,13
EndSplineSet
EndChar

StartChar: tilde.cap
Encoding: 65548 -1 63
Width: 278
Flags: W
LayerCount: 2
Fore
SplineSet
115.5 680.5 m 128,-1,1
 128 674 128 674 146 661 c 0,2,3
 173 642 173 642 184 642 c 0,4,5
 203 642 203 642 212 653 c 128,-1,6
 221 664 221 664 227 687 c 1,7,-1
 273 673 l 1,8,9
 266 637 266 637 243 615.5 c 128,-1,10
 220 594 220 594 186 594 c 0,11,12
 168 594 168 594 153 601.5 c 128,-1,13
 138 609 138 609 123 621 c 0,14,15
 119 623 119 623 108.5 630 c 128,-1,16
 98 637 98 637 90 637 c 0,17,18
 74 637 74 637 65.5 626.5 c 128,-1,19
 57 616 57 616 50 593 c 1,20,-1
 5 607 l 1,21,22
 13 644 13 644 35 665.5 c 128,-1,23
 57 687 57 687 89 687 c 0,24,0
 103 687 103 687 115.5 680.5 c 128,-1,1
EndSplineSet
EndChar

StartChar: zero
Encoding: 48 48 64
Width: 440
Flags: W
LayerCount: 2
Fore
SplineSet
354 398 m 128,-1,1
 399 332 399 332 399 228 c 0,2,3
 399 126 399 126 353.5 59 c 128,-1,4
 308 -8 308 -8 221 -8 c 0,5,6
 133 -8 133 -8 86.5 59 c 128,-1,7
 40 126 40 126 40 228 c 256,8,9
 40 330 40 330 86.5 397 c 128,-1,10
 133 464 133 464 221 464 c 256,11,0
 309 464 309 464 354 398 c 128,-1,1
311 98 m 128,-1,13
 339 151 339 151 339 228 c 256,14,15
 339 305 339 305 311 358 c 128,-1,16
 283 411 283 411 220 411 c 256,17,18
 157 411 157 411 129 358 c 128,-1,19
 101 305 101 305 101 228 c 256,20,21
 101 151 101 151 129 98 c 128,-1,22
 157 45 157 45 220 45 c 256,23,12
 283 45 283 45 311 98 c 128,-1,13
EndSplineSet
EndChar

StartChar: one
Encoding: 49 49 65
Width: 270
Flags: W
LayerCount: 2
Fore
SplineSet
250 50 m 1,0,-1
 250 0 l 1,1,-1
 27 0 l 1,2,-1
 27 50 l 1,3,-1
 113 50 l 1,4,-1
 113 400 l 1,5,-1
 42 372 l 1,6,-1
 20 420 l 1,7,-1
 105 456 l 1,8,-1
 172 456 l 1,9,-1
 172 50 l 1,10,-1
 250 50 l 1,0,-1
EndSplineSet
EndChar

StartChar: two
Encoding: 50 50 66
Width: 357
Flags: W
LayerCount: 2
Fore
SplineSet
101.5 453.5 m 128,-1,1
 133 465 133 465 181 465 c 0,2,3
 214 465 214 465 245.5 450.5 c 128,-1,4
 277 436 277 436 297.5 405.5 c 128,-1,5
 318 375 318 375 318 332 c 0,6,7
 318 280 318 280 292.5 239 c 128,-1,8
 267 198 267 198 208 137 c 2,9,-1
 130 55 l 1,10,-1
 321 55 l 1,11,-1
 321 0 l 1,12,-1
 41 0 l 1,13,-1
 41 43 l 1,14,15
 91 100 91 100 150 161 c 0,16,17
 192 205 192 205 196 210 c 0,18,19
 235 255 235 255 247 279 c 128,-1,20
 259 303 259 303 259 332 c 0,21,22
 259 367 259 367 236 387 c 128,-1,23
 213 407 213 407 172 407 c 0,24,25
 141 407 141 407 119.5 399.5 c 128,-1,26
 98 392 98 392 79.5 382 c 128,-1,27
 61 372 61 372 52 368 c 1,28,-1
 30 420 l 1,29,0
 70 442 70 442 101.5 453.5 c 128,-1,1
EndSplineSet
EndChar

StartChar: three
Encoding: 51 51 67
Width: 387
Flags: W
LayerCount: 2
Fore
SplineSet
284.5 435.5 m 128,-1,1
 323 405 323 405 323 347 c 0,2,3
 323 311 323 311 303.5 281.5 c 128,-1,4
 284 252 284 252 255 236 c 1,5,6
 298 223 298 223 322.5 196.5 c 128,-1,7
 347 170 347 170 347 124 c 0,8,9
 347 63 347 63 303 29 c 128,-1,10
 259 -5 259 -5 186 -5 c 0,11,12
 142 -5 142 -5 107.5 4.5 c 128,-1,13
 73 14 73 14 30 34 c 1,14,-1
 51 91 l 1,15,16
 91 73 91 73 121 63.5 c 128,-1,17
 151 54 151 54 181 54 c 0,18,19
 283 54 283 54 283 127 c 0,20,21
 283 170 283 170 247 187.5 c 128,-1,22
 211 205 211 205 139 205 c 2,23,-1
 131 205 l 1,24,-1
 131 261 l 1,25,26
 261 266 261 266 261 342 c 0,27,28
 261 379 261 379 240.5 393 c 128,-1,29
 220 407 220 407 181 407 c 0,30,31
 153 407 153 407 126 399 c 128,-1,32
 99 391 99 391 59 373 c 1,33,-1
 38 426 l 1,34,35
 79 447 79 447 112 456.5 c 128,-1,36
 145 466 145 466 181 466 c 0,37,0
 246 466 246 466 284.5 435.5 c 128,-1,1
EndSplineSet
EndChar

StartChar: four
Encoding: 52 52 68
Width: 397
Flags: W
LayerCount: 2
Fore
SplineSet
384 165 m 1,0,-1
 384 109 l 1,1,-1
 305 109 l 1,2,-1
 305 -1 l 1,3,-1
 246 -1 l 1,4,-1
 246 109 l 1,5,-1
 20 109 l 1,6,-1
 20 154 l 1,7,-1
 222 456 l 1,8,-1
 305 456 l 1,9,-1
 305 165 l 1,10,-1
 384 165 l 1,0,-1
95 165 m 1,11,-1
 246 165 l 1,12,-1
 246 394 l 1,13,-1
 95 165 l 1,11,-1
EndSplineSet
EndChar

StartChar: five
Encoding: 53 53 69
Width: 367
Flags: W
LayerCount: 2
Fore
SplineSet
65 232 m 1,1,-1
 50 237 l 1,2,-1
 50 456 l 1,3,-1
 310 456 l 1,4,-1
 310 403 l 1,5,-1
 110 403 l 1,6,-1
 110 291 l 1,7,8
 135 294 135 294 169 294 c 0,9,10
 250 294 250 294 293.5 252.5 c 128,-1,11
 337 211 337 211 337 146 c 0,12,13
 337 65 337 65 284.5 29 c 128,-1,14
 232 -7 232 -7 152 -7 c 0,15,16
 125 -7 125 -7 92.5 -1 c 128,-1,17
 60 5 60 5 30 15 c 1,18,-1
 46 72 l 1,19,20
 110 52 110 52 151 52 c 0,21,22
 214 52 214 52 245.5 74.5 c 128,-1,23
 277 97 277 97 277 145 c 0,24,25
 277 195 277 195 246.5 217 c 128,-1,26
 216 239 216 239 145 239 c 0,27,0
 114 239 114 239 65 232 c 1,1,-1
EndSplineSet
EndChar

StartChar: six
Encoding: 54 54 70
Width: 385
Flags: W
LayerCount: 2
Fore
SplineSet
314.5 247.5 m 128,-1,1
 357 211 357 211 357 142 c 0,2,3
 357 80 357 80 318 36.5 c 128,-1,4
 279 -7 279 -7 205 -7 c 0,5,6
 119 -7 119 -7 77 50.5 c 128,-1,7
 35 108 35 108 35 197 c 0,8,9
 35 325 35 325 105 390 c 128,-1,10
 175 455 175 455 301 455 c 1,11,-1
 307 400 l 1,12,13
 209 404 209 404 157.5 363 c 128,-1,14
 106 322 106 322 98 254 c 1,15,16
 143 284 143 284 210 284 c 0,17,0
 272 284 272 284 314.5 247.5 c 128,-1,1
274.5 76.5 m 128,-1,19
 298 102 298 102 298 141 c 0,20,21
 298 226 298 226 206 226 c 0,22,23
 167 226 167 226 142.5 215.5 c 128,-1,24
 118 205 118 205 93 185 c 1,25,26
 96 121 96 121 126 86 c 128,-1,27
 156 51 156 51 206 51 c 0,28,18
 251 51 251 51 274.5 76.5 c 128,-1,19
EndSplineSet
EndChar

StartChar: seven
Encoding: 55 55 71
Width: 341
Flags: W
LayerCount: 2
Fore
SplineSet
152 0 m 1,0,-1
 91 0 l 1,1,-1
 252 401 l 1,2,-1
 20 401 l 1,3,-1
 20 457 l 1,4,-1
 321 457 l 1,5,-1
 321 417 l 1,6,-1
 152 0 l 1,0,-1
EndSplineSet
EndChar

StartChar: eight
Encoding: 56 56 72
Width: 380
Flags: W
LayerCount: 2
Fore
SplineSet
287.5 437 m 128,-1,1
 324 409 324 409 324 358 c 0,2,3
 324 324 324 324 306 299.5 c 128,-1,4
 288 275 288 275 261 252 c 1,5,6
 302 233 302 233 326 200 c 0,7,8
 348 169 348 169 348 129 c 0,9,10
 348 68 348 68 305.5 28.5 c 128,-1,11
 263 -11 263 -11 192 -11 c 0,12,13
 142 -11 142 -11 108.5 6 c 128,-1,14
 75 23 75 23 52 54 c 0,15,16
 32 83 32 83 32 124 c 0,17,18
 32 166 32 166 57.5 199.5 c 128,-1,19
 83 233 83 233 119 250 c 1,20,21
 98 267 98 267 87 278 c 128,-1,22
 76 289 76 289 66 310 c 128,-1,23
 56 331 56 331 56 360 c 0,24,25
 56 406 56 406 95 435.5 c 128,-1,26
 134 465 134 465 190 465 c 0,27,0
 251 465 251 465 287.5 437 c 128,-1,1
138 393 m 128,-1,29
 117 377 117 377 117 354 c 0,30,31
 117 327 117 327 134.5 308.5 c 128,-1,32
 152 290 152 290 191 270 c 1,33,34
 221 287 221 287 241.5 307 c 128,-1,35
 262 327 262 327 262 353 c 0,36,37
 262 381 262 381 240 395 c 128,-1,38
 218 409 218 409 187 409 c 0,39,28
 159 409 159 409 138 393 c 128,-1,29
261 69.5 m 128,-1,41
 288 91 288 91 288 124 c 256,42,43
 288 157 288 157 273 177.5 c 128,-1,44
 258 198 258 198 222 214 c 0,45,46
 206 221 206 221 188 224 c 1,47,48
 147 213 147 213 119 189 c 128,-1,49
 91 165 91 165 91 128 c 0,50,51
 91 94 91 94 119 71 c 128,-1,52
 147 48 147 48 192 48 c 0,53,40
 234 48 234 48 261 69.5 c 128,-1,41
EndSplineSet
EndChar

StartChar: nine
Encoding: 57 57 73
Width: 387
Flags: W
LayerCount: 2
Fore
SplineSet
313.5 396.5 m 128,-1,1
 353 338 353 338 353 241 c 0,2,3
 353 118 353 118 287 55.5 c 128,-1,4
 221 -7 221 -7 92 -7 c 1,5,-1
 86 48 l 1,6,7
 183 45 183 45 232 84 c 128,-1,8
 281 123 281 123 292 191 c 1,9,10
 245 164 245 164 183 164 c 256,11,12
 121 164 121 164 78 200.5 c 128,-1,13
 35 237 35 237 35 307 c 0,14,15
 35 368 35 368 74.5 411.5 c 128,-1,16
 114 455 114 455 188 455 c 0,17,0
 274 455 274 455 313.5 396.5 c 128,-1,1
187 222 m 0,19,20
 224 222 224 222 248 231.5 c 128,-1,21
 272 241 272 241 295 259 c 1,22,23
 294 326 294 326 265.5 361.5 c 128,-1,24
 237 397 237 397 187 397 c 0,25,26
 142 397 142 397 117 371.5 c 128,-1,27
 92 346 92 346 92 308 c 0,28,18
 92 222 92 222 187 222 c 0,19,20
EndSplineSet
EndChar

StartChar: fraction
Encoding: 8260 8260 74
Width: 280
Flags: W
LayerCount: 2
Fore
SplineSet
15 0 m 1,0,-1
 330 550 l 1,1,-1
 268 550 l 1,2,-1
 -50 0 l 1,3,-1
 15 0 l 1,0,-1
EndSplineSet
EndChar

StartChar: uni0904
Encoding: 2308 2308 75
Width: 585
GlyphClass: 2
Flags: W
AnchorPoint: "Anchor-2" 484 447 basechar 0
LayerCount: 2
Fore
SplineSet
511 408 m 1,0,-1
 511 0 l 1,1,-1
 457 0 l 1,2,-1
 457 193 l 1,3,4
 420 182 420 182 388 182 c 0,5,6
 367 182 367 182 348 186 c 1,7,8
 358 169 358 169 358 137 c 0,9,10
 358 90 358 90 318.5 57.5 c 128,-1,11
 279 25 279 25 222 25 c 0,12,13
 155 25 155 25 109 62.5 c 128,-1,14
 63 100 63 100 18 180 c 1,15,-1
 62 207 l 1,16,17
 98 141 98 141 134 109 c 128,-1,18
 170 77 170 77 221 77 c 0,19,20
 259 77 259 77 282.5 95 c 128,-1,21
 306 113 306 113 306 147 c 0,22,23
 306 231 306 231 178 226 c 1,24,-1
 159 226 l 1,25,-1
 159 275 l 1,26,-1
 182 275 l 2,27,28
 291 274 291 274 291 347 c 0,29,30
 291 375 291 375 271.5 390.5 c 128,-1,31
 252 406 252 406 221 406 c 0,32,33
 192 406 192 406 172.5 395.5 c 128,-1,34
 153 385 153 385 132 366 c 1,35,-1
 102 407 l 1,36,37
 130 429 130 429 156 443 c 128,-1,38
 182 457 182 457 222 457 c 0,39,40
 276 457 276 457 309.5 427.5 c 128,-1,41
 343 398 343 398 343 353 c 0,42,43
 343 321 343 321 327 295.5 c 128,-1,44
 311 270 311 270 279 254 c 1,45,46
 336 230 336 230 375 230 c 0,47,48
 402 230 402 230 420.5 235 c 128,-1,49
 439 240 439 240 457 250 c 1,50,-1
 457 408 l 1,51,-1
 363 408 l 1,52,-1
 363 456 l 1,53,-1
 466 456 l 1,54,55
 461 487 461 487 436.5 501.5 c 128,-1,56
 412 516 412 516 363 516 c 0,57,58
 237 516 237 516 230 621 c 1,59,-1
 277 638 l 1,60,61
 283 598 283 598 299.5 583.5 c 128,-1,62
 316 569 316 569 352 565 c 0,63,64
 362 564 362 564 385 564 c 0,65,66
 432 564 432 564 472 540 c 128,-1,67
 512 516 512 516 518 456 c 1,68,-1
 609 456 l 1,69,-1
 609 408 l 1,70,-1
 511 408 l 1,0,-1
EndSplineSet
EndChar

StartChar: adeva
Encoding: 2309 2309 77
Width: 585
GlyphClass: 2
Flags: W
AnchorPoint: "Anchor-2" 484 447 basechar 0
LayerCount: 2
Fore
SplineSet
511 408 m 1,0,-1
 511 0 l 1,1,-1
 457 0 l 1,2,-1
 457 193 l 1,3,4
 420 182 420 182 388 182 c 0,5,6
 367 182 367 182 348 186 c 1,7,8
 358 169 358 169 358 137 c 0,9,10
 358 90 358 90 318.5 57.5 c 128,-1,11
 279 25 279 25 222 25 c 0,12,13
 155 25 155 25 109 62.5 c 128,-1,14
 63 100 63 100 18 180 c 1,15,-1
 62 207 l 1,16,17
 98 141 98 141 134 109 c 128,-1,18
 170 77 170 77 221 77 c 0,19,20
 259 77 259 77 282.5 95 c 128,-1,21
 306 113 306 113 306 147 c 0,22,23
 306 231 306 231 178 226 c 1,24,-1
 159 226 l 1,25,-1
 159 275 l 1,26,-1
 182 275 l 2,27,28
 291 274 291 274 291 347 c 0,29,30
 291 375 291 375 271.5 390.5 c 128,-1,31
 252 406 252 406 221 406 c 0,32,33
 192 406 192 406 172.5 395.5 c 128,-1,34
 153 385 153 385 132 366 c 1,35,-1
 102 407 l 1,36,37
 130 429 130 429 156 443 c 128,-1,38
 182 457 182 457 222 457 c 0,39,40
 276 457 276 457 309.5 427.5 c 128,-1,41
 343 398 343 398 343 353 c 0,42,43
 343 321 343 321 327 295.5 c 128,-1,44
 311 270 311 270 279 254 c 1,45,46
 336 230 336 230 375 230 c 0,47,48
 402 230 402 230 420.5 235 c 128,-1,49
 439 240 439 240 457 250 c 1,50,-1
 457 408 l 1,51,-1
 363 408 l 1,52,-1
 363 456 l 1,53,-1
 609 456 l 1,54,-1
 609 408 l 1,55,-1
 511 408 l 1,0,-1
EndSplineSet
EndChar

StartChar: aadeva
Encoding: 2310 2310 78
Width: 794
GlyphClass: 2
Flags: W
AnchorPoint: "Anchor-2" 694 447 basechar 0
LayerCount: 2
Fore
SplineSet
721 408 m 1,0,-1
 721 0 l 1,1,-1
 666 0 l 1,2,-1
 666 408 l 1,3,-1
 511 408 l 1,4,-1
 511 0 l 1,5,-1
 457 0 l 1,6,-1
 457 193 l 1,7,8
 420 182 420 182 388 182 c 0,9,10
 367 182 367 182 348 186 c 1,11,12
 358 169 358 169 358 137 c 0,13,14
 358 90 358 90 318.5 57.5 c 128,-1,15
 279 25 279 25 222 25 c 0,16,17
 155 25 155 25 109 62.5 c 128,-1,18
 63 100 63 100 18 180 c 1,19,-1
 62 207 l 1,20,21
 98 141 98 141 134 109 c 128,-1,22
 170 77 170 77 221 77 c 0,23,24
 259 77 259 77 282.5 95 c 128,-1,25
 306 113 306 113 306 147 c 0,26,27
 306 231 306 231 178 226 c 1,28,-1
 159 226 l 1,29,-1
 159 275 l 1,30,-1
 182 275 l 2,31,32
 291 274 291 274 291 347 c 0,33,34
 291 375 291 375 271.5 390.5 c 128,-1,35
 252 406 252 406 221 406 c 0,36,37
 192 406 192 406 172.5 395.5 c 128,-1,38
 153 385 153 385 132 366 c 1,39,-1
 102 407 l 1,40,41
 130 429 130 429 156 443 c 128,-1,42
 182 457 182 457 222 457 c 0,43,44
 276 457 276 457 309.5 427.5 c 128,-1,45
 343 398 343 398 343 353 c 0,46,47
 343 321 343 321 327 295.5 c 128,-1,48
 311 270 311 270 279 254 c 1,49,50
 336 230 336 230 375 230 c 0,51,52
 402 230 402 230 420.5 235 c 128,-1,53
 439 240 439 240 457 250 c 1,54,-1
 457 408 l 1,55,-1
 363 408 l 1,56,-1
 363 456 l 1,57,-1
 818 456 l 1,58,-1
 818 408 l 1,59,-1
 721 408 l 1,0,-1
EndSplineSet
EndChar

StartChar: ideva
Encoding: 2311 2311 79
Width: 376
GlyphClass: 2
Flags: W
AnchorPoint: "Anchor-2" 267 447 basechar 0
LayerCount: 2
Fore
SplineSet
97 256 m 0,1,2
 97 233 97 233 115 223.5 c 128,-1,3
 133 214 133 214 173 214 c 2,4,-1
 213 215 l 2,5,6
 263 215 263 215 295 189.5 c 128,-1,7
 327 164 327 164 327 115 c 0,8,9
 327 67 327 67 288.5 38 c 128,-1,10
 250 9 250 9 189 9 c 2,11,-1
 179 9 l 1,12,-1
 239 -69 l 1,13,-1
 190 -99 l 1,14,-1
 103 22 l 1,15,16
 73 32 73 32 54.5 49 c 128,-1,17
 36 66 36 66 36 90 c 0,18,19
 36 107 36 107 48 119 c 128,-1,20
 60 131 60 131 88 131 c 1,21,-1
 139 64 l 1,22,23
 155 59 155 59 185 59 c 0,24,25
 222 59 222 59 247.5 73.5 c 128,-1,26
 273 88 273 88 273 116 c 0,27,28
 273 139 273 139 257 152 c 128,-1,29
 241 165 241 165 206 165 c 2,30,-1
 164 164 l 2,31,32
 121 164 121 164 83 181 c 128,-1,33
 45 198 45 198 45 255 c 0,34,35
 45 301 45 301 79.5 323 c 128,-1,36
 114 345 114 345 174 345 c 0,37,38
 204 345 204 345 239 341 c 1,39,-1
 239 408 l 1,40,-1
 -28 408 l 1,41,-1
 -28 456 l 1,42,-1
 400 456 l 1,43,-1
 400 408 l 1,44,-1
 295 408 l 1,45,-1
 295 292 l 1,46,-1
 285 285 l 1,47,-1
 262 288 l 2,48,49
 216 294 216 294 171 294 c 0,50,0
 97 294 97 294 97 256 c 0,1,2
EndSplineSet
EndChar

StartChar: iideva
Encoding: 2312 2312 80
Width: 376
GlyphClass: 2
Flags: W
AnchorPoint: "Anchor-2" 267 447 basechar 0
LayerCount: 2
Fore
SplineSet
97 256 m 0,1,2
 97 233 97 233 115 223.5 c 128,-1,3
 133 214 133 214 173 214 c 2,4,-1
 213 215 l 2,5,6
 263 215 263 215 295 189.5 c 128,-1,7
 327 164 327 164 327 115 c 0,8,9
 327 67 327 67 288.5 38 c 128,-1,10
 250 9 250 9 189 9 c 2,11,-1
 179 9 l 1,12,-1
 239 -69 l 1,13,-1
 190 -99 l 1,14,-1
 103 22 l 1,15,16
 73 32 73 32 54.5 49 c 128,-1,17
 36 66 36 66 36 90 c 0,18,19
 36 107 36 107 48 119 c 128,-1,20
 60 131 60 131 88 131 c 1,21,-1
 139 64 l 1,22,23
 155 59 155 59 185 59 c 0,24,25
 222 59 222 59 247.5 73.5 c 128,-1,26
 273 88 273 88 273 116 c 0,27,28
 273 139 273 139 257 152 c 128,-1,29
 241 165 241 165 206 165 c 2,30,-1
 164 164 l 2,31,32
 121 164 121 164 83 181 c 128,-1,33
 45 198 45 198 45 255 c 0,34,35
 45 301 45 301 79.5 323 c 128,-1,36
 114 345 114 345 174 345 c 0,37,38
 204 345 204 345 239 341 c 1,39,-1
 239 408 l 1,40,-1
 -28 408 l 1,41,-1
 -28 456 l 1,42,-1
 227 456 l 1,43,44
 202 475 202 475 187.5 501.5 c 128,-1,45
 173 528 173 528 173 557 c 0,46,47
 173 603 173 603 206.5 628.5 c 128,-1,48
 240 654 240 654 289 654 c 0,49,50
 339 654 339 654 390 622 c 1,51,-1
 362 578 l 1,52,53
 346 587 346 587 326 594.5 c 128,-1,54
 306 602 306 602 288 602 c 0,55,56
 226 602 226 602 226 550 c 0,57,58
 226 522 226 522 246 500 c 128,-1,59
 266 478 266 478 300 456 c 1,60,-1
 400 456 l 1,61,-1
 400 408 l 1,62,-1
 295 408 l 1,63,-1
 295 292 l 1,64,-1
 285 285 l 1,65,-1
 262 288 l 2,66,67
 216 294 216 294 171 294 c 0,68,0
 97 294 97 294 97 256 c 0,1,2
EndSplineSet
EndChar

StartChar: iideva_anusvaradeva
Encoding: 65549 -1 81
Width: 376
GlyphClass: 3
Flags: W
AnchorPoint: "Anchor-2" 267 447 basechar 0
LayerCount: 2
Fore
SplineSet
97 256 m 0,1,2
 97 233 97 233 115 223.5 c 128,-1,3
 133 214 133 214 173 214 c 2,4,-1
 213 215 l 2,5,6
 263 215 263 215 295 189.5 c 128,-1,7
 327 164 327 164 327 115 c 0,8,9
 327 67 327 67 288.5 38 c 128,-1,10
 250 9 250 9 189 9 c 2,11,-1
 179 9 l 1,12,-1
 239 -69 l 1,13,-1
 190 -99 l 1,14,-1
 103 22 l 1,15,16
 73 32 73 32 54.5 49 c 128,-1,17
 36 66 36 66 36 90 c 0,18,19
 36 107 36 107 48 119 c 128,-1,20
 60 131 60 131 88 131 c 1,21,-1
 139 64 l 1,22,23
 155 59 155 59 185 59 c 0,24,25
 222 59 222 59 247.5 73.5 c 128,-1,26
 273 88 273 88 273 116 c 0,27,28
 273 139 273 139 257 152 c 128,-1,29
 241 165 241 165 206 165 c 2,30,-1
 164 164 l 2,31,32
 121 164 121 164 83 181 c 128,-1,33
 45 198 45 198 45 255 c 0,34,35
 45 301 45 301 79.5 323 c 128,-1,36
 114 345 114 345 174 345 c 0,37,38
 204 345 204 345 239 341 c 1,39,-1
 239 408 l 1,40,-1
 -28 408 l 1,41,-1
 -28 456 l 1,42,-1
 227 456 l 1,43,44
 202 475 202 475 187.5 501.5 c 128,-1,45
 173 528 173 528 173 557 c 0,46,47
 173 603 173 603 206.5 628.5 c 128,-1,48
 240 654 240 654 289 654 c 0,49,50
 316 654 316 654 343 644.5 c 128,-1,51
 370 635 370 635 389 620 c 1,52,-1
 362 578 l 1,53,54
 348 588 348 588 329 595 c 128,-1,55
 310 602 310 602 292 602 c 0,56,57
 261 602 261 602 244 591 c 128,-1,58
 227 580 227 580 227 550 c 0,59,60
 227 522 227 522 247 500 c 128,-1,61
 267 478 267 478 300 456 c 1,62,-1
 400 456 l 1,63,-1
 400 408 l 1,64,-1
 295 408 l 1,65,-1
 295 292 l 1,66,-1
 285 285 l 1,67,-1
 262 288 l 2,68,69
 216 294 216 294 171 294 c 0,70,0
 97 294 97 294 97 256 c 0,1,2
275 560.5 m 128,-1,72
 283 569 283 569 295 569 c 0,73,74
 308 569 308 569 316 560.5 c 128,-1,75
 324 552 324 552 324 540 c 256,76,77
 324 528 324 528 316 520 c 128,-1,78
 308 512 308 512 295 512 c 0,79,80
 283 512 283 512 275 520 c 128,-1,81
 267 528 267 528 267 540 c 256,82,71
 267 552 267 552 275 560.5 c 128,-1,72
EndSplineSet
Ligature2: "'abvs' Above Base Substitutions lookup 17 subtable" iideva anusvaradeva
EndChar

StartChar: iideva_candrabindudeva
Encoding: 65550 -1 82
Width: 376
GlyphClass: 3
Flags: W
AnchorPoint: "Anchor-2" 267 447 basechar 0
LayerCount: 2
Fore
SplineSet
247 500 m 128,-1,1
 267 478 267 478 300 456 c 1,2,-1
 400 456 l 1,3,-1
 400 408 l 1,4,-1
 295 408 l 1,5,-1
 295 292 l 1,6,-1
 285 285 l 1,7,-1
 262 288 l 2,8,9
 216 294 216 294 171 294 c 0,10,11
 97 294 97 294 97 256 c 0,12,13
 97 233 97 233 115 223.5 c 128,-1,14
 133 214 133 214 173 214 c 2,15,-1
 213 215 l 2,16,17
 263 215 263 215 295 189.5 c 128,-1,18
 327 164 327 164 327 115 c 0,19,20
 327 67 327 67 288.5 38 c 128,-1,21
 250 9 250 9 189 9 c 2,22,-1
 179 9 l 1,23,-1
 239 -69 l 1,24,-1
 190 -99 l 1,25,-1
 103 22 l 1,26,27
 73 32 73 32 54.5 49 c 128,-1,28
 36 66 36 66 36 90 c 0,29,30
 36 107 36 107 48 119 c 128,-1,31
 60 131 60 131 88 131 c 1,32,-1
 139 64 l 1,33,34
 155 59 155 59 185 59 c 0,35,36
 222 59 222 59 247.5 73.5 c 128,-1,37
 273 88 273 88 273 116 c 0,38,39
 273 139 273 139 257 152 c 128,-1,40
 241 165 241 165 206 165 c 2,41,-1
 164 164 l 2,42,43
 121 164 121 164 83 181 c 128,-1,44
 45 198 45 198 45 255 c 0,45,46
 45 301 45 301 79.5 323 c 128,-1,47
 114 345 114 345 174 345 c 0,48,49
 204 345 204 345 239 341 c 1,50,-1
 239 408 l 1,51,-1
 -28 408 l 1,52,-1
 -28 456 l 1,53,-1
 227 456 l 1,54,55
 202 475 202 475 187.5 501.5 c 128,-1,56
 173 528 173 528 173 557 c 0,57,58
 173 604 173 604 206.5 628.5 c 128,-1,59
 240 653 240 653 292 653 c 0,60,61
 316 653 316 653 343 644 c 1,62,-1
 326 596 l 1,63,64
 308 602 308 602 292 602 c 0,65,66
 261 602 261 602 244 591 c 128,-1,67
 227 580 227 580 227 550 c 0,68,0
 227 522 227 522 247 500 c 128,-1,1
353 559.5 m 128,-1,70
 346 567 346 567 346 577 c 256,71,72
 346 587 346 587 353 594.5 c 128,-1,73
 360 602 360 602 371 602 c 256,74,75
 382 602 382 602 389 594.5 c 128,-1,76
 396 587 396 587 396 577 c 256,77,78
 396 567 396 567 389 559.5 c 128,-1,79
 382 552 382 552 371 552 c 256,80,69
 360 552 360 552 353 559.5 c 128,-1,70
433 498 m 128,-1,82
 408 479 408 479 370 479 c 0,83,84
 333 479 333 479 308 498 c 128,-1,85
 283 517 283 517 273 550 c 1,86,-1
 308 565 l 1,87,88
 317 541 317 541 333.5 528.5 c 128,-1,89
 350 516 350 516 370 516 c 0,90,91
 391 516 391 516 407 528.5 c 128,-1,92
 423 541 423 541 433 565 c 1,93,-1
 467 549 l 1,94,81
 458 517 458 517 433 498 c 128,-1,82
EndSplineSet
Ligature2: "'abvs' Above Base Substitutions lookup 17 subtable" iideva candrabindudeva
EndChar

StartChar: udeva
Encoding: 2313 2313 83
Width: 429
GlyphClass: 2
Flags: W
AnchorPoint: "Anchor-2" 254 447 basechar 0
LayerCount: 2
Fore
SplineSet
318 408 m 1,0,1
 343 382 343 382 343 339 c 0,2,3
 343 306 343 306 328 282.5 c 128,-1,4
 313 259 313 259 280 242 c 1,5,6
 318 229 318 229 338 201.5 c 128,-1,7
 358 174 358 174 358 126 c 0,8,9
 358 73 358 73 319 39 c 128,-1,10
 280 5 280 5 222 5 c 0,11,12
 155 5 155 5 109 42.5 c 128,-1,13
 63 80 63 80 18 160 c 1,14,-1
 62 187 l 1,15,16
 98 121 98 121 134 89 c 128,-1,17
 170 57 170 57 221 57 c 0,18,19
 259 57 259 57 282.5 76 c 128,-1,20
 306 95 306 95 306 132 c 0,21,22
 306 172 306 172 279 195.5 c 128,-1,23
 252 219 252 219 178 216 c 2,24,-1
 169 216 l 1,25,-1
 169 265 l 1,26,-1
 182 265 l 2,27,28
 294 264 294 264 294 339 c 0,29,30
 294 369 294 369 279 385.5 c 128,-1,31
 264 402 264 402 230 408 c 1,32,-1
 -24 408 l 1,33,-1
 -24 456 l 1,34,-1
 453 456 l 1,35,-1
 453 408 l 1,36,-1
 318 408 l 1,0,1
EndSplineSet
EndChar

StartChar: uudeva
Encoding: 2314 2314 84
Width: 582
GlyphClass: 2
Flags: W
AnchorPoint: "Anchor-2" 254 447 basechar 0
LayerCount: 2
Fore
SplineSet
318 408 m 1,0,1
 343 382 343 382 343 339 c 0,2,3
 343 306 343 306 328 282.5 c 128,-1,4
 313 259 313 259 280 242 c 1,5,6
 303 235 303 235 321 220 c 1,7,8
 341 241 341 241 369.5 259 c 128,-1,9
 398 277 398 277 430 277 c 0,10,11
 475 277 475 277 505.5 249 c 128,-1,12
 536 221 536 221 536 175 c 0,13,14
 536 105 536 105 463 53 c 1,15,-1
 429 91 l 1,16,17
 433 94 433 94 450 107.5 c 128,-1,18
 467 121 467 121 475.5 137.5 c 128,-1,19
 484 154 484 154 484 175 c 256,20,21
 484 196 484 196 472 211.5 c 128,-1,22
 460 227 460 227 432 227 c 0,23,24
 390 227 390 227 350 177 c 1,25,26
 358 155 358 155 358 126 c 0,27,28
 358 73 358 73 319 39 c 128,-1,29
 280 5 280 5 222 5 c 0,30,31
 155 5 155 5 109 42.5 c 128,-1,32
 63 80 63 80 18 160 c 1,33,-1
 62 187 l 1,34,35
 98 121 98 121 134 89 c 128,-1,36
 170 57 170 57 221 57 c 0,37,38
 259 57 259 57 282.5 76 c 128,-1,39
 306 95 306 95 306 132 c 0,40,41
 306 172 306 172 279 195.5 c 128,-1,42
 252 219 252 219 178 216 c 2,43,-1
 169 216 l 1,44,-1
 169 265 l 1,45,-1
 182 265 l 2,46,47
 294 264 294 264 294 339 c 0,48,49
 294 369 294 369 279 385.5 c 128,-1,50
 264 402 264 402 230 408 c 1,51,-1
 -24 408 l 1,52,-1
 -24 456 l 1,53,-1
 606 456 l 1,54,-1
 606 408 l 1,55,-1
 318 408 l 1,0,1
EndSplineSet
EndChar

StartChar: rvocalicdeva
Encoding: 2315 2315 85
Width: 630
GlyphClass: 2
Flags: W
AnchorPoint: "Anchor-2" 338 447 basechar 0
LayerCount: 2
Fore
SplineSet
366 239 m 1,0,1
 382 230 382 230 396.5 225.5 c 128,-1,2
 411 221 411 221 429 221 c 0,3,4
 465 221 465 221 489 248 c 1,5,-1
 444 314 l 1,6,7
 468 342 468 342 501 342 c 0,8,9
 520 342 520 342 535.5 324.5 c 128,-1,10
 551 307 551 307 551 280 c 0,11,12
 551 262 551 262 544 248 c 1,13,-1
 600 149 l 1,14,-1
 600 148 l 1,15,-1
 586 104 l 1,16,-1
 567 104 l 2,17,18
 538 104 538 104 522 93 c 128,-1,19
 506 82 506 82 506 64 c 0,20,21
 506 43 506 43 519 33 c 128,-1,22
 532 23 532 23 553 23 c 0,23,24
 578 23 578 23 600 34 c 1,25,-1
 618 -6 l 1,26,27
 589 -21 589 -21 553 -21 c 0,28,29
 507 -21 507 -21 482.5 3 c 128,-1,30
 458 27 458 27 458 63 c 0,31,32
 458 95 458 95 481.5 119 c 128,-1,33
 505 143 505 143 547 148 c 1,34,-1
 515 204 l 1,35,36
 480 172 480 172 430 172 c 0,37,38
 394 172 394 172 366 186 c 1,39,-1
 366 0 l 1,40,-1
 310 0 l 1,41,-1
 310 176 l 1,42,-1
 118 12 l 1,43,-1
 80 52 l 1,44,-1
 280 221 l 1,45,46
 227 283 227 283 177 283 c 0,47,48
 147 284 147 284 121.5 265.5 c 128,-1,49
 96 247 96 247 59 209 c 1,50,-1
 19 246 l 1,51,52
 63 292 63 292 97 314.5 c 128,-1,53
 131 337 131 337 179 337 c 0,54,55
 214 337 214 337 245 320 c 128,-1,56
 276 303 276 303 310 268 c 1,57,-1
 310 408 l 1,58,-1
 -24 408 l 1,59,-1
 -24 456 l 1,60,-1
 654 456 l 1,61,-1
 654 408 l 1,62,-1
 366 408 l 1,63,-1
 366 239 l 1,0,1
EndSplineSet
EndChar

StartChar: rrvocalicdeva
Encoding: 2400 2400 86
Width: 630
GlyphClass: 2
Flags: W
AnchorPoint: "Anchor-2" 338 447 basechar 0
LayerCount: 2
Fore
SplineSet
366 239 m 1,0,1
 382 230 382 230 396.5 225.5 c 128,-1,2
 411 221 411 221 429 221 c 0,3,4
 465 221 465 221 489 248 c 1,5,-1
 444 314 l 1,6,7
 468 342 468 342 501 342 c 0,8,9
 520 342 520 342 535.5 324.5 c 128,-1,10
 551 307 551 307 551 280 c 0,11,12
 551 262 551 262 544 248 c 1,13,-1
 600 149 l 1,14,-1
 600 148 l 1,15,-1
 586 104 l 1,16,-1
 567 104 l 2,17,18
 538 104 538 104 522 93 c 128,-1,19
 506 82 506 82 506 64 c 0,20,21
 506 43 506 43 522 32 c 128,-1,22
 538 21 538 21 563 21 c 2,23,-1
 609 21 l 1,24,-1
 609 -29 l 1,25,-1
 572 -29 l 2,26,27
 544 -29 544 -29 527 -40 c 128,-1,28
 510 -51 510 -51 510 -74 c 256,29,30
 510 -97 510 -97 524.5 -107.5 c 128,-1,31
 539 -118 539 -118 562 -118 c 0,32,33
 596 -118 596 -118 628 -99 c 1,34,-1
 652 -141 l 1,35,36
 629 -154 629 -154 607.5 -160 c 128,-1,37
 586 -166 586 -166 555 -166 c 0,38,39
 509 -166 509 -166 483.5 -141.5 c 128,-1,40
 458 -117 458 -117 458 -80 c 0,41,42
 458 -30 458 -30 500 -7 c 1,43,44
 458 16 458 16 458 63 c 0,45,46
 458 95 458 95 481.5 119 c 128,-1,47
 505 143 505 143 547 148 c 1,48,-1
 515 204 l 1,49,50
 480 172 480 172 430 172 c 0,51,52
 394 172 394 172 366 186 c 1,53,-1
 366 0 l 1,54,-1
 310 0 l 1,55,-1
 310 176 l 1,56,-1
 118 12 l 1,57,-1
 80 52 l 1,58,-1
 280 221 l 1,59,60
 227 283 227 283 177 283 c 0,61,62
 147 284 147 284 121.5 265.5 c 128,-1,63
 96 247 96 247 59 209 c 1,64,-1
 19 246 l 1,65,66
 63 292 63 292 97 314.5 c 128,-1,67
 131 337 131 337 179 337 c 0,68,69
 214 337 214 337 245 320 c 128,-1,70
 276 303 276 303 310 268 c 1,71,-1
 310 408 l 1,72,-1
 -24 408 l 1,73,-1
 -24 456 l 1,74,-1
 654 456 l 1,75,-1
 654 408 l 1,76,-1
 366 408 l 1,77,-1
 366 239 l 1,0,1
EndSplineSet
EndChar

StartChar: lvocalicdeva
Encoding: 2316 2316 87
Width: 530
GlyphClass: 2
Flags: W
AnchorPoint: "Anchor-2" 386 447 basechar 0
LayerCount: 2
Fore
SplineSet
414 299 m 1,0,1
 447 285 447 285 466.5 255.5 c 128,-1,2
 486 226 486 226 486 192 c 256,3,4
 486 158 486 158 471.5 134.5 c 128,-1,5
 457 111 457 111 430 91 c 0,6,7
 422 85 422 85 413 79 c 0,8,9
 393 65 393 65 384.5 54.5 c 128,-1,10
 376 44 376 44 376 26 c 0,11,12
 376 -11 376 -11 417 -11 c 0,13,14
 440 -11 440 -11 476 17 c 1,15,-1
 502 -27 l 1,16,17
 460 -62 460 -62 412 -62 c 0,18,19
 367 -62 367 -62 344.5 -37 c 128,-1,20
 322 -12 322 -12 322 23 c 256,21,22
 322 58 322 58 338.5 79.5 c 128,-1,23
 355 101 355 101 387 124 c 0,24,25
 408 139 408 139 420 152.5 c 128,-1,26
 432 166 432 166 432 189 c 0,27,28
 432 216 432 216 413.5 236 c 128,-1,29
 395 256 395 256 360 256 c 0,30,31
 326 256 326 256 307 230 c 128,-1,32
 288 204 288 204 288 162 c 0,33,34
 288 150 288 150 292 110 c 1,35,-1
 239 118 l 1,36,37
 237 128 237 128 236 141 c 128,-1,38
 235 154 235 154 235 164 c 0,39,40
 235 189 235 189 240 212 c 1,41,42
 214 256 214 256 176 256 c 0,43,44
 141 256 141 256 121 232.5 c 128,-1,45
 101 209 101 209 101 172 c 0,46,47
 101 127 101 127 126.5 89.5 c 128,-1,48
 152 52 152 52 190 11 c 1,49,-1
 137 -12 l 2,50,51
 137 -15 137 -15 111 16 c 128,-1,52
 85 47 85 47 64.5 87.5 c 128,-1,53
 44 128 44 128 44 172 c 0,54,55
 44 234 44 234 80 272 c 128,-1,56
 116 310 116 310 177 310 c 0,57,58
 229 310 229 310 268 266 c 1,59,60
 301 305 301 305 358 308 c 1,61,-1
 358 408 l 1,62,-1
 -24 408 l 1,63,-1
 -24 456 l 1,64,-1
 554 456 l 1,65,-1
 554 408 l 1,66,-1
 414 408 l 1,67,-1
 414 299 l 1,0,1
EndSplineSet
EndChar

StartChar: llvocalicdeva
Encoding: 2401 2401 88
Width: 530
GlyphClass: 2
Flags: W
AnchorPoint: "Anchor-2" 386 447 basechar 0
LayerCount: 2
Fore
SplineSet
414 299 m 1,0,1
 447 285 447 285 466.5 255.5 c 128,-1,2
 486 226 486 226 486 192 c 256,3,4
 486 158 486 158 471.5 134.5 c 128,-1,5
 457 111 457 111 430 91 c 0,6,7
 416 81 416 81 408 76 c 0,8,9
 389 64 389 64 381 55 c 128,-1,10
 373 46 373 46 373 32 c 0,11,12
 373 13 373 13 387 1 c 128,-1,13
 401 -11 401 -11 442 -11 c 2,14,-1
 460 -10 l 1,15,-1
 460 -55 l 1,16,-1
 417 -55 l 2,17,18
 392 -56 392 -56 376 -68 c 128,-1,19
 360 -80 360 -80 360 -100 c 0,20,21
 360 -119 360 -119 372 -129.5 c 128,-1,22
 384 -140 384 -140 407 -140 c 0,23,24
 441 -140 441 -140 473 -121 c 1,25,-1
 497 -163 l 1,26,27
 477 -175 477 -175 453 -181.5 c 128,-1,28
 429 -188 429 -188 407 -188 c 0,29,30
 358 -188 358 -188 334 -163.5 c 128,-1,31
 310 -139 310 -139 310 -104 c 0,32,33
 310 -77 310 -77 326 -57.5 c 128,-1,34
 342 -38 342 -38 367 -31 c 1,35,36
 344 -23 344 -23 332.5 -4.5 c 128,-1,37
 321 14 321 14 321 35 c 0,38,39
 321 62 321 62 337.5 80 c 128,-1,40
 354 98 354 98 387 122 c 0,41,42
 407 136 407 136 419.5 150.5 c 128,-1,43
 432 165 432 165 432 189 c 0,44,45
 432 216 432 216 413.5 236 c 128,-1,46
 395 256 395 256 360 256 c 0,47,48
 326 256 326 256 307 230 c 128,-1,49
 288 204 288 204 288 162 c 0,50,51
 288 150 288 150 292 110 c 1,52,-1
 239 118 l 1,53,54
 237 128 237 128 236 141 c 128,-1,55
 235 154 235 154 235 164 c 0,56,57
 235 189 235 189 240 212 c 1,58,59
 214 256 214 256 176 256 c 0,60,61
 141 256 141 256 121 232.5 c 128,-1,62
 101 209 101 209 101 172 c 0,63,64
 101 127 101 127 126.5 89.5 c 128,-1,65
 152 52 152 52 190 11 c 1,66,-1
 137 -12 l 2,67,68
 137 -15 137 -15 111 16 c 128,-1,69
 85 47 85 47 64.5 87.5 c 128,-1,70
 44 128 44 128 44 172 c 0,71,72
 44 234 44 234 80 272 c 128,-1,73
 116 310 116 310 177 310 c 0,74,75
 229 310 229 310 268 266 c 1,76,77
 301 305 301 305 358 308 c 1,78,-1
 358 408 l 1,79,-1
 -24 408 l 1,80,-1
 -24 456 l 1,81,-1
 554 456 l 1,82,-1
 554 408 l 1,83,-1
 414 408 l 1,84,-1
 414 299 l 1,0,1
EndSplineSet
EndChar

StartChar: eshortdeva
Encoding: 2318 2318 90
Width: 408
GlyphClass: 2
Flags: W
AnchorPoint: "Anchor-2" 200 447 basechar 0
LayerCount: 2
Fore
SplineSet
274.5 191 m 128,-1,1
 285 202 285 202 287 214 c 128,-1,2
 289 226 289 226 290 259 c 2,3,-1
 290 408 l 1,4,-1
 105 408 l 1,5,-1
 105 194 l 1,6,-1
 348 -5 l 1,7,-1
 314 -44 l 1,8,-1
 51 172 l 1,9,-1
 50 408 l 1,10,-1
 -24 408 l 1,11,-1
 -24 456 l 1,12,-1
 289 456 l 1,13,14
 284 487 284 487 259.5 501.5 c 128,-1,15
 235 516 235 516 186 516 c 0,16,17
 60 516 60 516 53 621 c 1,18,-1
 100 638 l 1,19,20
 106 598 106 598 122.5 583.5 c 128,-1,21
 139 569 139 569 175 565 c 0,22,23
 185 564 185 564 208 564 c 0,24,25
 255 564 255 564 295 540 c 128,-1,26
 335 516 335 516 341 456 c 1,27,-1
 432 456 l 1,28,-1
 432 408 l 1,29,-1
 342 408 l 1,30,-1
 342 248 l 2,31,32
 342 200 342 200 325.5 171 c 128,-1,33
 309 142 309 142 263 124 c 1,34,-1
 238 170 l 1,35,0
 264 180 264 180 274.5 191 c 128,-1,1
EndSplineSet
EndChar

StartChar: edeva
Encoding: 2319 2319 91
Width: 408
GlyphClass: 2
Flags: W
AnchorPoint: "Anchor-2" 200 447 basechar 0
LayerCount: 2
Fore
SplineSet
274.5 191 m 128,-1,1
 285 202 285 202 287 214 c 128,-1,2
 289 226 289 226 290 259 c 2,3,-1
 290 408 l 1,4,-1
 105 408 l 1,5,-1
 105 194 l 1,6,-1
 348 -5 l 1,7,-1
 314 -44 l 1,8,-1
 51 172 l 1,9,-1
 50 408 l 1,10,-1
 -24 408 l 1,11,-1
 -24 456 l 1,12,-1
 432 456 l 1,13,-1
 432 408 l 1,14,-1
 342 408 l 1,15,-1
 342 248 l 2,16,17
 342 200 342 200 325.5 171 c 128,-1,18
 309 142 309 142 263 124 c 1,19,-1
 238 170 l 1,20,0
 264 180 264 180 274.5 191 c 128,-1,1
EndSplineSet
EndChar

StartChar: aideva
Encoding: 2320 2320 92
Width: 408
GlyphClass: 2
Flags: W
AnchorPoint: "Anchor-2" 200 447 basechar 0
LayerCount: 2
Fore
SplineSet
274.5 191 m 128,-1,1
 285 202 285 202 287 214 c 128,-1,2
 289 226 289 226 290 259 c 2,3,-1
 290 408 l 1,4,-1
 105 408 l 1,5,-1
 105 194 l 1,6,-1
 348 -5 l 1,7,-1
 314 -44 l 1,8,-1
 51 172 l 1,9,-1
 50 408 l 1,10,-1
 -24 408 l 1,11,-1
 -24 456 l 1,12,-1
 281 456 l 1,13,-1
 199 559 l 2,14,15
 186 574 186 574 177 580 c 128,-1,16
 168 586 168 586 153 586 c 0,17,18
 139 586 139 586 127 581.5 c 128,-1,19
 115 577 115 577 112 575 c 2,20,-1
 91 622 l 2,21,22
 93 623 93 623 102 626.5 c 128,-1,23
 111 630 111 630 125 633.5 c 128,-1,24
 139 637 139 637 153 637 c 0,25,26
 180 637 180 637 198 626.5 c 128,-1,27
 216 616 216 616 240 588 c 2,28,-1
 343 456 l 1,29,-1
 432 456 l 1,30,-1
 432 408 l 1,31,-1
 342 408 l 1,32,-1
 342 248 l 2,33,34
 342 200 342 200 325.5 171 c 128,-1,35
 309 142 309 142 263 124 c 1,36,-1
 238 170 l 1,37,0
 264 180 264 180 274.5 191 c 128,-1,1
EndSplineSet
EndChar

StartChar: aideva_anusvaradeva
Encoding: 65551 -1 93
Width: 408
GlyphClass: 3
Flags: W
AnchorPoint: "Anchor-2" 200 447 basechar 0
LayerCount: 2
Fore
SplineSet
274.5 191 m 128,-1,1
 285 202 285 202 287 214 c 128,-1,2
 289 226 289 226 290 259 c 2,3,-1
 290 408 l 1,4,-1
 105 408 l 1,5,-1
 105 194 l 1,6,-1
 348 -5 l 1,7,-1
 314 -44 l 1,8,-1
 51 172 l 1,9,-1
 50 408 l 1,10,-1
 -24 408 l 1,11,-1
 -24 456 l 1,12,-1
 281 456 l 1,13,-1
 199 559 l 2,14,15
 186 574 186 574 177 580 c 128,-1,16
 168 586 168 586 153 586 c 0,17,18
 139 586 139 586 127 581.5 c 128,-1,19
 115 577 115 577 112 575 c 2,20,-1
 91 622 l 2,21,22
 93 623 93 623 102 626.5 c 128,-1,23
 111 630 111 630 125 633.5 c 128,-1,24
 139 637 139 637 153 637 c 0,25,26
 180 637 180 637 198 626.5 c 128,-1,27
 216 616 216 616 240 588 c 2,28,-1
 343 456 l 1,29,-1
 432 456 l 1,30,-1
 432 408 l 1,31,-1
 342 408 l 1,32,-1
 342 248 l 2,33,34
 342 200 342 200 325.5 171 c 128,-1,35
 309 142 309 142 263 124 c 1,36,-1
 238 170 l 1,37,0
 264 180 264 180 274.5 191 c 128,-1,1
344 529.5 m 128,-1,39
 334 540 334 540 334 555 c 0,40,41
 334 571 334 571 344 581.5 c 128,-1,42
 354 592 354 592 370 592 c 0,43,44
 387 592 387 592 397 581.5 c 128,-1,45
 407 571 407 571 407 555 c 0,46,47
 407 540 407 540 397 529.5 c 128,-1,48
 387 519 387 519 370 519 c 0,49,38
 354 519 354 519 344 529.5 c 128,-1,39
EndSplineSet
Ligature2: "'abvs' Above Base Substitutions lookup 17 subtable" aideva anusvaradeva
EndChar

StartChar: aideva_candrabindudeva
Encoding: 65552 -1 94
Width: 408
GlyphClass: 3
Flags: W
AnchorPoint: "Anchor-2" 200 447 basechar 0
LayerCount: 2
Fore
SplineSet
376 599.5 m 128,-1,1
 369 607 369 607 369 617 c 256,2,3
 369 627 369 627 376 634.5 c 128,-1,4
 383 642 383 642 394 642 c 256,5,6
 405 642 405 642 412 634.5 c 128,-1,7
 419 627 419 627 419 617 c 256,8,9
 419 607 419 607 412 599.5 c 128,-1,10
 405 592 405 592 394 592 c 256,11,0
 383 592 383 592 376 599.5 c 128,-1,1
432 456 m 1,12,-1
 432 408 l 1,13,-1
 342 408 l 1,14,-1
 342 248 l 2,15,16
 342 200 342 200 325.5 171 c 128,-1,17
 309 142 309 142 263 124 c 1,18,-1
 238 170 l 1,19,20
 264 180 264 180 274.5 191 c 128,-1,21
 285 202 285 202 287 214 c 128,-1,22
 289 226 289 226 290 259 c 2,23,-1
 290 408 l 1,24,-1
 105 408 l 1,25,-1
 105 194 l 1,26,-1
 348 -5 l 1,27,-1
 314 -44 l 1,28,-1
 51 172 l 1,29,-1
 50 408 l 1,30,-1
 -24 408 l 1,31,-1
 -24 456 l 1,32,-1
 280 456 l 1,33,-1
 198 559 l 2,34,35
 185 574 185 574 176 580 c 128,-1,36
 167 586 167 586 152 586 c 0,37,38
 138 586 138 586 126 581.5 c 128,-1,39
 114 577 114 577 111 575 c 2,40,-1
 90 622 l 2,41,42
 92 623 92 623 101 626.5 c 128,-1,43
 110 630 110 630 124 633.5 c 128,-1,44
 138 637 138 637 152 637 c 0,45,46
 179 637 179 637 197 626.5 c 128,-1,47
 215 616 215 616 239 588 c 2,48,-1
 342 456 l 1,49,-1
 432 456 l 1,12,-1
456 538 m 128,-1,51
 431 519 431 519 393 519 c 0,52,53
 356 519 356 519 331 538 c 128,-1,54
 306 557 306 557 296 590 c 1,55,-1
 331 605 l 1,56,57
 340 581 340 581 356.5 568.5 c 128,-1,58
 373 556 373 556 393 556 c 0,59,60
 414 556 414 556 430 568.5 c 128,-1,61
 446 581 446 581 456 605 c 1,62,-1
 490 589 l 1,63,50
 481 557 481 557 456 538 c 128,-1,51
EndSplineSet
Ligature2: "'abvs' Above Base Substitutions lookup 17 subtable" aideva candrabindudeva
EndChar

StartChar: odeva
Encoding: 2323 2323 96
Width: 795
GlyphClass: 2
Flags: W
AnchorPoint: "Anchor-2" 695 447 basechar 0
LayerCount: 2
Fore
SplineSet
722 408 m 1,0,-1
 722 0 l 1,1,-1
 667 0 l 1,2,-1
 667 408 l 1,3,-1
 511 408 l 1,4,-1
 511 0 l 1,5,-1
 457 0 l 1,6,-1
 457 193 l 1,7,8
 420 182 420 182 388 182 c 0,9,10
 367 182 367 182 348 186 c 1,11,12
 358 169 358 169 358 137 c 0,13,14
 358 90 358 90 318.5 57.5 c 128,-1,15
 279 25 279 25 222 25 c 0,16,17
 155 25 155 25 109 62.5 c 128,-1,18
 63 100 63 100 18 180 c 1,19,-1
 62 207 l 1,20,21
 98 141 98 141 134 109 c 128,-1,22
 170 77 170 77 221 77 c 0,23,24
 259 77 259 77 282.5 95 c 128,-1,25
 306 113 306 113 306 147 c 0,26,27
 306 231 306 231 178 226 c 1,28,-1
 159 226 l 1,29,-1
 159 275 l 1,30,-1
 182 275 l 2,31,32
 291 274 291 274 291 347 c 0,33,34
 291 375 291 375 271.5 390.5 c 128,-1,35
 252 406 252 406 221 406 c 0,36,37
 192 406 192 406 172.5 395.5 c 128,-1,38
 153 385 153 385 132 366 c 1,39,-1
 102 407 l 1,40,41
 130 429 130 429 156 443 c 128,-1,42
 182 457 182 457 222 457 c 0,43,44
 276 457 276 457 309.5 427.5 c 128,-1,45
 343 398 343 398 343 353 c 0,46,47
 343 321 343 321 327 295.5 c 128,-1,48
 311 270 311 270 279 254 c 1,49,50
 336 230 336 230 375 230 c 0,51,52
 402 230 402 230 420.5 235 c 128,-1,53
 439 240 439 240 457 250 c 1,54,-1
 457 408 l 1,55,-1
 363 408 l 1,56,-1
 363 456 l 1,57,-1
 661 456 l 1,58,-1
 579 559 l 2,59,60
 568 574 568 574 559 580 c 128,-1,61
 550 586 550 586 534 586 c 0,62,63
 520 586 520 586 507.5 581.5 c 128,-1,64
 495 577 495 577 492 575 c 2,65,-1
 471 622 l 2,66,67
 473 623 473 623 482 626.5 c 128,-1,68
 491 630 491 630 505 633.5 c 128,-1,69
 519 637 519 637 534 637 c 0,70,71
 561 637 561 637 579 626.5 c 128,-1,72
 597 616 597 616 620 588 c 2,73,-1
 724 456 l 1,74,-1
 819 456 l 1,75,-1
 819 408 l 1,76,-1
 722 408 l 1,0,-1
EndSplineSet
EndChar

StartChar: odeva_anusvaradeva
Encoding: 65553 -1 97
Width: 795
GlyphClass: 3
Flags: W
AnchorPoint: "Anchor-2" 695 447 basechar 0
LayerCount: 2
Fore
SplineSet
722 408 m 1,0,-1
 722 0 l 1,1,-1
 667 0 l 1,2,-1
 667 408 l 1,3,-1
 511 408 l 1,4,-1
 511 0 l 1,5,-1
 457 0 l 1,6,-1
 457 193 l 1,7,8
 420 182 420 182 388 182 c 0,9,10
 367 182 367 182 348 186 c 1,11,12
 358 169 358 169 358 137 c 0,13,14
 358 90 358 90 318.5 57.5 c 128,-1,15
 279 25 279 25 222 25 c 0,16,17
 155 25 155 25 109 62.5 c 128,-1,18
 63 100 63 100 18 180 c 1,19,-1
 62 207 l 1,20,21
 98 141 98 141 134 109 c 128,-1,22
 170 77 170 77 221 77 c 0,23,24
 259 77 259 77 282.5 95 c 128,-1,25
 306 113 306 113 306 147 c 0,26,27
 306 231 306 231 178 226 c 1,28,-1
 159 226 l 1,29,-1
 159 275 l 1,30,-1
 182 275 l 2,31,32
 291 274 291 274 291 347 c 0,33,34
 291 375 291 375 271.5 390.5 c 128,-1,35
 252 406 252 406 221 406 c 0,36,37
 192 406 192 406 172.5 395.5 c 128,-1,38
 153 385 153 385 132 366 c 1,39,-1
 102 407 l 1,40,41
 130 429 130 429 156 443 c 128,-1,42
 182 457 182 457 222 457 c 0,43,44
 276 457 276 457 309.5 427.5 c 128,-1,45
 343 398 343 398 343 353 c 0,46,47
 343 321 343 321 327 295.5 c 128,-1,48
 311 270 311 270 279 254 c 1,49,50
 336 230 336 230 375 230 c 0,51,52
 402 230 402 230 420.5 235 c 128,-1,53
 439 240 439 240 457 250 c 1,54,-1
 457 408 l 1,55,-1
 363 408 l 1,56,-1
 363 456 l 1,57,-1
 661 456 l 1,58,-1
 579 559 l 2,59,60
 568 574 568 574 559 580 c 128,-1,61
 550 586 550 586 534 586 c 0,62,63
 520 586 520 586 507.5 581.5 c 128,-1,64
 495 577 495 577 492 575 c 2,65,-1
 471 622 l 2,66,67
 473 623 473 623 482 626.5 c 128,-1,68
 491 630 491 630 505 633.5 c 128,-1,69
 519 637 519 637 534 637 c 0,70,71
 561 637 561 637 579 626.5 c 128,-1,72
 597 616 597 616 620 588 c 2,73,-1
 724 456 l 1,74,-1
 819 456 l 1,75,-1
 819 408 l 1,76,-1
 722 408 l 1,0,-1
723 529.5 m 128,-1,78
 713 540 713 540 713 555 c 0,79,80
 713 571 713 571 723 581.5 c 128,-1,81
 733 592 733 592 749 592 c 0,82,83
 766 592 766 592 776 581.5 c 128,-1,84
 786 571 786 571 786 555 c 0,85,86
 786 540 786 540 776 529.5 c 128,-1,87
 766 519 766 519 749 519 c 0,88,77
 733 519 733 519 723 529.5 c 128,-1,78
EndSplineSet
Ligature2: "'abvs' Above Base Substitutions lookup 17 subtable" odeva anusvaradeva
EndChar

StartChar: odeva_candrabindudeva
Encoding: 65554 -1 98
Width: 795
GlyphClass: 3
Flags: W
LayerCount: 2
Fore
SplineSet
756 599.5 m 128,-1,1
 749 607 749 607 749 617 c 256,2,3
 749 627 749 627 756 634.5 c 128,-1,4
 763 642 763 642 774 642 c 256,5,6
 785 642 785 642 792 634.5 c 128,-1,7
 799 627 799 627 799 617 c 256,8,9
 799 607 799 607 792 599.5 c 128,-1,10
 785 592 785 592 774 592 c 256,11,0
 763 592 763 592 756 599.5 c 128,-1,1
819 456 m 1,12,-1
 819 408 l 1,13,-1
 722 408 l 1,14,-1
 722 0 l 1,15,-1
 667 0 l 1,16,-1
 667 408 l 1,17,-1
 511 408 l 1,18,-1
 511 0 l 1,19,-1
 457 0 l 1,20,-1
 457 193 l 1,21,22
 420 182 420 182 388 182 c 0,23,24
 367 182 367 182 348 186 c 1,25,26
 358 169 358 169 358 137 c 0,27,28
 358 90 358 90 318.5 57.5 c 128,-1,29
 279 25 279 25 222 25 c 0,30,31
 155 25 155 25 109 62.5 c 128,-1,32
 63 100 63 100 18 180 c 1,33,-1
 62 207 l 1,34,35
 98 141 98 141 134 109 c 128,-1,36
 170 77 170 77 221 77 c 0,37,38
 259 77 259 77 282.5 95 c 128,-1,39
 306 113 306 113 306 147 c 0,40,41
 306 231 306 231 178 226 c 1,42,-1
 159 226 l 1,43,-1
 159 275 l 1,44,-1
 182 275 l 2,45,46
 291 274 291 274 291 347 c 0,47,48
 291 375 291 375 271.5 390.5 c 128,-1,49
 252 406 252 406 221 406 c 0,50,51
 192 406 192 406 172.5 395.5 c 128,-1,52
 153 385 153 385 132 366 c 1,53,-1
 102 407 l 1,54,55
 130 429 130 429 156 443 c 128,-1,56
 182 457 182 457 222 457 c 0,57,58
 276 457 276 457 309.5 427.5 c 128,-1,59
 343 398 343 398 343 353 c 0,60,61
 343 321 343 321 327 295.5 c 128,-1,62
 311 270 311 270 279 254 c 1,63,64
 336 230 336 230 375 230 c 0,65,66
 402 230 402 230 420.5 235 c 128,-1,67
 439 240 439 240 457 250 c 1,68,-1
 457 408 l 1,69,-1
 363 408 l 1,70,-1
 363 456 l 1,71,-1
 660 456 l 1,72,-1
 578 559 l 2,73,74
 565 574 565 574 556 580 c 128,-1,75
 547 586 547 586 532 586 c 0,76,77
 518 586 518 586 506 581.5 c 128,-1,78
 494 577 494 577 491 575 c 2,79,-1
 470 622 l 2,80,81
 472 623 472 623 481 626.5 c 128,-1,82
 490 630 490 630 504 633.5 c 128,-1,83
 518 637 518 637 532 637 c 0,84,85
 559 637 559 637 577 626.5 c 128,-1,86
 595 616 595 616 619 588 c 2,87,-1
 722 456 l 1,88,-1
 819 456 l 1,12,-1
836 538 m 128,-1,90
 811 519 811 519 773 519 c 0,91,92
 736 519 736 519 711 538 c 128,-1,93
 686 557 686 557 676 590 c 1,94,-1
 711 605 l 1,95,96
 720 581 720 581 736.5 568.5 c 128,-1,97
 753 556 753 556 773 556 c 0,98,99
 794 556 794 556 810 568.5 c 128,-1,100
 826 581 826 581 836 605 c 1,101,-1
 870 589 l 1,102,89
 861 557 861 557 836 538 c 128,-1,90
EndSplineSet
Ligature2: "'abvs' Above Base Substitutions lookup 17 subtable" odeva candrabindudeva
EndChar

StartChar: audeva
Encoding: 2324 2324 99
Width: 795
GlyphClass: 2
Flags: W
AnchorPoint: "Anchor-2" 695 447 basechar 0
LayerCount: 2
Fore
SplineSet
722 408 m 1,0,-1
 722 0 l 1,1,-1
 667 0 l 1,2,-1
 667 408 l 1,3,-1
 511 408 l 1,4,-1
 511 0 l 1,5,-1
 457 0 l 1,6,-1
 457 193 l 1,7,8
 420 182 420 182 388 182 c 0,9,10
 367 182 367 182 348 186 c 1,11,12
 358 169 358 169 358 137 c 0,13,14
 358 90 358 90 318.5 57.5 c 128,-1,15
 279 25 279 25 222 25 c 0,16,17
 155 25 155 25 109 62.5 c 128,-1,18
 63 100 63 100 18 180 c 1,19,-1
 62 207 l 1,20,21
 98 141 98 141 134 109 c 128,-1,22
 170 77 170 77 221 77 c 0,23,24
 259 77 259 77 282.5 95 c 128,-1,25
 306 113 306 113 306 147 c 0,26,27
 306 231 306 231 178 226 c 1,28,-1
 159 226 l 1,29,-1
 159 275 l 1,30,-1
 182 275 l 2,31,32
 291 274 291 274 291 347 c 0,33,34
 291 375 291 375 271.5 390.5 c 128,-1,35
 252 406 252 406 221 406 c 0,36,37
 192 406 192 406 172.5 395.5 c 128,-1,38
 153 385 153 385 132 366 c 1,39,-1
 102 407 l 1,40,41
 130 429 130 429 156 443 c 128,-1,42
 182 457 182 457 222 457 c 0,43,44
 276 457 276 457 309.5 427.5 c 128,-1,45
 343 398 343 398 343 353 c 0,46,47
 343 321 343 321 327 295.5 c 128,-1,48
 311 270 311 270 279 254 c 1,49,50
 336 230 336 230 375 230 c 0,51,52
 402 230 402 230 420.5 235 c 128,-1,53
 439 240 439 240 457 250 c 1,54,-1
 457 408 l 1,55,-1
 363 408 l 1,56,-1
 363 456 l 1,57,-1
 646 456 l 1,58,-1
 586 498 l 2,59,60
 578 504 578 504 559.5 517.5 c 128,-1,61
 541 531 541 531 529 537 c 128,-1,62
 517 543 517 543 507 543 c 0,63,64
 498 543 498 543 484.5 539.5 c 128,-1,65
 471 536 471 536 467 534 c 1,66,-1
 452 582 l 1,67,68
 458 584 458 584 476.5 589.5 c 128,-1,69
 495 595 495 595 509 595 c 0,70,71
 529 595 529 595 545 586.5 c 128,-1,72
 561 578 561 578 586 557 c 2,73,-1
 606 541 l 1,74,-1
 689 469 l 1,75,-1
 643 566 l 2,76,77
 627 599 627 599 616.5 613 c 128,-1,78
 606 627 606 627 587 627 c 0,79,80
 578 627 578 627 564.5 624.5 c 128,-1,81
 551 622 551 622 547 621 c 1,82,-1
 538 670 l 1,83,84
 543 671 543 671 559.5 674.5 c 128,-1,85
 576 678 576 678 592 678 c 0,86,87
 626 678 626 678 643.5 658 c 128,-1,88
 661 638 661 638 677 601 c 2,89,-1
 736 456 l 1,90,-1
 819 456 l 1,91,-1
 819 408 l 1,92,-1
 722 408 l 1,0,-1
EndSplineSet
EndChar

StartChar: audeva_candrabindudeva
Encoding: 65555 -1 100
Width: 795
GlyphClass: 3
Flags: W
LayerCount: 2
Fore
SplineSet
819 456 m 1,0,-1
 819 408 l 1,1,-1
 722 408 l 1,2,-1
 722 0 l 1,3,-1
 667 0 l 1,4,-1
 667 408 l 1,5,-1
 511 408 l 1,6,-1
 511 0 l 1,7,-1
 457 0 l 1,8,-1
 457 193 l 1,9,10
 420 182 420 182 388 182 c 0,11,12
 367 182 367 182 348 186 c 1,13,14
 358 169 358 169 358 137 c 0,15,16
 358 90 358 90 318.5 57.5 c 128,-1,17
 279 25 279 25 222 25 c 0,18,19
 155 25 155 25 109 62.5 c 128,-1,20
 63 100 63 100 18 180 c 1,21,-1
 62 207 l 1,22,23
 98 141 98 141 134 109 c 128,-1,24
 170 77 170 77 221 77 c 0,25,26
 259 77 259 77 282.5 95 c 128,-1,27
 306 113 306 113 306 147 c 0,28,29
 306 231 306 231 178 226 c 1,30,-1
 159 226 l 1,31,-1
 159 275 l 1,32,-1
 182 275 l 2,33,34
 291 274 291 274 291 347 c 0,35,36
 291 375 291 375 271.5 390.5 c 128,-1,37
 252 406 252 406 221 406 c 0,38,39
 192 406 192 406 172.5 395.5 c 128,-1,40
 153 385 153 385 132 366 c 1,41,-1
 102 407 l 1,42,43
 130 429 130 429 156 443 c 128,-1,44
 182 457 182 457 222 457 c 0,45,46
 276 457 276 457 309.5 427.5 c 128,-1,47
 343 398 343 398 343 353 c 0,48,49
 343 321 343 321 327 295.5 c 128,-1,50
 311 270 311 270 279 254 c 1,51,52
 336 230 336 230 375 230 c 0,53,54
 402 230 402 230 420.5 235 c 128,-1,55
 439 240 439 240 457 250 c 1,56,-1
 457 408 l 1,57,-1
 363 408 l 1,58,-1
 363 456 l 1,59,-1
 645 456 l 1,60,-1
 585 498 l 1,61,-1
 565 513 l 2,62,63
 540 531 540 531 528 538 c 128,-1,64
 516 545 516 545 505 545 c 0,65,66
 496 545 496 545 482.5 541.5 c 128,-1,67
 469 538 469 538 465 536 c 1,68,-1
 451 582 l 1,69,70
 457 584 457 584 475.5 589.5 c 128,-1,71
 494 595 494 595 508 595 c 0,72,73
 530 595 530 595 545.5 586 c 128,-1,74
 561 577 561 577 588 555 c 1,75,76
 587 556 587 556 605 541 c 2,77,-1
 690 467 l 1,78,-1
 642 566 l 2,79,80
 640 571 640 571 630.5 590 c 128,-1,81
 621 609 621 609 610 619 c 128,-1,82
 599 629 599 629 586 629 c 0,83,84
 577 629 577 629 563.5 626.5 c 128,-1,85
 550 624 550 624 546 623 c 1,86,-1
 535 671 l 1,87,88
 540 672 540 672 556.5 675.5 c 128,-1,89
 573 679 573 679 589 679 c 0,90,91
 623 679 623 679 641.5 658.5 c 128,-1,92
 660 638 660 638 676 601 c 2,93,-1
 735 456 l 1,94,-1
 819 456 l 1,0,-1
809 589.5 m 128,-1,96
 802 597 802 597 802 607 c 256,97,98
 802 617 802 617 809 624.5 c 128,-1,99
 816 632 816 632 827 632 c 256,100,101
 838 632 838 632 845 624.5 c 128,-1,102
 852 617 852 617 852 607 c 256,103,104
 852 597 852 597 845 589.5 c 128,-1,105
 838 582 838 582 827 582 c 256,106,95
 816 582 816 582 809 589.5 c 128,-1,96
889 528 m 128,-1,108
 864 509 864 509 826 509 c 0,109,110
 789 509 789 509 764 528 c 128,-1,111
 739 547 739 547 729 580 c 1,112,-1
 764 595 l 1,113,114
 773 571 773 571 789.5 558.5 c 128,-1,115
 806 546 806 546 826 546 c 0,116,117
 847 546 847 546 863 558.5 c 128,-1,118
 879 571 879 571 889 595 c 1,119,-1
 923 579 l 1,120,107
 914 547 914 547 889 528 c 128,-1,108
EndSplineSet
Ligature2: "'abvs' Above Base Substitutions lookup 17 subtable" audeva candrabindudeva
EndChar

StartChar: audeva_anusvaradeva
Encoding: 65556 -1 101
Width: 795
GlyphClass: 3
Flags: W
AnchorPoint: "Anchor-2" 695 447 basechar 0
LayerCount: 2
Fore
SplineSet
819 456 m 1,0,-1
 819 408 l 1,1,-1
 722 408 l 1,2,-1
 722 0 l 1,3,-1
 667 0 l 1,4,-1
 667 408 l 1,5,-1
 511 408 l 1,6,-1
 511 0 l 1,7,-1
 457 0 l 1,8,-1
 457 193 l 1,9,10
 420 182 420 182 388 182 c 0,11,12
 367 182 367 182 348 186 c 1,13,14
 358 169 358 169 358 137 c 0,15,16
 358 90 358 90 318.5 57.5 c 128,-1,17
 279 25 279 25 222 25 c 0,18,19
 155 25 155 25 109 62.5 c 128,-1,20
 63 100 63 100 18 180 c 1,21,-1
 62 207 l 1,22,23
 98 141 98 141 134 109 c 128,-1,24
 170 77 170 77 221 77 c 0,25,26
 259 77 259 77 282.5 95 c 128,-1,27
 306 113 306 113 306 147 c 0,28,29
 306 231 306 231 178 226 c 1,30,-1
 159 226 l 1,31,-1
 159 275 l 1,32,-1
 182 275 l 2,33,34
 291 274 291 274 291 347 c 0,35,36
 291 375 291 375 271.5 390.5 c 128,-1,37
 252 406 252 406 221 406 c 0,38,39
 192 406 192 406 172.5 395.5 c 128,-1,40
 153 385 153 385 132 366 c 1,41,-1
 102 407 l 1,42,43
 130 429 130 429 156 443 c 128,-1,44
 182 457 182 457 222 457 c 0,45,46
 276 457 276 457 309.5 427.5 c 128,-1,47
 343 398 343 398 343 353 c 0,48,49
 343 321 343 321 327 295.5 c 128,-1,50
 311 270 311 270 279 254 c 1,51,52
 336 230 336 230 375 230 c 0,53,54
 402 230 402 230 420.5 235 c 128,-1,55
 439 240 439 240 457 250 c 1,56,-1
 457 408 l 1,57,-1
 363 408 l 1,58,-1
 363 456 l 1,59,-1
 646 456 l 1,60,-1
 586 498 l 2,61,62
 578 504 578 504 559.5 517.5 c 128,-1,63
 541 531 541 531 529 537 c 128,-1,64
 517 543 517 543 507 543 c 0,65,66
 498 543 498 543 484.5 539.5 c 128,-1,67
 471 536 471 536 467 534 c 1,68,-1
 452 582 l 1,69,70
 458 584 458 584 476.5 589.5 c 128,-1,71
 495 595 495 595 509 595 c 0,72,73
 529 595 529 595 545 586.5 c 128,-1,74
 561 578 561 578 586 557 c 2,75,-1
 606 541 l 1,76,-1
 689 469 l 1,77,-1
 643 566 l 2,78,79
 627 599 627 599 616.5 613 c 128,-1,80
 606 627 606 627 587 627 c 0,81,82
 578 627 578 627 564.5 624.5 c 128,-1,83
 551 622 551 622 547 621 c 1,84,-1
 538 670 l 1,85,86
 543 671 543 671 559.5 674.5 c 128,-1,87
 576 678 576 678 592 678 c 0,88,89
 626 678 626 678 643.5 658 c 128,-1,90
 661 638 661 638 677 601 c 2,91,-1
 736 456 l 1,92,-1
 819 456 l 1,0,-1
764 529.5 m 128,-1,94
 754 540 754 540 754 555 c 0,95,96
 754 571 754 571 764 581.5 c 128,-1,97
 774 592 774 592 790 592 c 0,98,99
 807 592 807 592 817 581.5 c 128,-1,100
 827 571 827 571 827 555 c 0,101,102
 827 540 827 540 817 529.5 c 128,-1,103
 807 519 807 519 790 519 c 0,104,93
 774 519 774 519 764 529.5 c 128,-1,94
EndSplineSet
Ligature2: "'abvs' Above Base Substitutions lookup 17 subtable" audeva anusvaradeva
EndChar

StartChar: uni0973
Encoding: 2419 2419 102
Width: 600
GlyphClass: 2
Flags: W
AnchorPoint: "Anchor-2" 484 447 basechar 0
LayerCount: 2
Fore
SplineSet
511 408 m 1,0,-1
 511 0 l 1,1,-1
 457 0 l 1,2,-1
 457 193 l 1,3,4
 420 182 420 182 388 182 c 0,5,6
 367 182 367 182 348 186 c 1,7,8
 358 169 358 169 358 137 c 0,9,10
 358 90 358 90 318.5 57.5 c 128,-1,11
 279 25 279 25 222 25 c 0,12,13
 155 25 155 25 109 62.5 c 128,-1,14
 63 100 63 100 18 180 c 1,15,-1
 62 207 l 1,16,17
 98 141 98 141 134 109 c 128,-1,18
 170 77 170 77 221 77 c 0,19,20
 259 77 259 77 282.5 95 c 128,-1,21
 306 113 306 113 306 147 c 0,22,23
 306 231 306 231 178 226 c 1,24,-1
 159 226 l 1,25,-1
 159 275 l 1,26,-1
 182 275 l 2,27,28
 291 274 291 274 291 347 c 0,29,30
 291 375 291 375 271.5 390.5 c 128,-1,31
 252 406 252 406 221 406 c 0,32,33
 192 406 192 406 172.5 395.5 c 128,-1,34
 153 385 153 385 132 366 c 1,35,-1
 102 407 l 1,36,37
 130 429 130 429 156 443 c 128,-1,38
 182 457 182 457 222 457 c 0,39,40
 276 457 276 457 309.5 427.5 c 128,-1,41
 343 398 343 398 343 353 c 0,42,43
 343 321 343 321 327 295.5 c 128,-1,44
 311 270 311 270 279 254 c 1,45,46
 336 230 336 230 375 230 c 0,47,48
 402 230 402 230 420.5 235 c 128,-1,49
 439 240 439 240 457 250 c 1,50,-1
 457 408 l 1,51,-1
 363 408 l 1,52,-1
 363 456 l 1,53,-1
 457 456 l 1,54,-1
 457 550 l 1,55,-1
 511 550 l 1,56,-1
 511 456 l 1,57,-1
 609 456 l 1,58,-1
 609 408 l 1,59,-1
 511 408 l 1,0,-1
EndSplineSet
EndChar

StartChar: uni0974
Encoding: 2420 2420 103
Width: 799
GlyphClass: 2
Flags: W
AnchorPoint: "Anchor-2" 694 447 basechar 0
LayerCount: 2
Fore
SplineSet
721 408 m 1,0,-1
 721 0 l 1,1,-1
 666 0 l 1,2,-1
 666 408 l 1,3,-1
 511 408 l 1,4,-1
 511 0 l 1,5,-1
 457 0 l 1,6,-1
 457 193 l 1,7,8
 420 182 420 182 388 182 c 0,9,10
 367 182 367 182 348 186 c 1,11,12
 358 169 358 169 358 137 c 0,13,14
 358 90 358 90 318.5 57.5 c 128,-1,15
 279 25 279 25 222 25 c 0,16,17
 155 25 155 25 109 62.5 c 128,-1,18
 63 100 63 100 18 180 c 1,19,-1
 62 207 l 1,20,21
 98 141 98 141 134 109 c 128,-1,22
 170 77 170 77 221 77 c 0,23,24
 259 77 259 77 282.5 95 c 128,-1,25
 306 113 306 113 306 147 c 0,26,27
 306 231 306 231 178 226 c 1,28,-1
 159 226 l 1,29,-1
 159 275 l 1,30,-1
 182 275 l 2,31,32
 291 274 291 274 291 347 c 0,33,34
 291 375 291 375 271.5 390.5 c 128,-1,35
 252 406 252 406 221 406 c 0,36,37
 192 406 192 406 172.5 395.5 c 128,-1,38
 153 385 153 385 132 366 c 1,39,-1
 102 407 l 1,40,41
 130 429 130 429 156 443 c 128,-1,42
 182 457 182 457 222 457 c 0,43,44
 276 457 276 457 309.5 427.5 c 128,-1,45
 343 398 343 398 343 353 c 0,46,47
 343 321 343 321 327 295.5 c 128,-1,48
 311 270 311 270 279 254 c 1,49,50
 336 230 336 230 375 230 c 0,51,52
 402 230 402 230 420.5 235 c 128,-1,53
 439 240 439 240 457 250 c 1,54,-1
 457 408 l 1,55,-1
 363 408 l 1,56,-1
 363 456 l 1,57,-1
 671 456 l 1,58,-1
 671 550 l 1,59,-1
 725 550 l 1,60,-1
 725 456 l 1,61,-1
 818 456 l 1,62,-1
 818 408 l 1,63,-1
 721 408 l 1,0,-1
EndSplineSet
EndChar

StartChar: uni0975
Encoding: 2421 2421 104
Width: 799
GlyphClass: 2
Flags: W
AnchorPoint: "Anchor-2" 694 447 basechar 0
LayerCount: 2
Fore
SplineSet
721 408 m 1,0,-1
 721 0 l 1,1,-1
 666 0 l 1,2,-1
 666 408 l 1,3,-1
 511 408 l 1,4,-1
 511 0 l 1,5,-1
 457 0 l 1,6,-1
 457 193 l 1,7,8
 420 182 420 182 388 182 c 0,9,10
 367 182 367 182 348 186 c 1,11,12
 358 168 358 168 358 137 c 0,13,14
 358 90 358 90 318.5 57.5 c 128,-1,15
 279 25 279 25 222 25 c 0,16,17
 155 25 155 25 109 62.5 c 128,-1,18
 63 100 63 100 18 180 c 1,19,-1
 62 207 l 1,20,21
 98 141 98 141 134 109 c 128,-1,22
 170 77 170 77 221 77 c 0,23,24
 259 77 259 77 282.5 95 c 128,-1,25
 306 113 306 113 306 147 c 0,26,27
 306 231 306 231 178 226 c 1,28,-1
 159 226 l 1,29,-1
 159 275 l 1,30,-1
 182 275 l 2,31,32
 291 274 291 274 291 347 c 0,33,34
 291 375 291 375 271.5 390.5 c 128,-1,35
 252 406 252 406 221 406 c 0,36,37
 192 406 192 406 172.5 395.5 c 128,-1,38
 153 385 153 385 132 366 c 1,39,-1
 102 407 l 1,40,41
 130 429 130 429 156 443 c 128,-1,42
 182 457 182 457 222 457 c 0,43,44
 276 457 276 457 309.5 427.5 c 128,-1,45
 343 398 343 398 343 353 c 0,46,47
 343 321 343 321 327 295.5 c 128,-1,48
 311 270 311 270 279 254 c 1,49,50
 336 230 336 230 375 230 c 0,51,52
 402 230 402 230 420.5 235 c 128,-1,53
 439 240 439 240 457 250 c 1,54,-1
 457 408 l 1,55,-1
 363 408 l 1,56,-1
 363 456 l 1,57,-1
 654 456 l 1,58,59
 649 489 649 489 623.5 502.5 c 128,-1,60
 598 516 598 516 544 516 c 0,61,62
 418 516 418 516 411 621 c 1,63,-1
 458 638 l 1,64,65
 464 597 464 597 481 582 c 128,-1,66
 498 567 498 567 533 565 c 0,67,68
 578 563 578 563 609 556.5 c 128,-1,69
 640 550 640 550 667.5 527 c 128,-1,70
 695 504 695 504 700 456 c 1,71,-1
 705 467 l 2,72,73
 712 484 712 484 712 501 c 0,74,75
 712 529 712 529 694.5 545.5 c 128,-1,76
 677 562 677 562 636 578 c 0,77,78
 543 613 543 613 543 684 c 0,79,80
 543 704 543 704 550 725 c 1,81,-1
 599 723 l 1,82,83
 595 707 595 707 595 692 c 0,84,85
 595 669 595 669 606.5 655 c 128,-1,86
 618 641 618 641 643 629 c 2,87,-1
 662 620 l 2,88,89
 695 605 695 605 714.5 592.5 c 128,-1,90
 734 580 734 580 747 558.5 c 128,-1,91
 760 537 760 537 760 503 c 0,92,93
 760 480 760 480 750 456 c 1,94,-1
 818 456 l 1,95,-1
 818 408 l 1,96,-1
 721 408 l 1,0,-1
EndSplineSet
EndChar

StartChar: uni0976
Encoding: 2422 2422 105
Width: 600
GlyphClass: 2
Flags: W
AnchorPoint: "Anchor-2" 484 447 basechar 0
LayerCount: 2
Fore
SplineSet
511 408 m 1,0,-1
 511 0 l 1,1,-1
 457 0 l 1,2,-1
 457 193 l 1,3,4
 420 182 420 182 388 182 c 0,5,6
 367 182 367 182 348 186 c 1,7,8
 358 169 358 169 358 137 c 0,9,10
 358 90 358 90 318.5 57.5 c 128,-1,11
 279 25 279 25 222 25 c 0,12,13
 155 25 155 25 109 62.5 c 128,-1,14
 63 100 63 100 18 180 c 1,15,-1
 62 207 l 1,16,17
 98 141 98 141 134 109 c 128,-1,18
 170 77 170 77 221 77 c 0,19,20
 259 77 259 77 282.5 95 c 128,-1,21
 306 113 306 113 306 147 c 0,22,23
 306 231 306 231 178 226 c 1,24,-1
 159 226 l 1,25,-1
 159 275 l 1,26,-1
 182 275 l 2,27,28
 291 274 291 274 291 347 c 0,29,30
 291 375 291 375 271.5 390.5 c 128,-1,31
 252 406 252 406 221 406 c 0,32,33
 192 406 192 406 172.5 395.5 c 128,-1,34
 153 385 153 385 132 366 c 1,35,-1
 102 407 l 1,36,37
 130 429 130 429 156 443 c 128,-1,38
 182 457 182 457 222 457 c 0,39,40
 276 457 276 457 309.5 427.5 c 128,-1,41
 343 398 343 398 343 353 c 0,42,43
 343 321 343 321 327 295.5 c 128,-1,44
 311 270 311 270 279 254 c 1,45,46
 336 230 336 230 375 230 c 0,47,48
 402 230 402 230 420.5 235 c 128,-1,49
 439 240 439 240 457 250 c 1,50,-1
 457 408 l 1,51,-1
 363 408 l 1,52,-1
 363 456 l 1,53,-1
 609 456 l 1,54,-1
 609 408 l 1,55,-1
 511 408 l 1,0,-1
400.5 -71 m 128,-1,57
 421 -59 421 -59 434 -33 c 1,58,-1
 474 -57 l 1,59,60
 460 -93 460 -93 426 -112 c 128,-1,61
 392 -131 392 -131 349 -131 c 256,62,63
 306 -131 306 -131 272 -112 c 128,-1,64
 238 -93 238 -93 224 -57 c 1,65,-1
 264 -33 l 1,66,67
 277 -59 277 -59 297.5 -71 c 128,-1,68
 318 -83 318 -83 349 -83 c 256,69,56
 380 -83 380 -83 400.5 -71 c 128,-1,57
EndSplineSet
EndChar

StartChar: uni0977
Encoding: 2423 2423 106
Width: 600
GlyphClass: 2
Flags: W
AnchorPoint: "Anchor-2" 484 447 basechar 0
LayerCount: 2
Fore
SplineSet
511 408 m 1,0,-1
 511 0 l 1,1,-1
 457 0 l 1,2,-1
 457 193 l 1,3,4
 420 182 420 182 388 182 c 0,5,6
 367 182 367 182 348 186 c 1,7,8
 358 169 358 169 358 137 c 0,9,10
 358 90 358 90 318.5 57.5 c 128,-1,11
 279 25 279 25 222 25 c 0,12,13
 155 25 155 25 109 62.5 c 128,-1,14
 63 100 63 100 18 180 c 1,15,-1
 62 207 l 1,16,17
 98 141 98 141 134 109 c 128,-1,18
 170 77 170 77 221 77 c 0,19,20
 259 77 259 77 282.5 95 c 128,-1,21
 306 113 306 113 306 147 c 0,22,23
 306 231 306 231 178 226 c 1,24,-1
 159 226 l 1,25,-1
 159 275 l 1,26,-1
 182 275 l 2,27,28
 291 274 291 274 291 347 c 0,29,30
 291 375 291 375 271.5 390.5 c 128,-1,31
 252 406 252 406 221 406 c 0,32,33
 192 406 192 406 172.5 395.5 c 128,-1,34
 153 385 153 385 132 366 c 1,35,-1
 102 407 l 1,36,37
 130 429 130 429 156 443 c 128,-1,38
 182 457 182 457 222 457 c 0,39,40
 276 457 276 457 309.5 427.5 c 128,-1,41
 343 398 343 398 343 353 c 0,42,43
 343 321 343 321 327 295.5 c 128,-1,44
 311 270 311 270 279 254 c 1,45,46
 336 230 336 230 375 230 c 0,47,48
 402 230 402 230 420.5 235 c 128,-1,49
 439 240 439 240 457 250 c 1,50,-1
 457 408 l 1,51,-1
 363 408 l 1,52,-1
 363 456 l 1,53,-1
 609 456 l 1,54,-1
 609 408 l 1,55,-1
 511 408 l 1,0,-1
400.5 -71 m 128,-1,57
 421 -59 421 -59 434 -33 c 1,58,-1
 474 -57 l 1,59,60
 460 -93 460 -93 426 -112 c 128,-1,61
 392 -131 392 -131 349 -131 c 256,62,63
 306 -131 306 -131 272 -112 c 128,-1,64
 238 -93 238 -93 224 -57 c 1,65,-1
 264 -33 l 1,66,67
 277 -59 277 -59 297.5 -71 c 128,-1,68
 318 -83 318 -83 349 -83 c 256,69,56
 380 -83 380 -83 400.5 -71 c 128,-1,57
400.5 -171 m 128,-1,71
 421 -159 421 -159 434 -133 c 1,72,-1
 474 -157 l 1,73,74
 460 -193 460 -193 426 -212 c 128,-1,75
 392 -231 392 -231 349 -231 c 256,76,77
 306 -231 306 -231 272 -212 c 128,-1,78
 238 -193 238 -193 224 -157 c 1,79,-1
 264 -133 l 1,80,81
 277 -159 277 -159 297.5 -171 c 128,-1,82
 318 -183 318 -183 349 -183 c 256,83,70
 380 -183 380 -183 400.5 -171 c 128,-1,71
EndSplineSet
EndChar

StartChar: candrabindudeva
Encoding: 2305 2305 108
Width: 0
GlyphClass: 4
Flags: W
AnchorPoint: "Anchor-2" 149 447 mark 0
AnchorPoint: "Anchor-1" 149 447 mark 0
LayerCount: 2
Fore
SplineSet
127.5 623 m 128,-1,1
 119 632 119 632 119 645 c 0,2,3
 119 659 119 659 127.5 668 c 128,-1,4
 136 677 136 677 150 677 c 0,5,6
 165 677 165 677 173.5 668 c 128,-1,7
 182 659 182 659 182 645 c 0,8,9
 182 632 182 632 173.5 623 c 128,-1,10
 165 614 165 614 150 614 c 0,11,0
 136 614 136 614 127.5 623 c 128,-1,1
62.5 536 m 128,-1,13
 28 563 28 563 15 608 c 1,14,-1
 59 627 l 1,15,16
 73 591 73 591 93 574 c 128,-1,17
 113 557 113 557 149 557 c 256,18,19
 185 557 185 557 205.5 574 c 128,-1,20
 226 591 226 591 240 627 c 1,21,-1
 282 608 l 1,22,23
 270 563 270 563 235.5 536 c 128,-1,24
 201 509 201 509 149 509 c 256,25,12
 97 509 97 509 62.5 536 c 128,-1,13
EndSplineSet
Substitution2: "Single Substitution lookup 40 subtable" candrabindudeva.alt2
Substitution2: "Single Substitution lookup 39 subtable" candrabindudeva.alt1
AlternateSubs2: "'aalt' Access All Alternates lookup 1 subtable" candrabindudeva.alt1 candrabindudeva.alt2
EndChar

StartChar: candrabindudeva.alt1
Encoding: 65557 -1 109
Width: 0
GlyphClass: 4
Flags: W
AnchorPoint: "Anchor-2" 149 447 mark 0
AnchorPoint: "Anchor-1" 149 447 mark 0
LayerCount: 2
Fore
SplineSet
225 589.5 m 128,-1,1
 218 597 218 597 218 607 c 256,2,3
 218 617 218 617 225 624.5 c 128,-1,4
 232 632 232 632 243 632 c 256,5,6
 254 632 254 632 261 624.5 c 128,-1,7
 268 617 268 617 268 607 c 256,8,9
 268 597 268 597 261 589.5 c 128,-1,10
 254 582 254 582 243 582 c 256,11,0
 232 582 232 582 225 589.5 c 128,-1,1
180 528 m 128,-1,13
 155 547 155 547 145 580 c 1,14,-1
 180 595 l 1,15,16
 189 571 189 571 205.5 558.5 c 128,-1,17
 222 546 222 546 242 546 c 0,18,19
 263 546 263 546 279 558.5 c 128,-1,20
 295 571 295 571 305 595 c 1,21,-1
 339 579 l 1,22,23
 330 547 330 547 305 528 c 128,-1,24
 280 509 280 509 242 509 c 0,25,12
 205 509 205 509 180 528 c 128,-1,13
EndSplineSet
EndChar

StartChar: candrabindudeva.alt2
Encoding: 65558 -1 110
Width: 0
GlyphClass: 4
Flags: W
AnchorPoint: "Anchor-2" 149 447 mark 0
AnchorPoint: "Anchor-1" 149 447 mark 0
LayerCount: 2
Fore
SplineSet
255 589.5 m 128,-1,1
 248 597 248 597 248 607 c 256,2,3
 248 617 248 617 255 624.5 c 128,-1,4
 262 632 262 632 273 632 c 256,5,6
 284 632 284 632 291 624.5 c 128,-1,7
 298 617 298 617 298 607 c 256,8,9
 298 597 298 597 291 589.5 c 128,-1,10
 284 582 284 582 273 582 c 256,11,0
 262 582 262 582 255 589.5 c 128,-1,1
210 528 m 128,-1,13
 185 547 185 547 175 580 c 1,14,-1
 210 595 l 1,15,16
 219 571 219 571 235.5 558.5 c 128,-1,17
 252 546 252 546 272 546 c 0,18,19
 293 546 293 546 309 558.5 c 128,-1,20
 325 571 325 571 335 595 c 1,21,-1
 369 579 l 1,22,23
 360 547 360 547 335 528 c 128,-1,24
 310 509 310 509 272 509 c 0,25,12
 235 509 235 509 210 528 c 128,-1,13
EndSplineSet
EndChar

StartChar: anusvaradeva
Encoding: 2306 2306 111
Width: 0
GlyphClass: 4
Flags: W
AnchorPoint: "Anchor-2" -83 447 mark 0
AnchorPoint: "Anchor-1" -83 447 mark 0
LayerCount: 2
Fore
SplineSet
-109 529.5 m 128,-1,1
 -119 540 -119 540 -119 555 c 0,2,3
 -119 571 -119 571 -109 581.5 c 128,-1,4
 -99 592 -99 592 -83 592 c 0,5,6
 -66 592 -66 592 -56 581.5 c 128,-1,7
 -46 571 -46 571 -46 555 c 0,8,9
 -46 540 -46 540 -56 529.5 c 128,-1,10
 -66 519 -66 519 -83 519 c 0,11,0
 -99 519 -99 519 -109 529.5 c 128,-1,1
EndSplineSet
Substitution2: "Single Substitution lookup 40 subtable" anusvaradeva.alt2
Substitution2: "Single Substitution lookup 39 subtable" anusvaradeva.alt1
AlternateSubs2: "'aalt' Access All Alternates lookup 1 subtable" anusvaradeva.alt1 anusvaradeva.alt2
EndChar

StartChar: anusvaradeva.alt1
Encoding: 65559 -1 112
Width: 0
GlyphClass: 4
Flags: W
AnchorPoint: "Anchor-2" -83 447 mark 0
AnchorPoint: "Anchor-1" -83 447 mark 0
LayerCount: 2
Fore
SplineSet
-59 549.5 m 128,-1,1
 -69 560 -69 560 -69 575 c 0,2,3
 -69 591 -69 591 -59 601.5 c 128,-1,4
 -49 612 -49 612 -33 612 c 0,5,6
 -16 612 -16 612 -6 601.5 c 128,-1,7
 4 591 4 591 4 575 c 0,8,9
 4 560 4 560 -6 549.5 c 128,-1,10
 -16 539 -16 539 -33 539 c 0,11,0
 -49 539 -49 539 -59 549.5 c 128,-1,1
EndSplineSet
EndChar

StartChar: anusvaradeva.alt2
Encoding: 65560 -1 113
Width: 0
GlyphClass: 4
Flags: W
AnchorPoint: "Anchor-2" -83 447 mark 0
AnchorPoint: "Anchor-1" -83 447 mark 0
LayerCount: 2
Fore
SplineSet
-49 549.5 m 128,-1,1
 -59 560 -59 560 -59 575 c 0,2,3
 -59 591 -59 591 -49 601.5 c 128,-1,4
 -39 612 -39 612 -23 612 c 0,5,6
 -6 612 -6 612 4 601.5 c 128,-1,7
 14 591 14 591 14 575 c 0,8,9
 14 560 14 560 4 549.5 c 128,-1,10
 -6 539 -6 539 -23 539 c 0,11,0
 -39 539 -39 539 -49 549.5 c 128,-1,1
EndSplineSet
EndChar

StartChar: visargadeva
Encoding: 2307 2307 114
Width: 173
Flags: W
LayerCount: 2
Fore
SplineSet
60 267.5 m 128,-1,1
 50 278 50 278 50 293 c 0,2,3
 50 309 50 309 60 319.5 c 128,-1,4
 70 330 70 330 86 330 c 0,5,6
 103 330 103 330 113 319.5 c 128,-1,7
 123 309 123 309 123 293 c 0,8,9
 123 278 123 278 113 267.5 c 128,-1,10
 103 257 103 257 86 257 c 0,11,0
 70 257 70 257 60 267.5 c 128,-1,1
60 67.5 m 128,-1,13
 50 78 50 78 50 93 c 0,14,15
 50 109 50 109 60 119.5 c 128,-1,16
 70 130 70 130 86 130 c 0,17,18
 103 130 103 130 113 119.5 c 128,-1,19
 123 109 123 109 123 93 c 0,20,21
 123 78 123 78 113 67.5 c 128,-1,22
 103 57 103 57 86 57 c 0,23,12
 70 57 70 57 60 67.5 c 128,-1,13
EndSplineSet
EndChar

StartChar: uni093E
Encoding: 2366 2366 115
Width: 213
GlyphClass: 2
Flags: W
AnchorPoint: "Anchor-2" 108 447 basechar 0
LayerCount: 2
Fore
SplineSet
135 408 m 1,0,-1
 135 0 l 1,1,-1
 80 0 l 1,2,-1
 80 408 l 1,3,-1
 -24 408 l 1,4,-1
 -24 456 l 1,5,-1
 237 456 l 1,6,-1
 237 408 l 1,7,-1
 135 408 l 1,0,-1
EndSplineSet
EndChar

StartChar: uni093F
Encoding: 2367 2367 116
Width: 208
GlyphClass: 2
Flags: W
LayerCount: 2
Fore
SplineSet
420 597 m 128,-1,1
 509 545 509 545 593 436 c 1,2,-1
 525 436 l 1,3,4
 396 599 396 599 216 599 c 0,5,6
 164 599 164 599 135.5 576.5 c 128,-1,7
 107 554 107 554 107 517 c 256,8,9
 107 480 107 480 131 456 c 1,10,-1
 231 456 l 1,11,-1
 231 408 l 1,12,-1
 130 408 l 1,13,-1
 130 0 l 1,14,-1
 75 0 l 1,15,-1
 75 408 l 1,16,-1
 -24 408 l 1,17,-1
 -24 456 l 1,18,-1
 70 456 l 1,19,20
 53 488 53 488 53 521 c 0,21,22
 53 577 53 577 95 613 c 128,-1,23
 137 649 137 649 215 649 c 0,24,0
 331 649 331 649 420 597 c 128,-1,1
EndSplineSet
Substitution2: "Single Substitution lookup 42 subtable" uni093F0930094D_candrabindudeva
Substitution2: "Single Substitution lookup 41 subtable" uni093F0930094D0902
Substitution2: "Single Substitution lookup 40 subtable" uni093F0930094D
Substitution2: "Single Substitution lookup 39 subtable" uni093F.alt17
Substitution2: "Single Substitution lookup 38 subtable" uni093F.alt16
Substitution2: "Single Substitution lookup 37 subtable" uni093F.alt15
Substitution2: "Single Substitution lookup 36 subtable" uni093F.alt14
Substitution2: "Single Substitution lookup 35 subtable" uni093F.alt13
Substitution2: "Single Substitution lookup 34 subtable" uni093F.alt12
Substitution2: "Single Substitution lookup 33 subtable" uni093F.alt11
Substitution2: "Single Substitution lookup 32 subtable" uni093F.alt10
Substitution2: "Single Substitution lookup 31 subtable" uni093F.alt9
Substitution2: "Single Substitution lookup 30 subtable" uni093F.alt8
Substitution2: "Single Substitution lookup 29 subtable" uni093F.alt6
Substitution2: "Single Substitution lookup 28 subtable" uni093F.alt5
Substitution2: "Single Substitution lookup 27 subtable" uni093F.alt4
Substitution2: "Single Substitution lookup 26 subtable" uni093F.alt3
Substitution2: "Single Substitution lookup 25 subtable" uni093F.alt2
Substitution2: "Single Substitution lookup 24 subtable" uni093F.alt1
AlternateSubs2: "'aalt' Access All Alternates lookup 1 subtable" uni093F.alt1 uni093F.alt2 uni093F.alt3 uni093F.alt4 uni093F.alt5 uni093F.alt6 uni093F.alt8 uni093F.alt9 uni093F.alt10 uni093F.alt11 uni093F.alt12 uni093F.alt13 uni093F.alt14 uni093F.alt15 uni093F.alt16 uni093F.alt17 uni093F0930094D uni093F0930094D0902 uni093F0930094D_candrabindudeva
EndChar

StartChar: uni093F0930094D
Encoding: 65561 -1 117
Width: 208
GlyphClass: 2
Flags: W
LayerCount: 2
Fore
SplineSet
130 408 m 1,0,-1
 130 0 l 1,1,-1
 75 0 l 1,2,-1
 75 408 l 1,3,-1
 -24 408 l 1,4,-1
 -24 456 l 1,5,-1
 70 456 l 1,6,7
 63 467 63 467 58 484.5 c 128,-1,8
 53 502 53 502 53 519 c 0,9,10
 53 576 53 576 94.5 612.5 c 128,-1,11
 136 649 136 649 215 649 c 0,12,13
 355 649 355 649 472 559 c 1,14,15
 474 603 474 603 503.5 628.5 c 128,-1,16
 533 654 533 654 578 654 c 0,17,18
 604 654 604 654 631.5 644 c 128,-1,19
 659 634 659 634 680 620 c 1,20,-1
 653 578 l 1,21,22
 638 589 638 589 617.5 597 c 128,-1,23
 597 605 597 605 578 605 c 0,24,25
 518 605 518 605 518 550 c 0,26,27
 518 525 518 525 532.5 503 c 128,-1,28
 547 481 547 481 565 461.5 c 128,-1,29
 583 442 583 442 589 436 c 1,30,-1
 525 436 l 1,31,32
 461 517 461 517 387 558 c 128,-1,33
 313 599 313 599 216 599 c 0,34,35
 163 598 163 598 135 575.5 c 128,-1,36
 107 553 107 553 107 517 c 256,37,38
 107 481 107 481 130 456 c 1,39,-1
 231 456 l 1,40,-1
 231 408 l 1,41,-1
 130 408 l 1,0,-1
EndSplineSet
Ligature2: "'abvs' Above Base Substitutions lookup 17 subtable" uni093F uni0930094D
EndChar

StartChar: uni093F0930094D0902
Encoding: 65562 -1 118
Width: 208
GlyphClass: 2
Flags: W
LayerCount: 2
Fore
SplineSet
130 408 m 1,0,-1
 130 0 l 1,1,-1
 75 0 l 1,2,-1
 75 408 l 1,3,-1
 -24 408 l 1,4,-1
 -24 456 l 1,5,-1
 70 456 l 1,6,7
 63 467 63 467 58 484.5 c 128,-1,8
 53 502 53 502 53 519 c 0,9,10
 53 576 53 576 94.5 612.5 c 128,-1,11
 136 649 136 649 215 649 c 0,12,13
 355 649 355 649 472 559 c 1,14,15
 474 603 474 603 503.5 628.5 c 128,-1,16
 533 654 533 654 578 654 c 0,17,18
 604 654 604 654 631.5 644 c 128,-1,19
 659 634 659 634 680 620 c 1,20,-1
 653 578 l 1,21,22
 638 589 638 589 617.5 597 c 128,-1,23
 597 605 597 605 578 605 c 0,24,25
 518 605 518 605 518 550 c 0,26,27
 518 525 518 525 532.5 503 c 128,-1,28
 547 481 547 481 565 461.5 c 128,-1,29
 583 442 583 442 589 436 c 1,30,-1
 525 436 l 1,31,32
 461 517 461 517 387 558 c 128,-1,33
 313 599 313 599 216 599 c 0,34,35
 163 598 163 598 135 575.5 c 128,-1,36
 107 553 107 553 107 517 c 256,37,38
 107 481 107 481 130 456 c 1,39,-1
 231 456 l 1,40,-1
 231 408 l 1,41,-1
 130 408 l 1,0,-1
564 520 m 128,-1,43
 556 528 556 528 556 540 c 256,44,45
 556 552 556 552 564 560.5 c 128,-1,46
 572 569 572 569 584 569 c 0,47,48
 597 569 597 569 605 560.5 c 128,-1,49
 613 552 613 552 613 540 c 256,50,51
 613 528 613 528 605 520 c 128,-1,52
 597 512 597 512 584 512 c 0,53,42
 572 512 572 512 564 520 c 128,-1,43
EndSplineSet
Ligature2: "'abvs' Above Base Substitutions lookup 17 subtable" uni093F uni0930094D anusvaradeva
Ligature2: "'abvs' Above Base Substitutions lookup 17 subtable" uni093F uni0930094D candrabindudeva
EndChar

StartChar: uni093F0930094D_candrabindudeva
Encoding: 65563 -1 119
Width: 208
GlyphClass: 3
Flags: W
LayerCount: 2
Fore
SplineSet
130 408 m 1,0,-1
 130 0 l 1,1,-1
 75 0 l 1,2,-1
 75 408 l 1,3,-1
 -24 408 l 1,4,-1
 -24 456 l 1,5,-1
 70 456 l 1,6,7
 63 467 63 467 58 484.5 c 128,-1,8
 53 502 53 502 53 519 c 0,9,10
 53 576 53 576 94.5 612.5 c 128,-1,11
 136 649 136 649 215 649 c 0,12,13
 355 649 355 649 472 559 c 1,14,15
 474 603 474 603 503.5 628.5 c 128,-1,16
 533 654 533 654 578 654 c 0,17,18
 605 654 605 654 635 643 c 1,19,-1
 617 597 l 1,20,21
 598 605 598 605 578 605 c 0,22,23
 518 605 518 605 518 550 c 0,24,25
 518 527 518 527 530 508 c 128,-1,26
 542 489 542 489 568 460 c 0,27,28
 578 450 578 450 589 436 c 1,29,-1
 525 436 l 1,30,31
 461 517 461 517 387 558 c 128,-1,32
 313 599 313 599 216 599 c 0,33,34
 163 598 163 598 135 575.5 c 128,-1,35
 107 553 107 553 107 517 c 256,36,37
 107 481 107 481 130 456 c 1,38,-1
 231 456 l 1,39,-1
 231 408 l 1,40,-1
 130 408 l 1,0,-1
644 559.5 m 128,-1,42
 637 567 637 567 637 577 c 256,43,44
 637 587 637 587 644 594.5 c 128,-1,45
 651 602 651 602 662 602 c 256,46,47
 673 602 673 602 680 594.5 c 128,-1,48
 687 587 687 587 687 577 c 256,49,50
 687 567 687 567 680 559.5 c 128,-1,51
 673 552 673 552 662 552 c 256,52,41
 651 552 651 552 644 559.5 c 128,-1,42
599 498 m 128,-1,54
 574 517 574 517 564 550 c 1,55,-1
 599 565 l 1,56,57
 608 541 608 541 624.5 528.5 c 128,-1,58
 641 516 641 516 661 516 c 0,59,60
 682 516 682 516 698 528.5 c 128,-1,61
 714 541 714 541 724 565 c 1,62,-1
 758 549 l 1,63,64
 749 517 749 517 724 498 c 128,-1,65
 699 479 699 479 661 479 c 0,66,53
 624 479 624 479 599 498 c 128,-1,54
EndSplineSet
EndChar

StartChar: uni093F.alt1
Encoding: 65564 -1 120
Width: 208
GlyphClass: 2
Flags: W
LayerCount: 2
Fore
SplineSet
382 598 m 128,-1,1
 456 547 456 547 542 436 c 1,2,-1
 477 436 l 1,3,4
 411 520 411 520 351.5 559.5 c 128,-1,5
 292 599 292 599 216 599 c 0,6,7
 164 599 164 599 134.5 577.5 c 128,-1,8
 105 556 105 556 105 525 c 0,9,10
 105 486 105 486 131 456 c 1,11,-1
 231 456 l 1,12,-1
 231 408 l 1,13,-1
 130 408 l 1,14,-1
 130 0 l 1,15,-1
 75 0 l 1,16,-1
 75 408 l 1,17,-1
 -24 408 l 1,18,-1
 -24 456 l 1,19,-1
 71 456 l 1,20,21
 51 489 51 489 51 525 c 0,22,23
 51 577 51 577 93.5 613 c 128,-1,24
 136 649 136 649 215 649 c 0,25,0
 308 649 308 649 382 598 c 128,-1,1
EndSplineSet
Substitution2: "Single Substitution lookup 42 subtable" uni093F0930094D_candrabindudeva.alt1
Substitution2: "Single Substitution lookup 41 subtable" uni093F0930094D0902.alt1
Substitution2: "Single Substitution lookup 40 subtable" uni093F0930094D.alt1
AlternateSubs2: "'aalt' Access All Alternates lookup 1 subtable" uni093F0930094D.alt1 uni093F0930094D0902.alt1 uni093F0930094D_candrabindudeva.alt1
EndChar

StartChar: uni093F0930094D.alt1
Encoding: 65565 -1 121
Width: 208
GlyphClass: 2
Flags: W
LayerCount: 2
Fore
SplineSet
130 408 m 1,0,-1
 130 0 l 1,1,-1
 75 0 l 1,2,-1
 75 408 l 1,3,-1
 -24 408 l 1,4,-1
 -24 456 l 1,5,-1
 71 456 l 1,6,7
 51 489 51 489 51 525 c 0,8,9
 51 577 51 577 93.5 613 c 128,-1,10
 136 649 136 649 215 649 c 0,11,12
 274 649 274 649 324.5 628 c 128,-1,13
 375 607 375 607 425 564 c 1,14,15
 429 605 429 605 458.5 627 c 128,-1,16
 488 649 488 649 531 649 c 0,17,18
 584 649 584 649 634 615 c 1,19,-1
 607 573 l 1,20,21
 591 583 591 583 571 591 c 128,-1,22
 551 599 551 599 533 599 c 0,23,24
 472 599 472 599 472 545 c 0,25,26
 472 520 472 520 487.5 497.5 c 128,-1,27
 503 475 503 475 538 436 c 1,28,-1
 477 436 l 1,29,30
 411 520 411 520 351.5 559.5 c 128,-1,31
 292 599 292 599 216 599 c 0,32,33
 164 599 164 599 134.5 577.5 c 128,-1,34
 105 556 105 556 105 525 c 0,35,36
 105 486 105 486 131 456 c 1,37,-1
 231 456 l 1,38,-1
 231 408 l 1,39,-1
 130 408 l 1,0,-1
EndSplineSet
EndChar

StartChar: uni093F0930094D0902.alt1
Encoding: 65566 -1 122
Width: 208
GlyphClass: 2
Flags: W
LayerCount: 2
Fore
SplineSet
130 408 m 1,0,-1
 130 0 l 1,1,-1
 75 0 l 1,2,-1
 75 408 l 1,3,-1
 -24 408 l 1,4,-1
 -24 456 l 1,5,-1
 71 456 l 1,6,7
 51 489 51 489 51 525 c 0,8,9
 51 577 51 577 93.5 613 c 128,-1,10
 136 649 136 649 215 649 c 0,11,12
 274 649 274 649 324.5 628 c 128,-1,13
 375 607 375 607 425 564 c 1,14,15
 429 605 429 605 458.5 627 c 128,-1,16
 488 649 488 649 531 649 c 0,17,18
 584 649 584 649 634 615 c 1,19,-1
 607 573 l 1,20,21
 591 583 591 583 571 591 c 128,-1,22
 551 599 551 599 533 599 c 0,23,24
 472 599 472 599 472 545 c 0,25,26
 472 520 472 520 487.5 497.5 c 128,-1,27
 503 475 503 475 538 436 c 1,28,-1
 477 436 l 1,29,30
 411 520 411 520 351.5 559.5 c 128,-1,31
 292 599 292 599 216 599 c 0,32,33
 164 599 164 599 134.5 577.5 c 128,-1,34
 105 556 105 556 105 525 c 0,35,36
 105 486 105 486 131 456 c 1,37,-1
 231 456 l 1,38,-1
 231 408 l 1,39,-1
 130 408 l 1,0,-1
530 508 m 128,-1,41
 522 516 522 516 522 528 c 256,42,43
 522 540 522 540 530 548.5 c 128,-1,44
 538 557 538 557 550 557 c 0,45,46
 563 557 563 557 571 548.5 c 128,-1,47
 579 540 579 540 579 528 c 256,48,49
 579 516 579 516 571 508 c 128,-1,50
 563 500 563 500 550 500 c 0,51,40
 538 500 538 500 530 508 c 128,-1,41
EndSplineSet
EndChar

StartChar: uni093F0930094D_candrabindudeva.alt1
Encoding: 65567 -1 123
Width: 208
GlyphClass: 3
Flags: W
LayerCount: 2
Fore
SplineSet
130 408 m 1,0,-1
 130 0 l 1,1,-1
 75 0 l 1,2,-1
 75 408 l 1,3,-1
 -24 408 l 1,4,-1
 -24 456 l 1,5,-1
 71 456 l 1,6,7
 51 489 51 489 51 525 c 0,8,9
 51 577 51 577 93.5 613 c 128,-1,10
 136 649 136 649 215 649 c 0,11,12
 274 649 274 649 324.5 628 c 128,-1,13
 375 607 375 607 425 564 c 1,14,15
 429 605 429 605 458.5 627 c 128,-1,16
 488 649 488 649 531 649 c 0,17,18
 562 649 562 649 587 640 c 1,19,-1
 570 592 l 1,20,21
 549 599 549 599 533 599 c 0,22,23
 472 599 472 599 472 545 c 0,24,25
 472 520 472 520 487.5 497.5 c 128,-1,26
 503 475 503 475 538 436 c 1,27,-1
 477 436 l 1,28,29
 411 520 411 520 351.5 559.5 c 128,-1,30
 292 599 292 599 216 599 c 0,31,32
 164 599 164 599 134.5 577.5 c 128,-1,33
 105 556 105 556 105 525 c 0,34,35
 105 486 105 486 131 456 c 1,36,-1
 231 456 l 1,37,-1
 231 408 l 1,38,-1
 130 408 l 1,0,-1
598 559.5 m 128,-1,40
 591 567 591 567 591 577 c 256,41,42
 591 587 591 587 598 594.5 c 128,-1,43
 605 602 605 602 616 602 c 256,44,45
 627 602 627 602 634 594.5 c 128,-1,46
 641 587 641 587 641 577 c 256,47,48
 641 567 641 567 634 559.5 c 128,-1,49
 627 552 627 552 616 552 c 256,50,39
 605 552 605 552 598 559.5 c 128,-1,40
553 498 m 128,-1,52
 528 517 528 517 518 550 c 1,53,-1
 553 565 l 1,54,55
 562 541 562 541 578.5 528.5 c 128,-1,56
 595 516 595 516 615 516 c 0,57,58
 636 516 636 516 652 528.5 c 128,-1,59
 668 541 668 541 678 565 c 1,60,-1
 712 549 l 1,61,62
 703 517 703 517 678 498 c 128,-1,63
 653 479 653 479 615 479 c 0,64,51
 578 479 578 479 553 498 c 128,-1,52
EndSplineSet
EndChar

StartChar: uni093F.alt2
Encoding: 65568 -1 124
Width: 208
GlyphClass: 2
Flags: W
LayerCount: 2
Fore
SplineSet
496.5 593 m 128,-1,1
 614 537 614 537 692 436 c 1,2,-1
 619 436 l 1,3,4
 580 486 580 486 518 522 c 128,-1,5
 456 558 456 558 388.5 577 c 128,-1,6
 321 596 321 596 264 596 c 0,7,8
 179 596 179 596 143.5 575.5 c 128,-1,9
 108 555 108 555 108 517 c 0,10,11
 108 481 108 481 131 456 c 1,12,-1
 231 456 l 1,13,-1
 231 408 l 1,14,-1
 130 408 l 1,15,-1
 130 0 l 1,16,-1
 75 0 l 1,17,-1
 75 408 l 1,18,-1
 -24 408 l 1,19,-1
 -24 456 l 1,20,-1
 70 456 l 1,21,22
 53 488 53 488 53 521 c 0,23,24
 53 579 53 579 103.5 614 c 128,-1,25
 154 649 154 649 266 649 c 0,26,0
 379 649 379 649 496.5 593 c 128,-1,1
EndSplineSet
Substitution2: "Single Substitution lookup 42 subtable" uni093F0930094D_candrabindudeva.alt2
Substitution2: "Single Substitution lookup 41 subtable" uni093F0930094D0902.alt2
Substitution2: "Single Substitution lookup 40 subtable" uni093F0930094D.alt2
AlternateSubs2: "'aalt' Access All Alternates lookup 1 subtable" uni093F0930094D.alt2 uni093F0930094D0902.alt2 uni093F0930094D_candrabindudeva.alt2
EndChar

StartChar: uni093F0930094D.alt2
Encoding: 65569 -1 125
Width: 208
GlyphClass: 2
Flags: W
LayerCount: 2
Fore
SplineSet
130 408 m 1,0,-1
 130 0 l 1,1,-1
 75 0 l 1,2,-1
 75 408 l 1,3,-1
 -24 408 l 1,4,-1
 -24 456 l 1,5,-1
 70 456 l 1,6,7
 53 486 53 486 53 521 c 0,8,9
 53 579 53 579 103.5 614 c 128,-1,10
 154 649 154 649 266 649 c 0,11,12
 340 649 340 649 420 623.5 c 128,-1,13
 500 598 500 598 570 550 c 1,14,-1
 570 552 l 2,15,16
 570 599 570 599 600.5 624 c 128,-1,17
 631 649 631 649 676 649 c 0,18,19
 703 649 703 649 732.5 639 c 128,-1,20
 762 629 762 629 780 615 c 1,21,-1
 753 573 l 1,22,23
 739 583 739 583 718 590.5 c 128,-1,24
 697 598 697 598 678 598 c 0,25,26
 618 598 618 598 618 545 c 0,27,28
 618 520 618 520 633.5 499 c 128,-1,29
 649 478 649 478 667 460 c 128,-1,30
 685 442 685 442 692 436 c 1,31,-1
 619 436 l 1,32,33
 580 486 580 486 518 522 c 128,-1,34
 456 558 456 558 388.5 577 c 128,-1,35
 321 596 321 596 264 596 c 0,36,37
 179 596 179 596 143.5 575.5 c 128,-1,38
 108 555 108 555 108 517 c 0,39,40
 108 481 108 481 131 456 c 1,41,-1
 231 456 l 1,42,-1
 231 408 l 1,43,-1
 130 408 l 1,0,-1
EndSplineSet
EndChar

StartChar: uni093F0930094D0902.alt2
Encoding: 65570 -1 126
Width: 208
GlyphClass: 2
Flags: W
LayerCount: 2
Fore
SplineSet
130 408 m 1,0,-1
 130 0 l 1,1,-1
 75 0 l 1,2,-1
 75 408 l 1,3,-1
 -24 408 l 1,4,-1
 -24 456 l 1,5,-1
 70 456 l 1,6,7
 53 486 53 486 53 521 c 0,8,9
 53 579 53 579 103.5 614 c 128,-1,10
 154 649 154 649 266 649 c 0,11,12
 340 649 340 649 420 623.5 c 128,-1,13
 500 598 500 598 570 550 c 1,14,-1
 570 552 l 2,15,16
 570 599 570 599 600.5 624 c 128,-1,17
 631 649 631 649 676 649 c 0,18,19
 703 649 703 649 732.5 639 c 128,-1,20
 762 629 762 629 780 615 c 1,21,-1
 753 573 l 1,22,23
 739 583 739 583 718 590.5 c 128,-1,24
 697 598 697 598 678 598 c 0,25,26
 618 598 618 598 618 545 c 0,27,28
 618 520 618 520 633.5 499 c 128,-1,29
 649 478 649 478 667 460 c 128,-1,30
 685 442 685 442 692 436 c 1,31,-1
 619 436 l 1,32,33
 580 486 580 486 518 522 c 128,-1,34
 456 558 456 558 388.5 577 c 128,-1,35
 321 596 321 596 264 596 c 0,36,37
 179 596 179 596 143.5 575.5 c 128,-1,38
 108 555 108 555 108 517 c 0,39,40
 108 481 108 481 131 456 c 1,41,-1
 231 456 l 1,42,-1
 231 408 l 1,43,-1
 130 408 l 1,0,-1
670 508 m 128,-1,45
 662 516 662 516 662 528 c 256,46,47
 662 540 662 540 670 548.5 c 128,-1,48
 678 557 678 557 690 557 c 0,49,50
 703 557 703 557 711 548.5 c 128,-1,51
 719 540 719 540 719 528 c 256,52,53
 719 516 719 516 711 508 c 128,-1,54
 703 500 703 500 690 500 c 0,55,44
 678 500 678 500 670 508 c 128,-1,45
EndSplineSet
EndChar

StartChar: uni093F0930094D_candrabindudeva.alt2
Encoding: 65571 -1 127
Width: 208
GlyphClass: 3
Flags: W
LayerCount: 2
Fore
SplineSet
130 408 m 1,0,-1
 130 0 l 1,1,-1
 75 0 l 1,2,-1
 75 408 l 1,3,-1
 -24 408 l 1,4,-1
 -24 456 l 1,5,-1
 70 456 l 1,6,7
 53 486 53 486 53 521 c 0,8,9
 53 579 53 579 103.5 614 c 128,-1,10
 154 649 154 649 266 649 c 0,11,12
 340 649 340 649 420 623.5 c 128,-1,13
 500 598 500 598 570 550 c 1,14,-1
 570 552 l 2,15,16
 570 599 570 599 601 626 c 128,-1,17
 632 653 632 653 680 653 c 0,18,19
 707 653 707 653 734 644 c 1,20,-1
 716 596 l 1,21,22
 692 602 692 602 678 602 c 0,23,24
 651 602 651 602 634.5 590 c 128,-1,25
 618 578 618 578 618 545 c 0,26,27
 618 520 618 520 633.5 499 c 128,-1,28
 649 478 649 478 667 460 c 128,-1,29
 685 442 685 442 692 436 c 1,30,-1
 619 436 l 1,31,32
 580 486 580 486 518 522 c 128,-1,33
 456 558 456 558 388.5 577 c 128,-1,34
 321 596 321 596 264 596 c 0,35,36
 179 596 179 596 143.5 575.5 c 128,-1,37
 108 555 108 555 108 517 c 0,38,39
 108 481 108 481 131 456 c 1,40,-1
 231 456 l 1,41,-1
 231 408 l 1,42,-1
 130 408 l 1,0,-1
744 559.5 m 128,-1,44
 737 567 737 567 737 577 c 256,45,46
 737 587 737 587 744 594.5 c 128,-1,47
 751 602 751 602 762 602 c 256,48,49
 773 602 773 602 780 594.5 c 128,-1,50
 787 587 787 587 787 577 c 256,51,52
 787 567 787 567 780 559.5 c 128,-1,53
 773 552 773 552 762 552 c 256,54,43
 751 552 751 552 744 559.5 c 128,-1,44
699 498 m 128,-1,56
 674 517 674 517 664 550 c 1,57,-1
 699 565 l 1,58,59
 708 541 708 541 724.5 528.5 c 128,-1,60
 741 516 741 516 761 516 c 0,61,62
 782 516 782 516 798 528.5 c 128,-1,63
 814 541 814 541 824 565 c 1,64,-1
 858 549 l 1,65,66
 849 517 849 517 824 498 c 128,-1,67
 799 479 799 479 761 479 c 0,68,55
 724 479 724 479 699 498 c 128,-1,56
EndSplineSet
EndChar

StartChar: uni093F.alt3
Encoding: 65572 -1 128
Width: 208
GlyphClass: 2
Flags: W
LayerCount: 2
Fore
SplineSet
460.5 595.5 m 128,-1,1
 561 542 561 542 643 436 c 1,2,-1
 575 436 l 1,3,4
 513 515 513 515 427.5 556.5 c 128,-1,5
 342 598 342 598 236 598 c 0,6,7
 170 598 170 598 138.5 576 c 128,-1,8
 107 554 107 554 107 517 c 256,9,10
 107 480 107 480 131 456 c 1,11,-1
 231 456 l 1,12,-1
 231 408 l 1,13,-1
 130 408 l 1,14,-1
 130 0 l 1,15,-1
 75 0 l 1,16,-1
 75 408 l 1,17,-1
 -24 408 l 1,18,-1
 -24 456 l 1,19,-1
 70 456 l 1,20,21
 53 488 53 488 53 521 c 0,22,23
 53 578 53 578 98 613.5 c 128,-1,24
 143 649 143 649 235 649 c 0,25,0
 360 649 360 649 460.5 595.5 c 128,-1,1
EndSplineSet
Substitution2: "Single Substitution lookup 42 subtable" uni093F0930094D_candrabindudeva.alt3
Substitution2: "Single Substitution lookup 41 subtable" uni093F0930094D0902.alt3
Substitution2: "Single Substitution lookup 40 subtable" uni093F0930094D.alt3
AlternateSubs2: "'aalt' Access All Alternates lookup 1 subtable" uni093F0930094D.alt3 uni093F0930094D0902.alt3 uni093F0930094D_candrabindudeva.alt3
EndChar

StartChar: uni093F0930094D.alt3
Encoding: 65573 -1 129
Width: 208
GlyphClass: 2
Flags: W
LayerCount: 2
Fore
SplineSet
130 408 m 1,0,-1
 130 0 l 1,1,-1
 75 0 l 1,2,-1
 75 408 l 1,3,-1
 -24 408 l 1,4,-1
 -24 456 l 1,5,-1
 70 456 l 1,6,7
 53 486 53 486 53 521 c 0,8,9
 53 578 53 578 98 613.5 c 128,-1,10
 143 649 143 649 235 649 c 0,11,12
 398 649 398 649 524 555 c 1,13,14
 525 600 525 600 556 625 c 128,-1,15
 587 650 587 650 634 650 c 0,16,17
 661 650 661 650 687.5 640.5 c 128,-1,18
 714 631 714 631 736 617 c 1,19,-1
 707 573 l 1,20,21
 665 598 665 598 628 598 c 0,22,23
 572 598 572 598 572 545 c 0,24,25
 572 520 572 520 586.5 499 c 128,-1,26
 601 478 601 478 619 460.5 c 128,-1,27
 637 443 637 443 643 436 c 1,28,-1
 575 436 l 1,29,30
 513 515 513 515 427.5 556.5 c 128,-1,31
 342 598 342 598 236 598 c 0,32,33
 170 598 170 598 138.5 576 c 128,-1,34
 107 554 107 554 107 517 c 0,35,36
 107 481 107 481 130 456 c 1,37,-1
 231 456 l 1,38,-1
 231 408 l 1,39,-1
 130 408 l 1,0,-1
EndSplineSet
EndChar

StartChar: uni093F0930094D0902.alt3
Encoding: 65574 -1 130
Width: 208
GlyphClass: 2
Flags: W
LayerCount: 2
Fore
SplineSet
130 408 m 1,0,-1
 130 0 l 1,1,-1
 75 0 l 1,2,-1
 75 408 l 1,3,-1
 -24 408 l 1,4,-1
 -24 456 l 1,5,-1
 70 456 l 1,6,7
 53 486 53 486 53 521 c 0,8,9
 53 578 53 578 98 613.5 c 128,-1,10
 143 649 143 649 235 649 c 0,11,12
 398 649 398 649 524 555 c 1,13,14
 525 600 525 600 556 625 c 128,-1,15
 587 650 587 650 634 650 c 0,16,17
 661 650 661 650 687.5 640.5 c 128,-1,18
 714 631 714 631 736 617 c 1,19,-1
 707 573 l 1,20,21
 665 598 665 598 628 598 c 0,22,23
 572 598 572 598 572 545 c 0,24,25
 572 520 572 520 586.5 499 c 128,-1,26
 601 478 601 478 619 460.5 c 128,-1,27
 637 443 637 443 643 436 c 1,28,-1
 575 436 l 1,29,30
 513 515 513 515 427.5 556.5 c 128,-1,31
 342 598 342 598 236 598 c 0,32,33
 170 598 170 598 138.5 576 c 128,-1,34
 107 554 107 554 107 517 c 0,35,36
 107 481 107 481 130 456 c 1,37,-1
 231 456 l 1,38,-1
 231 408 l 1,39,-1
 130 408 l 1,0,-1
628 508 m 128,-1,41
 620 516 620 516 620 528 c 256,42,43
 620 540 620 540 628 548.5 c 128,-1,44
 636 557 636 557 648 557 c 0,45,46
 661 557 661 557 669 548.5 c 128,-1,47
 677 540 677 540 677 528 c 256,48,49
 677 516 677 516 669 508 c 128,-1,50
 661 500 661 500 648 500 c 0,51,40
 636 500 636 500 628 508 c 128,-1,41
EndSplineSet
EndChar

StartChar: uni093F0930094D_candrabindudeva.alt3
Encoding: 65575 -1 131
Width: 208
GlyphClass: 3
Flags: W
LayerCount: 2
Fore
SplineSet
130 408 m 1,0,-1
 130 0 l 1,1,-1
 75 0 l 1,2,-1
 75 408 l 1,3,-1
 -24 408 l 1,4,-1
 -24 456 l 1,5,-1
 70 456 l 1,6,7
 53 486 53 486 53 521 c 0,8,9
 53 578 53 578 98 613.5 c 128,-1,10
 143 649 143 649 235 649 c 0,11,12
 398 649 398 649 524 555 c 1,13,14
 525 601 525 601 556 627 c 128,-1,15
 587 653 587 653 634 653 c 0,16,17
 663 653 663 653 688 644 c 1,18,-1
 670 595 l 1,19,20
 649 602 649 602 632 602 c 0,21,22
 602 602 602 602 587 589.5 c 128,-1,23
 572 577 572 577 572 545 c 0,24,25
 572 519 572 519 587.5 497 c 128,-1,26
 603 475 603 475 620.5 458 c 128,-1,27
 638 441 638 441 643 436 c 1,28,-1
 575 436 l 1,29,30
 513 515 513 515 427.5 556.5 c 128,-1,31
 342 598 342 598 236 598 c 0,32,33
 170 598 170 598 138.5 576 c 128,-1,34
 107 554 107 554 107 517 c 0,35,36
 107 481 107 481 130 456 c 1,37,-1
 231 456 l 1,38,-1
 231 408 l 1,39,-1
 130 408 l 1,0,-1
698 559.5 m 128,-1,41
 691 567 691 567 691 577 c 256,42,43
 691 587 691 587 698 594.5 c 128,-1,44
 705 602 705 602 716 602 c 256,45,46
 727 602 727 602 734 594.5 c 128,-1,47
 741 587 741 587 741 577 c 256,48,49
 741 567 741 567 734 559.5 c 128,-1,50
 727 552 727 552 716 552 c 256,51,40
 705 552 705 552 698 559.5 c 128,-1,41
653 498 m 128,-1,53
 628 517 628 517 618 550 c 1,54,-1
 653 565 l 1,55,56
 662 541 662 541 678.5 528.5 c 128,-1,57
 695 516 695 516 715 516 c 0,58,59
 736 516 736 516 752 528.5 c 128,-1,60
 768 541 768 541 778 565 c 1,61,-1
 812 549 l 1,62,63
 803 517 803 517 778 498 c 128,-1,64
 753 479 753 479 715 479 c 0,65,52
 678 479 678 479 653 498 c 128,-1,53
EndSplineSet
EndChar

StartChar: uni093F.alt4
Encoding: 65576 -1 132
Width: 208
GlyphClass: 2
Flags: W
LayerCount: 2
Fore
SplineSet
289 590 m 128,-1,1
 338 532 338 532 387 436 c 1,2,-1
 326 436 l 1,3,4
 253 595 253 595 173 595 c 0,5,6
 142 595 142 595 123.5 575 c 128,-1,7
 105 555 105 555 105 525 c 0,8,9
 105 486 105 486 131 456 c 1,10,-1
 231 456 l 1,11,-1
 231 408 l 1,12,-1
 130 408 l 1,13,-1
 130 0 l 1,14,-1
 75 0 l 1,15,-1
 75 408 l 1,16,-1
 -24 408 l 1,17,-1
 -24 456 l 1,18,-1
 71 456 l 1,19,20
 51 489 51 489 51 525 c 0,21,22
 51 578 51 578 85.5 613 c 128,-1,23
 120 648 120 648 176 648 c 0,24,0
 240 648 240 648 289 590 c 128,-1,1
EndSplineSet
Substitution2: "Single Substitution lookup 42 subtable" uni093F0930094D_candrabindudeva.alt4
Substitution2: "Single Substitution lookup 41 subtable" uni093F0930094D0902.alt4
Substitution2: "Single Substitution lookup 40 subtable" uni093F0930094D.alt4
AlternateSubs2: "'aalt' Access All Alternates lookup 1 subtable" uni093F0930094D.alt4 uni093F0930094D0902.alt4 uni093F0930094D_candrabindudeva.alt4
EndChar

StartChar: uni093F0930094D.alt4
Encoding: 65577 -1 133
Width: 208
GlyphClass: 2
Flags: W
LayerCount: 2
Fore
SplineSet
130 408 m 1,0,-1
 130 0 l 1,1,-1
 75 0 l 1,2,-1
 75 408 l 1,3,-1
 -24 408 l 1,4,-1
 -24 456 l 1,5,-1
 71 456 l 1,6,7
 51 489 51 489 51 525 c 0,8,9
 51 578 51 578 88 613 c 128,-1,10
 125 648 125 648 185 648 c 0,11,12
 243 648 243 648 296 588 c 1,13,14
 307 618 307 618 335 633.5 c 128,-1,15
 363 649 363 649 400 649 c 0,16,17
 423 649 423 649 452 638.5 c 128,-1,18
 481 628 481 628 500 615 c 1,19,-1
 473 573 l 1,20,21
 431 598 431 598 395 598 c 0,22,23
 371 598 371 598 354.5 585.5 c 128,-1,24
 338 573 338 573 338 545 c 0,25,26
 338 525 338 525 351 499.5 c 128,-1,27
 364 474 364 474 387 436 c 1,28,-1
 326 436 l 1,29,30
 293 507 293 507 260 551 c 128,-1,31
 227 595 227 595 180 595 c 0,32,33
 149 595 149 595 127 574.5 c 128,-1,34
 105 554 105 554 105 525 c 0,35,36
 105 486 105 486 131 456 c 1,37,-1
 231 456 l 1,38,-1
 231 408 l 1,39,-1
 130 408 l 1,0,-1
EndSplineSet
EndChar

StartChar: uni093F0930094D0902.alt4
Encoding: 65578 -1 134
Width: 208
GlyphClass: 2
Flags: W
LayerCount: 2
Fore
SplineSet
130 408 m 1,0,-1
 130 0 l 1,1,-1
 75 0 l 1,2,-1
 75 408 l 1,3,-1
 -24 408 l 1,4,-1
 -24 456 l 1,5,-1
 71 456 l 1,6,7
 51 489 51 489 51 525 c 0,8,9
 51 578 51 578 88 613 c 128,-1,10
 125 648 125 648 185 648 c 0,11,12
 243 648 243 648 296 588 c 1,13,14
 307 618 307 618 335 633.5 c 128,-1,15
 363 649 363 649 400 649 c 0,16,17
 423 649 423 649 452 638.5 c 128,-1,18
 481 628 481 628 500 615 c 1,19,-1
 473 573 l 1,20,21
 431 598 431 598 395 598 c 0,22,23
 371 598 371 598 354.5 585.5 c 128,-1,24
 338 573 338 573 338 545 c 0,25,26
 338 525 338 525 351 499.5 c 128,-1,27
 364 474 364 474 387 436 c 1,28,-1
 326 436 l 1,29,30
 293 507 293 507 260 551 c 128,-1,31
 227 595 227 595 180 595 c 0,32,33
 149 595 149 595 127 574.5 c 128,-1,34
 105 554 105 554 105 525 c 0,35,36
 105 486 105 486 131 456 c 1,37,-1
 231 456 l 1,38,-1
 231 408 l 1,39,-1
 130 408 l 1,0,-1
389 508 m 128,-1,41
 381 516 381 516 381 528 c 256,42,43
 381 540 381 540 389 548.5 c 128,-1,44
 397 557 397 557 409 557 c 0,45,46
 422 557 422 557 430 548.5 c 128,-1,47
 438 540 438 540 438 528 c 256,48,49
 438 516 438 516 430 508 c 128,-1,50
 422 500 422 500 409 500 c 0,51,40
 397 500 397 500 389 508 c 128,-1,41
EndSplineSet
EndChar

StartChar: uni093F0930094D_candrabindudeva.alt4
Encoding: 65579 -1 135
Width: 208
GlyphClass: 3
Flags: W
LayerCount: 2
Fore
SplineSet
130 408 m 1,0,-1
 130 0 l 1,1,-1
 75 0 l 1,2,-1
 75 408 l 1,3,-1
 -24 408 l 1,4,-1
 -24 456 l 1,5,-1
 71 456 l 1,6,7
 51 489 51 489 51 525 c 0,8,9
 51 578 51 578 88 613 c 128,-1,10
 125 648 125 648 185 648 c 0,11,12
 243 648 243 648 296 588 c 1,13,14
 307 618 307 618 335.5 635.5 c 128,-1,15
 364 653 364 653 400 653 c 0,16,17
 426 653 426 653 453 644 c 1,18,-1
 436 596 l 1,19,20
 417 602 417 602 395 602 c 0,21,22
 372 602 372 602 355 587.5 c 128,-1,23
 338 573 338 573 338 545 c 0,24,25
 338 525 338 525 351 499.5 c 128,-1,26
 364 474 364 474 387 436 c 1,27,-1
 326 436 l 1,28,29
 293 507 293 507 260 551 c 128,-1,30
 227 595 227 595 180 595 c 0,31,32
 149 595 149 595 127 574.5 c 128,-1,33
 105 554 105 554 105 525 c 0,34,35
 105 486 105 486 131 456 c 1,36,-1
 231 456 l 1,37,-1
 231 408 l 1,38,-1
 130 408 l 1,0,-1
463 559.5 m 128,-1,40
 456 567 456 567 456 577 c 256,41,42
 456 587 456 587 463 594.5 c 128,-1,43
 470 602 470 602 481 602 c 256,44,45
 492 602 492 602 499 594.5 c 128,-1,46
 506 587 506 587 506 577 c 256,47,48
 506 567 506 567 499 559.5 c 128,-1,49
 492 552 492 552 481 552 c 256,50,39
 470 552 470 552 463 559.5 c 128,-1,40
418 498 m 128,-1,52
 393 517 393 517 383 550 c 1,53,-1
 418 565 l 1,54,55
 427 541 427 541 443.5 528.5 c 128,-1,56
 460 516 460 516 480 516 c 0,57,58
 501 516 501 516 517 528.5 c 128,-1,59
 533 541 533 541 543 565 c 1,60,-1
 577 549 l 1,61,62
 568 517 568 517 543 498 c 128,-1,63
 518 479 518 479 480 479 c 0,64,51
 443 479 443 479 418 498 c 128,-1,52
EndSplineSet
EndChar

StartChar: uni093F.alt5
Encoding: 65580 -1 136
Width: 208
GlyphClass: 2
Flags: W
LayerCount: 2
Fore
SplineSet
351 625.5 m 128,-1,1
 406 602 406 602 453.5 557 c 128,-1,2
 501 512 501 512 560 436 c 1,3,-1
 492 436 l 1,4,5
 425 521 425 521 367 560 c 128,-1,6
 309 599 309 599 229 599 c 0,7,8
 168 599 168 599 137.5 576.5 c 128,-1,9
 107 554 107 554 107 517 c 256,10,11
 107 480 107 480 131 456 c 1,12,-1
 231 456 l 1,13,-1
 231 408 l 1,14,-1
 130 408 l 1,15,-1
 130 0 l 1,16,-1
 75 0 l 1,17,-1
 75 408 l 1,18,-1
 -24 408 l 1,19,-1
 -24 456 l 1,20,-1
 70 456 l 1,21,22
 53 488 53 488 53 521 c 0,23,24
 53 577 53 577 96.5 613 c 128,-1,25
 140 649 140 649 225 649 c 0,26,0
 296 649 296 649 351 625.5 c 128,-1,1
EndSplineSet
Substitution2: "Single Substitution lookup 42 subtable" uni093F0930094D_candrabindudeva.alt5
Substitution2: "Single Substitution lookup 41 subtable" uni093F0930094D0902.alt5
Substitution2: "Single Substitution lookup 40 subtable" uni093F0930094D.alt5
AlternateSubs2: "'aalt' Access All Alternates lookup 1 subtable" uni093F0930094D.alt5 uni093F0930094D0902.alt5 uni093F0930094D_candrabindudeva.alt5
EndChar

StartChar: uni093F0930094D.alt5
Encoding: 65581 -1 137
Width: 208
GlyphClass: 2
Flags: W
LayerCount: 2
Fore
SplineSet
492 545 m 0,1,2
 492 519 492 519 509 495 c 128,-1,3
 526 471 526 471 541.5 455.5 c 128,-1,4
 557 440 557 440 560 436 c 1,5,-1
 492 436 l 1,6,7
 425 521 425 521 367 560 c 128,-1,8
 309 599 309 599 229 599 c 0,9,10
 168 599 168 599 137.5 576.5 c 128,-1,11
 107 554 107 554 107 517 c 256,12,13
 107 480 107 480 131 456 c 1,14,-1
 231 456 l 1,15,-1
 231 408 l 1,16,-1
 130 408 l 1,17,-1
 130 0 l 1,18,-1
 75 0 l 1,19,-1
 75 408 l 1,20,-1
 -24 408 l 1,21,-1
 -24 456 l 1,22,-1
 70 456 l 1,23,24
 53 488 53 488 53 521 c 0,25,26
 53 577 53 577 96.5 613 c 128,-1,27
 140 649 140 649 225 649 c 0,28,29
 291 649 291 649 343.5 628.5 c 128,-1,30
 396 608 396 608 445 565 c 1,31,32
 450 607 450 607 480 628 c 128,-1,33
 510 649 510 649 554 649 c 0,34,35
 578 649 578 649 607 639 c 128,-1,36
 636 629 636 629 654 615 c 1,37,-1
 626 572 l 1,38,39
 583 597 583 597 549 597 c 0,40,0
 492 597 492 597 492 545 c 0,1,2
EndSplineSet
EndChar

StartChar: uni093F0930094D0902.alt5
Encoding: 65582 -1 138
Width: 208
GlyphClass: 2
Flags: W
LayerCount: 2
Fore
SplineSet
607 639 m 128,-1,1
 636 629 636 629 654 615 c 1,2,-1
 626 572 l 1,3,4
 583 597 583 597 549 597 c 0,5,6
 492 597 492 597 492 545 c 0,7,8
 492 519 492 519 509 495 c 128,-1,9
 526 471 526 471 541.5 455.5 c 128,-1,10
 557 440 557 440 560 436 c 1,11,-1
 492 436 l 1,12,13
 425 521 425 521 367 560 c 128,-1,14
 309 599 309 599 229 599 c 0,15,16
 168 599 168 599 137.5 576.5 c 128,-1,17
 107 554 107 554 107 517 c 256,18,19
 107 480 107 480 131 456 c 1,20,-1
 231 456 l 1,21,-1
 231 408 l 1,22,-1
 130 408 l 1,23,-1
 130 0 l 1,24,-1
 75 0 l 1,25,-1
 75 408 l 1,26,-1
 -24 408 l 1,27,-1
 -24 456 l 1,28,-1
 70 456 l 1,29,30
 53 488 53 488 53 521 c 0,31,32
 53 577 53 577 96.5 613 c 128,-1,33
 140 649 140 649 225 649 c 0,34,35
 291 649 291 649 343.5 628.5 c 128,-1,36
 396 608 396 608 445 565 c 1,37,38
 450 607 450 607 480 628 c 128,-1,39
 510 649 510 649 554 649 c 0,40,0
 578 649 578 649 607 639 c 128,-1,1
584 548.5 m 128,-1,42
 592 540 592 540 592 528 c 256,43,44
 592 516 592 516 584 508 c 128,-1,45
 576 500 576 500 563 500 c 0,46,47
 551 500 551 500 543 508 c 128,-1,48
 535 516 535 516 535 528 c 256,49,50
 535 540 535 540 543 548.5 c 128,-1,51
 551 557 551 557 563 557 c 0,52,41
 576 557 576 557 584 548.5 c 128,-1,42
EndSplineSet
EndChar

StartChar: uni093F0930094D_candrabindudeva.alt5
Encoding: 65583 -1 139
Width: 208
GlyphClass: 3
Flags: W
LayerCount: 2
Fore
SplineSet
492 548 m 0,1,2
 492 522 492 522 509 497 c 128,-1,3
 526 472 526 472 541.5 456 c 128,-1,4
 557 440 557 440 560 436 c 1,5,-1
 492 436 l 1,6,7
 425 521 425 521 367 560 c 128,-1,8
 309 599 309 599 229 599 c 0,9,10
 168 599 168 599 137.5 576.5 c 128,-1,11
 107 554 107 554 107 517 c 256,12,13
 107 480 107 480 131 456 c 1,14,-1
 231 456 l 1,15,-1
 231 408 l 1,16,-1
 130 408 l 1,17,-1
 130 0 l 1,18,-1
 75 0 l 1,19,-1
 75 408 l 1,20,-1
 -24 408 l 1,21,-1
 -24 456 l 1,22,-1
 70 456 l 1,23,24
 53 488 53 488 53 521 c 0,25,26
 53 577 53 577 96.5 613 c 128,-1,27
 140 649 140 649 225 649 c 0,28,29
 291 649 291 649 343.5 628.5 c 128,-1,30
 396 608 396 608 445 565 c 1,31,32
 450 607 450 607 480.5 630.5 c 128,-1,33
 511 654 511 654 554 654 c 0,34,35
 582 654 582 654 609 645 c 1,36,-1
 591 596 l 1,37,38
 573 602 573 602 553 602 c 0,39,0
 492 602 492 602 492 548 c 0,1,2
618 559.5 m 128,-1,41
 611 567 611 567 611 577 c 256,42,43
 611 587 611 587 618 594.5 c 128,-1,44
 625 602 625 602 636 602 c 256,45,46
 647 602 647 602 654 594.5 c 128,-1,47
 661 587 661 587 661 577 c 256,48,49
 661 567 661 567 654 559.5 c 128,-1,50
 647 552 647 552 636 552 c 256,51,40
 625 552 625 552 618 559.5 c 128,-1,41
698 498 m 128,-1,53
 673 479 673 479 635 479 c 0,54,55
 598 479 598 479 573 498 c 128,-1,56
 548 517 548 517 538 550 c 1,57,-1
 573 565 l 1,58,59
 582 541 582 541 598.5 528.5 c 128,-1,60
 615 516 615 516 635 516 c 0,61,62
 656 516 656 516 672 528.5 c 128,-1,63
 688 541 688 541 698 565 c 1,64,-1
 732 549 l 1,65,52
 723 517 723 517 698 498 c 128,-1,53
EndSplineSet
EndChar

StartChar: uni093F.alt6
Encoding: 65584 -1 140
Width: 208
GlyphClass: 2
Flags: W
LayerCount: 2
Fore
SplineSet
480 594 m 128,-1,1
 585 539 585 539 665 436 c 1,2,-1
 592 436 l 1,3,4
 532 512 532 512 444 554 c 128,-1,5
 356 596 356 596 264 596 c 0,6,7
 185 596 185 596 146.5 575 c 128,-1,8
 108 554 108 554 108 517 c 0,9,10
 108 481 108 481 131 456 c 1,11,-1
 231 456 l 1,12,-1
 231 408 l 1,13,-1
 130 408 l 1,14,-1
 130 0 l 1,15,-1
 75 0 l 1,16,-1
 75 408 l 1,17,-1
 -24 408 l 1,18,-1
 -24 456 l 1,19,-1
 70 456 l 1,20,21
 53 488 53 488 53 520 c 0,22,23
 53 577 53 577 106 613 c 128,-1,24
 159 649 159 649 266 649 c 0,25,0
 375 649 375 649 480 594 c 128,-1,1
EndSplineSet
Substitution2: "Single Substitution lookup 42 subtable" uni093F0930094D_candrabindudeva.alt6
Substitution2: "Single Substitution lookup 41 subtable" uni093F0930094D0902.alt6
Substitution2: "Single Substitution lookup 40 subtable" uni093F0930094D.alt6
AlternateSubs2: "'aalt' Access All Alternates lookup 1 subtable" uni093F0930094D.alt6 uni093F0930094D0902.alt6 uni093F0930094D_candrabindudeva.alt6
EndChar

StartChar: uni093F0930094D.alt6
Encoding: 65585 -1 141
Width: 208
GlyphClass: 2
Flags: W
LayerCount: 2
Fore
SplineSet
130 408 m 1,0,-1
 130 0 l 1,1,-1
 75 0 l 1,2,-1
 75 408 l 1,3,-1
 -24 408 l 1,4,-1
 -24 456 l 1,5,-1
 70 456 l 1,6,7
 53 484 53 484 53 520 c 0,8,9
 53 577 53 577 106 613 c 128,-1,10
 159 649 159 649 266 649 c 0,11,12
 338 649 338 649 409 625 c 128,-1,13
 480 601 480 601 545 554 c 1,14,15
 546 599 546 599 576 624 c 128,-1,16
 606 649 606 649 652 649 c 0,17,18
 680 649 680 649 707.5 639.5 c 128,-1,19
 735 630 735 630 755 615 c 1,20,-1
 728 573 l 1,21,22
 686 600 686 600 655 600 c 0,23,24
 631 600 631 600 613 588 c 128,-1,25
 595 576 595 576 595 548 c 0,26,27
 595 521 595 521 612.5 496 c 128,-1,28
 630 471 630 471 661 436 c 1,29,-1
 592 436 l 1,30,31
 532 512 532 512 444 554 c 128,-1,32
 356 596 356 596 264 596 c 0,33,34
 185 596 185 596 146.5 575 c 128,-1,35
 108 554 108 554 108 517 c 0,36,37
 108 481 108 481 131 456 c 1,38,-1
 231 456 l 1,39,-1
 231 408 l 1,40,-1
 130 408 l 1,0,-1
EndSplineSet
EndChar

StartChar: uni093F0930094D0902.alt6
Encoding: 65586 -1 142
Width: 208
GlyphClass: 2
Flags: W
LayerCount: 2
Fore
SplineSet
130 408 m 1,0,-1
 130 0 l 1,1,-1
 75 0 l 1,2,-1
 75 408 l 1,3,-1
 -24 408 l 1,4,-1
 -24 456 l 1,5,-1
 70 456 l 1,6,7
 53 484 53 484 53 520 c 0,8,9
 53 577 53 577 106 613 c 128,-1,10
 159 649 159 649 266 649 c 0,11,12
 338 649 338 649 409 625 c 128,-1,13
 480 601 480 601 545 554 c 1,14,15
 546 599 546 599 576 624 c 128,-1,16
 606 649 606 649 652 649 c 0,17,18
 680 649 680 649 707.5 639.5 c 128,-1,19
 735 630 735 630 755 615 c 1,20,-1
 728 573 l 1,21,22
 686 600 686 600 655 600 c 0,23,24
 631 600 631 600 613 588 c 128,-1,25
 595 576 595 576 595 548 c 0,26,27
 595 521 595 521 612.5 496 c 128,-1,28
 630 471 630 471 661 436 c 1,29,-1
 592 436 l 1,30,31
 532 512 532 512 444 554 c 128,-1,32
 356 596 356 596 264 596 c 0,33,34
 185 596 185 596 146.5 575 c 128,-1,35
 108 554 108 554 108 517 c 0,36,37
 108 481 108 481 131 456 c 1,38,-1
 231 456 l 1,39,-1
 231 408 l 1,40,-1
 130 408 l 1,0,-1
649 508 m 128,-1,42
 641 516 641 516 641 528 c 256,43,44
 641 540 641 540 649 548.5 c 128,-1,45
 657 557 657 557 669 557 c 0,46,47
 682 557 682 557 690 548.5 c 128,-1,48
 698 540 698 540 698 528 c 256,49,50
 698 516 698 516 690 508 c 128,-1,51
 682 500 682 500 669 500 c 0,52,41
 657 500 657 500 649 508 c 128,-1,42
EndSplineSet
EndChar

StartChar: uni093F0930094D_candrabindudeva.alt6
Encoding: 65587 -1 143
Width: 208
GlyphClass: 3
Flags: W
LayerCount: 2
Fore
SplineSet
130 408 m 1,0,-1
 130 0 l 1,1,-1
 75 0 l 1,2,-1
 75 408 l 1,3,-1
 -24 408 l 1,4,-1
 -24 456 l 1,5,-1
 70 456 l 1,6,7
 53 484 53 484 53 520 c 0,8,9
 53 577 53 577 106 613 c 128,-1,10
 159 649 159 649 266 649 c 0,11,12
 338 649 338 649 409 625 c 128,-1,13
 480 601 480 601 545 554 c 1,14,15
 546 599 546 599 575.5 624 c 128,-1,16
 605 649 605 649 650 649 c 0,17,18
 686 649 686 649 708 639 c 1,19,-1
 692 593 l 1,20,21
 673 600 673 600 655 600 c 0,22,23
 631 600 631 600 613 588 c 128,-1,24
 595 576 595 576 595 548 c 0,25,26
 595 521 595 521 612.5 496 c 128,-1,27
 630 471 630 471 661 436 c 1,28,-1
 592 436 l 1,29,30
 532 512 532 512 444 554 c 128,-1,31
 356 596 356 596 264 596 c 0,32,33
 185 596 185 596 146.5 575 c 128,-1,34
 108 554 108 554 108 517 c 0,35,36
 108 481 108 481 131 456 c 1,37,-1
 231 456 l 1,38,-1
 231 408 l 1,39,-1
 130 408 l 1,0,-1
720 559.5 m 128,-1,41
 713 567 713 567 713 577 c 256,42,43
 713 587 713 587 720 594.5 c 128,-1,44
 727 602 727 602 738 602 c 256,45,46
 749 602 749 602 756 594.5 c 128,-1,47
 763 587 763 587 763 577 c 256,48,49
 763 567 763 567 756 559.5 c 128,-1,50
 749 552 749 552 738 552 c 256,51,40
 727 552 727 552 720 559.5 c 128,-1,41
675 498 m 128,-1,53
 650 517 650 517 640 550 c 1,54,-1
 675 565 l 1,55,56
 684 541 684 541 700.5 528.5 c 128,-1,57
 717 516 717 516 737 516 c 0,58,59
 758 516 758 516 774 528.5 c 128,-1,60
 790 541 790 541 800 565 c 1,61,-1
 834 549 l 1,62,63
 825 517 825 517 800 498 c 128,-1,64
 775 479 775 479 737 479 c 0,65,52
 700 479 700 479 675 498 c 128,-1,53
EndSplineSet
EndChar

StartChar: uni093F.alt8
Encoding: 65588 -1 144
Width: 208
GlyphClass: 2
Flags: W
LayerCount: 2
Fore
SplineSet
536.5 596 m 128,-1,1
 647 543 647 543 739 436 c 1,2,-1
 665 436 l 1,3,4
 585 524 585 524 487 560 c 128,-1,5
 389 596 389 596 274 596 c 0,6,7
 188 596 188 596 148 575 c 128,-1,8
 108 554 108 554 108 517 c 0,9,10
 108 481 108 481 131 456 c 1,11,-1
 231 456 l 1,12,-1
 231 408 l 1,13,-1
 130 408 l 1,14,-1
 130 0 l 1,15,-1
 75 0 l 1,16,-1
 75 408 l 1,17,-1
 -24 408 l 1,18,-1
 -24 456 l 1,19,-1
 70 456 l 1,20,21
 53 488 53 488 53 520 c 0,22,23
 53 577 53 577 107.5 613 c 128,-1,24
 162 649 162 649 276 649 c 0,25,0
 426 649 426 649 536.5 596 c 128,-1,1
EndSplineSet
Substitution2: "Single Substitution lookup 42 subtable" uni093F0930094D_candrabindudeva.alt8
Substitution2: "Single Substitution lookup 41 subtable" uni093F0930094D0902.alt8
Substitution2: "Single Substitution lookup 40 subtable" uni093F0930094D.alt8
AlternateSubs2: "'aalt' Access All Alternates lookup 1 subtable" uni093F0930094D.alt8 uni093F0930094D0902.alt8 uni093F0930094D_candrabindudeva.alt8
EndChar

StartChar: uni093F0930094D.alt8
Encoding: 65589 -1 145
Width: 208
GlyphClass: 2
Flags: W
LayerCount: 2
Fore
SplineSet
130 408 m 1,0,-1
 130 0 l 1,1,-1
 75 0 l 1,2,-1
 75 408 l 1,3,-1
 -24 408 l 1,4,-1
 -24 456 l 1,5,-1
 70 456 l 1,6,7
 53 484 53 484 53 520 c 0,8,9
 53 577 53 577 107.5 613 c 128,-1,10
 162 649 162 649 276 649 c 0,11,12
 378 649 378 649 461 624 c 128,-1,13
 544 599 544 599 615 550 c 1,14,-1
 615 552 l 2,15,16
 615 599 615 599 646 623.5 c 128,-1,17
 677 648 677 648 725 648 c 0,18,19
 753 648 753 648 780 639 c 128,-1,20
 807 630 807 630 826 616 c 1,21,-1
 798 573 l 1,22,23
 784 583 784 583 762.5 590.5 c 128,-1,24
 741 598 741 598 719 598 c 0,25,26
 663 598 663 598 663 545 c 0,27,28
 663 518 663 518 684 493.5 c 128,-1,29
 705 469 705 469 739 436 c 1,30,-1
 665 436 l 1,31,32
 585 524 585 524 487 560 c 128,-1,33
 389 596 389 596 274 596 c 0,34,35
 188 596 188 596 148 575 c 128,-1,36
 108 554 108 554 108 517 c 0,37,38
 108 481 108 481 131 456 c 1,39,-1
 231 456 l 1,40,-1
 231 408 l 1,41,-1
 130 408 l 1,0,-1
EndSplineSet
EndChar

StartChar: uni093F0930094D0902.alt8
Encoding: 65590 -1 146
Width: 208
GlyphClass: 2
Flags: W
LayerCount: 2
Fore
SplineSet
130 408 m 1,0,-1
 130 0 l 1,1,-1
 75 0 l 1,2,-1
 75 408 l 1,3,-1
 -24 408 l 1,4,-1
 -24 456 l 1,5,-1
 70 456 l 1,6,7
 53 484 53 484 53 520 c 0,8,9
 53 577 53 577 107.5 613 c 128,-1,10
 162 649 162 649 276 649 c 0,11,12
 378 649 378 649 461 624 c 128,-1,13
 544 599 544 599 615 550 c 1,14,-1
 615 552 l 2,15,16
 615 599 615 599 646 623.5 c 128,-1,17
 677 648 677 648 725 648 c 0,18,19
 753 648 753 648 780 639 c 128,-1,20
 807 630 807 630 826 616 c 1,21,-1
 798 573 l 1,22,23
 784 583 784 583 762.5 590.5 c 128,-1,24
 741 598 741 598 719 598 c 0,25,26
 663 598 663 598 663 545 c 0,27,28
 663 518 663 518 684 493.5 c 128,-1,29
 705 469 705 469 739 436 c 1,30,-1
 665 436 l 1,31,32
 585 524 585 524 487 560 c 128,-1,33
 389 596 389 596 274 596 c 0,34,35
 188 596 188 596 148 575 c 128,-1,36
 108 554 108 554 108 517 c 0,37,38
 108 481 108 481 131 456 c 1,39,-1
 231 456 l 1,40,-1
 231 408 l 1,41,-1
 130 408 l 1,0,-1
719 508 m 128,-1,43
 711 516 711 516 711 528 c 256,44,45
 711 540 711 540 719 548.5 c 128,-1,46
 727 557 727 557 739 557 c 0,47,48
 752 557 752 557 760 548.5 c 128,-1,49
 768 540 768 540 768 528 c 256,50,51
 768 516 768 516 760 508 c 128,-1,52
 752 500 752 500 739 500 c 0,53,42
 727 500 727 500 719 508 c 128,-1,43
EndSplineSet
EndChar

StartChar: uni093F0930094D_candrabindudeva.alt8
Encoding: 65591 -1 147
Width: 208
GlyphClass: 3
Flags: W
LayerCount: 2
Fore
SplineSet
130 408 m 1,0,-1
 130 0 l 1,1,-1
 75 0 l 1,2,-1
 75 408 l 1,3,-1
 -24 408 l 1,4,-1
 -24 456 l 1,5,-1
 70 456 l 1,6,7
 53 484 53 484 53 520 c 0,8,9
 53 577 53 577 107.5 613 c 128,-1,10
 162 649 162 649 276 649 c 0,11,12
 378 649 378 649 461 624 c 128,-1,13
 544 599 544 599 615 550 c 1,14,-1
 615 552 l 2,15,16
 615 599 615 599 646 626 c 128,-1,17
 677 653 677 653 725 653 c 0,18,19
 752 653 752 653 779 643 c 1,20,-1
 763 595 l 1,21,22
 740 602 740 602 723 602 c 0,23,24
 698 602 698 602 680.5 588.5 c 128,-1,25
 663 575 663 575 663 545 c 0,26,27
 663 518 663 518 684 493.5 c 128,-1,28
 705 469 705 469 739 436 c 1,29,-1
 665 436 l 1,30,31
 585 524 585 524 487 560 c 128,-1,32
 389 596 389 596 274 596 c 0,33,34
 188 596 188 596 148 575 c 128,-1,35
 108 554 108 554 108 517 c 0,36,37
 108 481 108 481 131 456 c 1,38,-1
 231 456 l 1,39,-1
 231 408 l 1,40,-1
 130 408 l 1,0,-1
789 559.5 m 128,-1,42
 782 567 782 567 782 577 c 256,43,44
 782 587 782 587 789 594.5 c 128,-1,45
 796 602 796 602 807 602 c 256,46,47
 818 602 818 602 825 594.5 c 128,-1,48
 832 587 832 587 832 577 c 256,49,50
 832 567 832 567 825 559.5 c 128,-1,51
 818 552 818 552 807 552 c 256,52,41
 796 552 796 552 789 559.5 c 128,-1,42
744 498 m 128,-1,54
 719 517 719 517 709 550 c 1,55,-1
 744 565 l 1,56,57
 753 541 753 541 769.5 528.5 c 128,-1,58
 786 516 786 516 806 516 c 0,59,60
 827 516 827 516 843 528.5 c 128,-1,61
 859 541 859 541 869 565 c 1,62,-1
 903 549 l 1,63,64
 894 517 894 517 869 498 c 128,-1,65
 844 479 844 479 806 479 c 0,66,53
 769 479 769 479 744 498 c 128,-1,54
EndSplineSet
EndChar

StartChar: uni093F.alt9
Encoding: 65592 -1 148
Width: 208
GlyphClass: 2
Flags: W
LayerCount: 2
Fore
SplineSet
409 598.5 m 128,-1,1
 491 546 491 546 576 436 c 1,2,-1
 508 436 l 1,3,4
 444 518 444 518 377.5 558.5 c 128,-1,5
 311 599 311 599 229 599 c 0,6,7
 169 599 169 599 138 578 c 128,-1,8
 107 557 107 557 107 527 c 0,9,10
 107 485 107 485 132 456 c 1,11,-1
 231 456 l 1,12,-1
 231 408 l 1,13,-1
 130 408 l 1,14,-1
 130 0 l 1,15,-1
 75 0 l 1,16,-1
 75 408 l 1,17,-1
 -24 408 l 1,18,-1
 -24 456 l 1,19,-1
 72 456 l 1,20,21
 53 488 53 488 53 530 c 0,22,23
 53 561 53 561 71.5 588.5 c 128,-1,24
 90 616 90 616 129 633.5 c 128,-1,25
 168 651 168 651 225 651 c 0,26,0
 327 651 327 651 409 598.5 c 128,-1,1
EndSplineSet
Substitution2: "Single Substitution lookup 42 subtable" uni093F0930094D_candrabindudeva.alt9
Substitution2: "Single Substitution lookup 41 subtable" uni093F0930094D0902.alt9
Substitution2: "Single Substitution lookup 40 subtable" uni093F0930094D.alt9
AlternateSubs2: "'aalt' Access All Alternates lookup 1 subtable" uni093F0930094D.alt9 uni093F0930094D0902.alt9 uni093F0930094D_candrabindudeva.alt9
EndChar

StartChar: uni093F0930094D.alt9
Encoding: 65593 -1 149
Width: 208
GlyphClass: 2
Flags: W
LayerCount: 2
Fore
SplineSet
130 408 m 1,0,-1
 130 0 l 1,1,-1
 75 0 l 1,2,-1
 75 408 l 1,3,-1
 -24 408 l 1,4,-1
 -24 456 l 1,5,-1
 71 456 l 1,6,7
 53 490 53 490 53 530 c 0,8,9
 53 561 53 561 71.5 588.5 c 128,-1,10
 90 616 90 616 129 633.5 c 128,-1,11
 168 651 168 651 225 651 c 0,12,13
 352 651 352 651 458 562 c 1,14,15
 462 604 462 604 492.5 626.5 c 128,-1,16
 523 649 523 649 568 649 c 0,17,18
 592 649 592 649 621 639 c 128,-1,19
 650 629 650 629 668 615 c 1,20,-1
 641 573 l 1,21,22
 598 598 598 598 567 598 c 0,23,24
 506 598 506 598 506 545 c 0,25,26
 506 520 506 520 522.5 496.5 c 128,-1,27
 539 473 539 473 555.5 456.5 c 128,-1,28
 572 440 572 440 576 436 c 1,29,-1
 508 436 l 1,30,31
 444 518 444 518 377.5 558.5 c 128,-1,32
 311 599 311 599 229 599 c 0,33,34
 169 599 169 599 138 578 c 128,-1,35
 107 557 107 557 107 527 c 0,36,37
 107 485 107 485 132 456 c 1,38,-1
 231 456 l 1,39,-1
 231 408 l 1,40,-1
 130 408 l 1,0,-1
EndSplineSet
EndChar

StartChar: uni093F0930094D0902.alt9
Encoding: 65594 -1 150
Width: 208
GlyphClass: 2
Flags: W
LayerCount: 2
Fore
SplineSet
130 408 m 1,0,-1
 130 0 l 1,1,-1
 75 0 l 1,2,-1
 75 408 l 1,3,-1
 -24 408 l 1,4,-1
 -24 456 l 1,5,-1
 71 456 l 1,6,7
 53 490 53 490 53 530 c 0,8,9
 53 561 53 561 71.5 588.5 c 128,-1,10
 90 616 90 616 129 633.5 c 128,-1,11
 168 651 168 651 225 651 c 0,12,13
 352 651 352 651 458 562 c 1,14,15
 462 604 462 604 492.5 626.5 c 128,-1,16
 523 649 523 649 568 649 c 0,17,18
 592 649 592 649 621 639 c 128,-1,19
 650 629 650 629 668 615 c 1,20,-1
 641 573 l 1,21,22
 598 598 598 598 567 598 c 0,23,24
 506 598 506 598 506 545 c 0,25,26
 506 520 506 520 522.5 496.5 c 128,-1,27
 539 473 539 473 555.5 456.5 c 128,-1,28
 572 440 572 440 576 436 c 1,29,-1
 508 436 l 1,30,31
 444 518 444 518 377.5 558.5 c 128,-1,32
 311 599 311 599 229 599 c 0,33,34
 169 599 169 599 138 578 c 128,-1,35
 107 557 107 557 107 527 c 0,36,37
 107 485 107 485 132 456 c 1,38,-1
 231 456 l 1,39,-1
 231 408 l 1,40,-1
 130 408 l 1,0,-1
560 508 m 128,-1,42
 552 516 552 516 552 528 c 256,43,44
 552 540 552 540 560 548.5 c 128,-1,45
 568 557 568 557 580 557 c 0,46,47
 593 557 593 557 601 548.5 c 128,-1,48
 609 540 609 540 609 528 c 256,49,50
 609 516 609 516 601 508 c 128,-1,51
 593 500 593 500 580 500 c 0,52,41
 568 500 568 500 560 508 c 128,-1,42
EndSplineSet
EndChar

StartChar: uni093F0930094D_candrabindudeva.alt9
Encoding: 65595 -1 151
Width: 208
GlyphClass: 3
Flags: W
LayerCount: 2
Fore
SplineSet
130 408 m 1,0,-1
 130 0 l 1,1,-1
 75 0 l 1,2,-1
 75 408 l 1,3,-1
 -24 408 l 1,4,-1
 -24 456 l 1,5,-1
 71 456 l 1,6,7
 53 490 53 490 53 530 c 0,8,9
 53 561 53 561 71.5 588.5 c 128,-1,10
 90 616 90 616 129 633.5 c 128,-1,11
 168 651 168 651 225 651 c 0,12,13
 352 651 352 651 458 562 c 1,14,15
 462 605 462 605 491 629 c 128,-1,16
 520 653 520 653 564 653 c 0,17,18
 596 653 596 653 622 644 c 1,19,-1
 605 596 l 1,20,21
 586 602 586 602 567 602 c 0,22,23
 506 602 506 602 506 545 c 0,24,25
 506 520 506 520 522.5 496.5 c 128,-1,26
 539 473 539 473 555.5 456.5 c 128,-1,27
 572 440 572 440 576 436 c 1,28,-1
 508 436 l 1,29,30
 444 518 444 518 377.5 558.5 c 128,-1,31
 311 599 311 599 229 599 c 0,32,33
 169 599 169 599 138 578 c 128,-1,34
 107 557 107 557 107 527 c 0,35,36
 107 485 107 485 132 456 c 1,37,-1
 231 456 l 1,38,-1
 231 408 l 1,39,-1
 130 408 l 1,0,-1
632 559.5 m 128,-1,41
 625 567 625 567 625 577 c 256,42,43
 625 587 625 587 632 594.5 c 128,-1,44
 639 602 639 602 650 602 c 256,45,46
 661 602 661 602 668 594.5 c 128,-1,47
 675 587 675 587 675 577 c 256,48,49
 675 567 675 567 668 559.5 c 128,-1,50
 661 552 661 552 650 552 c 256,51,40
 639 552 639 552 632 559.5 c 128,-1,41
587 498 m 128,-1,53
 562 517 562 517 552 550 c 1,54,-1
 587 565 l 1,55,56
 596 541 596 541 612.5 528.5 c 128,-1,57
 629 516 629 516 649 516 c 0,58,59
 670 516 670 516 686 528.5 c 128,-1,60
 702 541 702 541 712 565 c 1,61,-1
 746 549 l 1,62,63
 737 517 737 517 712 498 c 128,-1,64
 687 479 687 479 649 479 c 0,65,52
 612 479 612 479 587 498 c 128,-1,53
EndSplineSet
EndChar

StartChar: uni093F.alt10
Encoding: 65596 -1 152
Width: 208
GlyphClass: 2
Flags: W
LayerCount: 2
Fore
SplineSet
442.5 625 m 128,-1,1
 514 601 514 601 572 556 c 128,-1,2
 630 511 630 511 699 436 c 1,3,-1
 628 436 l 1,4,5
 546 526 546 526 464.5 561 c 128,-1,6
 383 596 383 596 274 596 c 0,7,8
 188 596 188 596 148 575 c 128,-1,9
 108 554 108 554 108 517 c 0,10,11
 108 481 108 481 131 456 c 1,12,-1
 231 456 l 1,13,-1
 231 408 l 1,14,-1
 130 408 l 1,15,-1
 130 0 l 1,16,-1
 75 0 l 1,17,-1
 75 408 l 1,18,-1
 -24 408 l 1,19,-1
 -24 456 l 1,20,-1
 70 456 l 1,21,22
 53 488 53 488 53 520 c 0,23,24
 53 577 53 577 107.5 613 c 128,-1,25
 162 649 162 649 276 649 c 0,26,0
 371 649 371 649 442.5 625 c 128,-1,1
EndSplineSet
Substitution2: "Single Substitution lookup 42 subtable" uni093F0930094D_candrabindudeva.alt10
Substitution2: "Single Substitution lookup 41 subtable" uni093F0930094D0902.alt10
Substitution2: "Single Substitution lookup 40 subtable" uni093F0930094D.alt10
AlternateSubs2: "'aalt' Access All Alternates lookup 1 subtable" uni093F0930094D.alt10 uni093F0930094D0902.alt10 uni093F0930094D_candrabindudeva.alt10
EndChar

StartChar: uni093F0930094D.alt10
Encoding: 65597 -1 153
Width: 208
GlyphClass: 2
Flags: W
LayerCount: 2
Fore
SplineSet
130 408 m 1,0,-1
 130 0 l 1,1,-1
 75 0 l 1,2,-1
 75 408 l 1,3,-1
 -24 408 l 1,4,-1
 -24 456 l 1,5,-1
 70 456 l 1,6,7
 53 484 53 484 53 520 c 0,8,9
 53 577 53 577 107.5 613 c 128,-1,10
 162 649 162 649 276 649 c 0,11,12
 369 649 369 649 440 625.5 c 128,-1,13
 511 602 511 602 574 555 c 1,14,15
 575 600 575 600 606 624.5 c 128,-1,16
 637 649 637 649 684 649 c 0,17,18
 708 649 708 649 737 639 c 128,-1,19
 766 629 766 629 784 615 c 1,20,-1
 758 572 l 1,21,22
 714 598 714 598 682 598 c 0,23,24
 622 598 622 598 622 545 c 0,25,26
 622 518 622 518 641 495 c 128,-1,27
 660 472 660 472 699 436 c 1,28,-1
 628 436 l 1,29,30
 546 526 546 526 464.5 561 c 128,-1,31
 383 596 383 596 274 596 c 0,32,33
 188 596 188 596 148 575 c 128,-1,34
 108 554 108 554 108 517 c 0,35,36
 108 481 108 481 131 456 c 1,37,-1
 231 456 l 1,38,-1
 231 408 l 1,39,-1
 130 408 l 1,0,-1
EndSplineSet
EndChar

StartChar: uni093F0930094D0902.alt10
Encoding: 65598 -1 154
Width: 208
GlyphClass: 2
Flags: W
LayerCount: 2
Fore
SplineSet
130 408 m 1,0,-1
 130 0 l 1,1,-1
 75 0 l 1,2,-1
 75 408 l 1,3,-1
 -24 408 l 1,4,-1
 -24 456 l 1,5,-1
 70 456 l 1,6,7
 53 484 53 484 53 520 c 0,8,9
 53 577 53 577 107.5 613 c 128,-1,10
 162 649 162 649 276 649 c 0,11,12
 369 649 369 649 440 625.5 c 128,-1,13
 511 602 511 602 574 555 c 1,14,15
 575 600 575 600 606 624.5 c 128,-1,16
 637 649 637 649 684 649 c 0,17,18
 708 649 708 649 737 639 c 128,-1,19
 766 629 766 629 784 615 c 1,20,-1
 758 572 l 1,21,22
 714 598 714 598 682 598 c 0,23,24
 622 598 622 598 622 545 c 0,25,26
 622 518 622 518 641 495 c 128,-1,27
 660 472 660 472 699 436 c 1,28,-1
 628 436 l 1,29,30
 546 526 546 526 464.5 561 c 128,-1,31
 383 596 383 596 274 596 c 0,32,33
 188 596 188 596 148 575 c 128,-1,34
 108 554 108 554 108 517 c 0,35,36
 108 481 108 481 131 456 c 1,37,-1
 231 456 l 1,38,-1
 231 408 l 1,39,-1
 130 408 l 1,0,-1
677 508 m 128,-1,41
 669 516 669 516 669 528 c 256,42,43
 669 540 669 540 677 548.5 c 128,-1,44
 685 557 685 557 697 557 c 0,45,46
 710 557 710 557 718 548.5 c 128,-1,47
 726 540 726 540 726 528 c 256,48,49
 726 516 726 516 718 508 c 128,-1,50
 710 500 710 500 697 500 c 0,51,40
 685 500 685 500 677 508 c 128,-1,41
EndSplineSet
EndChar

StartChar: uni093F0930094D_candrabindudeva.alt10
Encoding: 65599 -1 155
Width: 208
GlyphClass: 3
Flags: W
LayerCount: 2
Fore
SplineSet
130 408 m 1,0,-1
 130 0 l 1,1,-1
 75 0 l 1,2,-1
 75 408 l 1,3,-1
 -24 408 l 1,4,-1
 -24 456 l 1,5,-1
 70 456 l 1,6,7
 53 484 53 484 53 520 c 0,8,9
 53 577 53 577 107.5 613 c 128,-1,10
 162 649 162 649 276 649 c 0,11,12
 369 649 369 649 440 625.5 c 128,-1,13
 511 602 511 602 574 555 c 1,14,15
 575 601 575 601 606 627 c 128,-1,16
 637 653 637 653 684 653 c 0,17,18
 715 653 715 653 738 644 c 1,19,-1
 721 596 l 1,20,21
 701 602 701 602 682 602 c 0,22,23
 655 602 655 602 638.5 590 c 128,-1,24
 622 578 622 578 622 545 c 0,25,26
 622 522 622 522 638.5 500.5 c 128,-1,27
 655 479 655 479 673.5 461 c 128,-1,28
 692 443 692 443 699 436 c 1,29,-1
 628 436 l 1,30,31
 546 526 546 526 464.5 561 c 128,-1,32
 383 596 383 596 274 596 c 0,33,34
 188 596 188 596 148 575 c 128,-1,35
 108 554 108 554 108 517 c 0,36,37
 108 481 108 481 131 456 c 1,38,-1
 231 456 l 1,39,-1
 231 408 l 1,40,-1
 130 408 l 1,0,-1
748 559.5 m 128,-1,42
 741 567 741 567 741 577 c 256,43,44
 741 587 741 587 748 594.5 c 128,-1,45
 755 602 755 602 766 602 c 256,46,47
 777 602 777 602 784 594.5 c 128,-1,48
 791 587 791 587 791 577 c 256,49,50
 791 567 791 567 784 559.5 c 128,-1,51
 777 552 777 552 766 552 c 256,52,41
 755 552 755 552 748 559.5 c 128,-1,42
703 498 m 128,-1,54
 678 517 678 517 668 550 c 1,55,-1
 703 565 l 1,56,57
 712 541 712 541 728.5 528.5 c 128,-1,58
 745 516 745 516 765 516 c 0,59,60
 786 516 786 516 802 528.5 c 128,-1,61
 818 541 818 541 828 565 c 1,62,-1
 862 549 l 1,63,64
 853 517 853 517 828 498 c 128,-1,65
 803 479 803 479 765 479 c 0,66,53
 728 479 728 479 703 498 c 128,-1,54
EndSplineSet
EndChar

StartChar: uni093F.alt11
Encoding: 65600 -1 156
Width: 208
GlyphClass: 2
Flags: W
LayerCount: 2
Fore
SplineSet
684.5 585 m 128,-1,1
 894 521 894 521 1071 436 c 1,2,-1
 950 436 l 1,3,4
 822 487 822 487 745 512 c 0,5,6
 489 596 489 596 293 596 c 0,7,8
 108 596 108 596 108 517 c 0,9,10
 108 481 108 481 131 456 c 1,11,-1
 231 456 l 1,12,-1
 231 408 l 1,13,-1
 130 408 l 1,14,-1
 130 0 l 1,15,-1
 75 0 l 1,16,-1
 75 408 l 1,17,-1
 -24 408 l 1,18,-1
 -24 456 l 1,19,-1
 70 456 l 1,20,21
 53 488 53 488 53 521 c 0,22,23
 53 649 53 649 297 649 c 0,24,0
 475 649 475 649 684.5 585 c 128,-1,1
EndSplineSet
Substitution2: "Single Substitution lookup 42 subtable" uni093F0930094D_candrabindudeva.alt11
Substitution2: "Single Substitution lookup 41 subtable" uni093F0930094D0902.alt11
Substitution2: "Single Substitution lookup 40 subtable" uni093F0930094D.alt11
AlternateSubs2: "'aalt' Access All Alternates lookup 1 subtable" uni093F0930094D.alt11 uni093F0930094D0902.alt11 uni093F0930094D_candrabindudeva.alt11
EndChar

StartChar: uni093F0930094D_candrabindudeva.alt11
Encoding: 65603 -1 159
Width: 208
GlyphClass: 3
Flags: W
LayerCount: 2
Fore
SplineSet
981 496.5 m 128,-1,1
 1004 473 1004 473 1042 450 c 1,2,-1
 1071 436 l 1,3,-1
 950 436 l 1,4,5
 822 487 822 487 745 512 c 0,6,7
 489 596 489 596 293 596 c 0,8,9
 108 596 108 596 108 517 c 0,10,11
 108 481 108 481 131 456 c 1,12,-1
 231 456 l 1,13,-1
 231 408 l 1,14,-1
 130 408 l 1,15,-1
 130 0 l 1,16,-1
 75 0 l 1,17,-1
 75 408 l 1,18,-1
 -24 408 l 1,19,-1
 -24 456 l 1,20,-1
 70 456 l 1,21,22
 53 488 53 488 53 521 c 0,23,24
 53 649 53 649 297 649 c 0,25,26
 437 649 437 649 600 607.5 c 128,-1,27
 763 566 763 566 920 502 c 1,28,29
 907 530 907 530 907 557 c 0,30,31
 907 604 907 604 939.5 629 c 128,-1,32
 972 654 972 654 1021 654 c 0,33,34
 1049 654 1049 654 1073 645 c 1,35,-1
 1055 596 l 1,36,37
 1039 602 1039 602 1020 602 c 0,38,39
 958 602 958 602 958 550 c 0,40,0
 958 520 958 520 981 496.5 c 128,-1,1
1085 559.5 m 128,-1,42
 1078 567 1078 567 1078 577 c 256,43,44
 1078 587 1078 587 1085 594.5 c 128,-1,45
 1092 602 1092 602 1103 602 c 256,46,47
 1114 602 1114 602 1121 594.5 c 128,-1,48
 1128 587 1128 587 1128 577 c 256,49,50
 1128 567 1128 567 1121 559.5 c 128,-1,51
 1114 552 1114 552 1103 552 c 256,52,41
 1092 552 1092 552 1085 559.5 c 128,-1,42
1165 498 m 128,-1,54
 1140 479 1140 479 1102 479 c 0,55,56
 1065 479 1065 479 1040 498 c 128,-1,57
 1015 517 1015 517 1005 550 c 1,58,-1
 1040 565 l 1,59,60
 1049 541 1049 541 1065.5 528.5 c 128,-1,61
 1082 516 1082 516 1102 516 c 0,62,63
 1123 516 1123 516 1139 528.5 c 128,-1,64
 1155 541 1155 541 1165 565 c 1,65,-1
 1199 549 l 1,66,53
 1190 517 1190 517 1165 498 c 128,-1,54
EndSplineSet
EndChar

StartChar: uni093F.alt12
Encoding: 65604 -1 160
Width: 208
GlyphClass: 2
Flags: W
LayerCount: 2
Fore
SplineSet
879.5 496.5 m 128,-1,1
 937 461 937 461 969 436 c 1,2,-1
 880 436 l 1,3,4
 820 472 820 472 764.5 500 c 128,-1,5
 709 528 709 528 621 553 c 0,6,7
 474 596 474 596 293 596 c 0,8,9
 108 596 108 596 108 517 c 0,10,11
 108 481 108 481 131 456 c 1,12,-1
 231 456 l 1,13,-1
 231 408 l 1,14,-1
 130 408 l 1,15,-1
 130 0 l 1,16,-1
 75 0 l 1,17,-1
 75 408 l 1,18,-1
 -24 408 l 1,19,-1
 -24 456 l 1,20,-1
 70 456 l 1,21,22
 53 488 53 488 53 521 c 0,23,24
 53 580 53 580 111 614.5 c 128,-1,25
 169 649 169 649 310 649 c 0,26,27
 548 649 548 649 752 562 c 0,28,0
 822 532 822 532 879.5 496.5 c 128,-1,1
EndSplineSet
Substitution2: "Single Substitution lookup 42 subtable" uni093F0930094D_candrabindudeva.alt12
Substitution2: "Single Substitution lookup 41 subtable" uni093F0930094D0902.alt12
Substitution2: "Single Substitution lookup 40 subtable" uni093F0930094D.alt12
AlternateSubs2: "'aalt' Access All Alternates lookup 1 subtable" uni093F0930094D.alt12 uni093F0930094D0902.alt12 uni093F0930094D_candrabindudeva.alt12
EndChar

StartChar: uni093F0930094D.alt12
Encoding: 65605 -1 161
Width: 229
GlyphClass: 2
Flags: W
LayerCount: 2
Fore
SplineSet
130 408 m 1,0,-1
 130 0 l 1,1,-1
 75 0 l 1,2,-1
 75 408 l 1,3,-1
 -24 408 l 1,4,-1
 -24 456 l 1,5,-1
 70 456 l 1,6,7
 53 486 53 486 53 521 c 0,8,9
 53 580 53 580 111 614.5 c 128,-1,10
 169 649 169 649 310 649 c 0,11,12
 548 649 548 649 752 562 c 1,13,-1
 813 532 l 1,14,-1
 812 557 l 2,15,16
 812 603 812 603 845.5 628.5 c 128,-1,17
 879 654 879 654 928 654 c 0,18,19
 978 654 978 654 1029 622 c 1,20,-1
 1001 578 l 1,21,22
 958 602 958 602 927 602 c 0,23,24
 865 602 865 602 865 552 c 0,25,26
 865 518 865 518 890.5 493 c 128,-1,27
 916 468 916 468 965 436 c 1,28,-1
 880 436 l 1,29,30
 820 472 820 472 764.5 500 c 128,-1,31
 709 528 709 528 621 553 c 0,32,33
 474 596 474 596 293 596 c 0,34,35
 108 596 108 596 108 517 c 0,36,37
 108 481 108 481 131 456 c 1,38,-1
 232 456 l 1,39,-1
 232 408 l 1,40,-1
 130 408 l 1,0,-1
EndSplineSet
EndChar

StartChar: uni093F0930094D0902.alt12
Encoding: 65606 -1 162
Width: 208
GlyphClass: 2
Flags: W
LayerCount: 2
Fore
SplineSet
130 408 m 1,0,-1
 130 0 l 1,1,-1
 75 0 l 1,2,-1
 75 408 l 1,3,-1
 -24 408 l 1,4,-1
 -24 456 l 1,5,-1
 70 456 l 1,6,7
 53 486 53 486 53 521 c 0,8,9
 53 580 53 580 111 614.5 c 128,-1,10
 169 649 169 649 310 649 c 0,11,12
 548 649 548 649 752 562 c 1,13,-1
 813 532 l 1,14,-1
 812 557 l 2,15,16
 812 603 812 603 845.5 628.5 c 128,-1,17
 879 654 879 654 928 654 c 0,18,19
 978 654 978 654 1029 622 c 1,20,-1
 1001 578 l 1,21,22
 958 602 958 602 927 602 c 0,23,24
 865 602 865 602 865 552 c 0,25,26
 865 518 865 518 890.5 493 c 128,-1,27
 916 468 916 468 965 436 c 1,28,-1
 880 436 l 1,29,30
 820 472 820 472 764.5 500 c 128,-1,31
 709 528 709 528 621 553 c 0,32,33
 474 596 474 596 293 596 c 0,34,35
 108 596 108 596 108 517 c 0,36,37
 108 481 108 481 131 456 c 1,38,-1
 232 456 l 1,39,-1
 232 408 l 1,40,-1
 130 408 l 1,0,-1
915 520 m 128,-1,42
 907 528 907 528 907 540 c 256,43,44
 907 552 907 552 915 560.5 c 128,-1,45
 923 569 923 569 935 569 c 0,46,47
 948 569 948 569 956 560.5 c 128,-1,48
 964 552 964 552 964 540 c 256,49,50
 964 528 964 528 956 520 c 128,-1,51
 948 512 948 512 935 512 c 0,52,41
 923 512 923 512 915 520 c 128,-1,42
EndSplineSet
EndChar

StartChar: uni093F0930094D_candrabindudeva.alt12
Encoding: 65607 -1 163
Width: 208
GlyphClass: 3
Flags: W
LayerCount: 2
Fore
SplineSet
130 408 m 1,0,-1
 130 0 l 1,1,-1
 75 0 l 1,2,-1
 75 408 l 1,3,-1
 -24 408 l 1,4,-1
 -24 456 l 1,5,-1
 70 456 l 1,6,7
 53 486 53 486 53 521 c 0,8,9
 53 580 53 580 111 614.5 c 128,-1,10
 169 649 169 649 310 649 c 0,11,12
 548 649 548 649 752 562 c 1,13,-1
 813 532 l 1,14,-1
 812 557 l 2,15,16
 812 603 812 603 845.5 628.5 c 128,-1,17
 879 654 879 654 928 654 c 0,18,19
 952 654 952 654 981 645 c 1,20,-1
 964 595 l 1,21,22
 943 602 943 602 927 602 c 0,23,24
 865 602 865 602 865 552 c 0,25,26
 865 518 865 518 890 492.5 c 128,-1,27
 915 467 915 467 964 436 c 1,28,-1
 880 436 l 1,29,30
 820 472 820 472 764.5 500 c 128,-1,31
 709 528 709 528 621 553 c 0,32,33
 474 596 474 596 293 596 c 0,34,35
 108 596 108 596 108 517 c 0,36,37
 108 481 108 481 131 456 c 1,38,-1
 232 456 l 1,39,-1
 232 408 l 1,40,-1
 130 408 l 1,0,-1
991 559.5 m 128,-1,42
 984 567 984 567 984 577 c 256,43,44
 984 587 984 587 991 594.5 c 128,-1,45
 998 602 998 602 1009 602 c 256,46,47
 1020 602 1020 602 1027 594.5 c 128,-1,48
 1034 587 1034 587 1034 577 c 256,49,50
 1034 567 1034 567 1027 559.5 c 128,-1,51
 1020 552 1020 552 1009 552 c 256,52,41
 998 552 998 552 991 559.5 c 128,-1,42
946 498 m 128,-1,54
 921 517 921 517 911 550 c 1,55,-1
 946 565 l 1,56,57
 955 541 955 541 971 528.5 c 128,-1,58
 987 516 987 516 1008 516 c 256,59,60
 1029 516 1029 516 1045 528.5 c 128,-1,61
 1061 541 1061 541 1071 565 c 1,62,-1
 1104 549 l 1,63,64
 1096 517 1096 517 1071 498 c 128,-1,65
 1046 479 1046 479 1008 479 c 0,66,53
 971 479 971 479 946 498 c 128,-1,54
EndSplineSet
EndChar

StartChar: uni093F.alt13
Encoding: 65608 -1 164
Width: 208
GlyphClass: 2
Flags: W
LayerCount: 2
Fore
SplineSet
855 436 m 1,1,-1
 782 436 l 1,2,-1
 766 449 l 2,3,4
 721 487 721 487 670 517.5 c 128,-1,5
 619 548 619 548 524 572.5 c 128,-1,6
 429 597 429 597 293 597 c 0,7,8
 108 597 108 597 108 517 c 0,9,10
 108 481 108 481 131 456 c 1,11,-1
 231 456 l 1,12,-1
 231 408 l 1,13,-1
 130 408 l 1,14,-1
 130 0 l 1,15,-1
 75 0 l 1,16,-1
 75 408 l 1,17,-1
 -24 408 l 1,18,-1
 -24 456 l 1,19,-1
 70 456 l 1,20,21
 53 488 53 488 53 521 c 0,22,23
 53 580 53 580 111 614.5 c 128,-1,24
 169 649 169 649 310 649 c 0,25,26
 513 649 513 649 659 580 c 0,27,0
 769 528 769 528 855 436 c 1,1,-1
EndSplineSet
Substitution2: "Single Substitution lookup 42 subtable" uni093F0930094D_candrabindudeva.alt13
Substitution2: "Single Substitution lookup 41 subtable" uni093F0930094D0902.alt13
Substitution2: "Single Substitution lookup 40 subtable" uni093F0930094D.alt13
AlternateSubs2: "'aalt' Access All Alternates lookup 1 subtable" uni093F0930094D.alt13 uni093F0930094D0902.alt13 uni093F0930094D_candrabindudeva.alt13
EndChar

StartChar: uni093F0930094D.alt13
Encoding: 65609 -1 165
Width: 208
GlyphClass: 2
Flags: W
LayerCount: 2
Fore
SplineSet
762 550 m 0,1,2
 762 521 762 521 794.5 489.5 c 128,-1,3
 827 458 827 458 865 436 c 1,4,-1
 782 436 l 1,5,-1
 766 449 l 2,6,7
 721 487 721 487 670 517.5 c 128,-1,8
 619 548 619 548 524 572.5 c 128,-1,9
 429 597 429 597 293 597 c 0,10,11
 108 597 108 597 108 517 c 0,12,13
 108 481 108 481 131 456 c 1,14,-1
 231 456 l 1,15,-1
 231 408 l 1,16,-1
 130 408 l 1,17,-1
 130 0 l 1,18,-1
 75 0 l 1,19,-1
 75 408 l 1,20,-1
 -24 408 l 1,21,-1
 -24 456 l 1,22,-1
 70 456 l 1,23,24
 53 488 53 488 53 521 c 0,25,26
 53 580 53 580 111 614.5 c 128,-1,27
 169 649 169 649 310 649 c 0,28,29
 513 649 513 649 659 580 c 2,30,-1
 689 565 l 2,31,32
 692 563 692 563 708 555 c 1,33,-1
 708 557 l 2,34,35
 708 603 708 603 741 628.5 c 128,-1,36
 774 654 774 654 822 654 c 0,37,38
 849 654 849 654 876.5 644.5 c 128,-1,39
 904 635 904 635 926 622 c 1,40,-1
 897 578 l 1,41,42
 856 602 856 602 823 602 c 0,43,0
 762 602 762 602 762 550 c 0,1,2
EndSplineSet
EndChar

StartChar: uni093F0930094D0902.alt13
Encoding: 65610 -1 166
Width: 208
GlyphClass: 2
Flags: W
LayerCount: 2
Fore
SplineSet
823 602 m 0,1,2
 762 602 762 602 762 550 c 0,3,4
 762 521 762 521 794.5 489.5 c 128,-1,5
 827 458 827 458 865 436 c 1,6,-1
 782 436 l 1,7,-1
 766 449 l 2,8,9
 721 487 721 487 670 517.5 c 128,-1,10
 619 548 619 548 524 572.5 c 128,-1,11
 429 597 429 597 293 597 c 0,12,13
 108 597 108 597 108 517 c 0,14,15
 108 481 108 481 131 456 c 1,16,-1
 231 456 l 1,17,-1
 231 408 l 1,18,-1
 130 408 l 1,19,-1
 130 0 l 1,20,-1
 75 0 l 1,21,-1
 75 408 l 1,22,-1
 -24 408 l 1,23,-1
 -24 456 l 1,24,-1
 70 456 l 1,25,26
 53 488 53 488 53 521 c 0,27,28
 53 580 53 580 111 614.5 c 128,-1,29
 169 649 169 649 310 649 c 0,30,31
 513 649 513 649 659 580 c 2,32,-1
 689 565 l 2,33,34
 692 563 692 563 708 555 c 1,35,-1
 708 557 l 2,36,37
 708 603 708 603 741 628.5 c 128,-1,38
 774 654 774 654 822 654 c 0,39,40
 849 654 849 654 876.5 644.5 c 128,-1,41
 904 635 904 635 926 622 c 1,42,-1
 897 578 l 1,43,0
 856 602 856 602 823 602 c 0,1,2
811 560.5 m 128,-1,45
 819 569 819 569 831 569 c 0,46,47
 844 569 844 569 852 560.5 c 128,-1,48
 860 552 860 552 860 540 c 256,49,50
 860 528 860 528 852 520 c 128,-1,51
 844 512 844 512 831 512 c 0,52,53
 819 512 819 512 811 520 c 128,-1,54
 803 528 803 528 803 540 c 256,55,44
 803 552 803 552 811 560.5 c 128,-1,45
EndSplineSet
EndChar

StartChar: uni093F0930094D_candrabindudeva.alt13
Encoding: 65611 -1 167
Width: 208
GlyphClass: 3
Flags: W
LayerCount: 2
Fore
SplineSet
794.5 489.5 m 128,-1,1
 827 458 827 458 865 436 c 1,2,-1
 782 436 l 1,3,-1
 766 449 l 2,4,5
 721 487 721 487 670 517.5 c 128,-1,6
 619 548 619 548 524 572.5 c 128,-1,7
 429 597 429 597 293 597 c 0,8,9
 108 597 108 597 108 517 c 0,10,11
 108 481 108 481 131 456 c 1,12,-1
 231 456 l 1,13,-1
 231 408 l 1,14,-1
 130 408 l 1,15,-1
 130 0 l 1,16,-1
 75 0 l 1,17,-1
 75 408 l 1,18,-1
 -24 408 l 1,19,-1
 -24 456 l 1,20,-1
 70 456 l 1,21,22
 53 488 53 488 53 521 c 0,23,24
 53 580 53 580 111 614.5 c 128,-1,25
 169 649 169 649 310 649 c 0,26,27
 513 649 513 649 659 580 c 2,28,-1
 689 565 l 2,29,30
 692 563 692 563 708 555 c 1,31,-1
 708 557 l 2,32,33
 708 603 708 603 741 628.5 c 128,-1,34
 774 654 774 654 822 654 c 0,35,36
 851 654 851 654 878 645 c 1,37,-1
 861 595 l 1,38,39
 840 602 840 602 823 602 c 0,40,41
 762 602 762 602 762 550 c 0,42,0
 762 521 762 521 794.5 489.5 c 128,-1,1
888.5 559.5 m 128,-1,44
 882 567 882 567 882 577 c 256,45,46
 882 587 882 587 888.5 594.5 c 128,-1,47
 895 602 895 602 906 602 c 0,48,49
 918 602 918 602 925 594.5 c 128,-1,50
 932 587 932 587 932 577 c 256,51,52
 932 567 932 567 924.5 559.5 c 128,-1,53
 917 552 917 552 906 552 c 256,54,43
 895 552 895 552 888.5 559.5 c 128,-1,44
968 498 m 128,-1,56
 943 479 943 479 905 479 c 0,57,58
 868 479 868 479 843 498 c 128,-1,59
 818 517 818 517 809 550 c 1,60,-1
 844 565 l 1,61,62
 852 541 852 541 868.5 528.5 c 128,-1,63
 885 516 885 516 905 516 c 0,64,65
 948 516 948 516 969 565 c 1,66,-1
 1002 549 l 1,67,55
 993 517 993 517 968 498 c 128,-1,56
EndSplineSet
EndChar

StartChar: uni093F.alt14
Encoding: 65612 -1 168
Width: 208
GlyphClass: 2
Flags: W
LayerCount: 2
Fore
SplineSet
787 436 m 1,1,-1
 715 436 l 1,2,3
 648 503 648 503 527 549 c 0,4,5
 399 596 399 596 274 596 c 0,6,7
 188 596 188 596 148 575 c 128,-1,8
 108 554 108 554 108 517 c 0,9,10
 108 481 108 481 131 456 c 1,11,-1
 231 456 l 1,12,-1
 231 408 l 1,13,-1
 130 408 l 1,14,-1
 130 0 l 1,15,-1
 75 0 l 1,16,-1
 75 408 l 1,17,-1
 -24 408 l 1,18,-1
 -24 456 l 1,19,-1
 70 456 l 1,20,21
 53 488 53 488 53 520 c 0,22,23
 53 577 53 577 107.5 613 c 128,-1,24
 162 649 162 649 276 649 c 0,25,26
 412 649 412 649 551 596 c 0,27,0
 699 538 699 538 787 436 c 1,1,-1
EndSplineSet
Substitution2: "Single Substitution lookup 42 subtable" uni093F0930094D_candrabindudeva.alt14
Substitution2: "Single Substitution lookup 41 subtable" uni093F0930094D0902.alt14
Substitution2: "Single Substitution lookup 40 subtable" uni093F0930094D.alt14
AlternateSubs2: "'aalt' Access All Alternates lookup 1 subtable" uni093F0930094D.alt14 uni093F0930094D0902.alt14 uni093F0930094D_candrabindudeva.alt14
EndChar

StartChar: uni093F0930094D.alt14
Encoding: 65613 -1 169
Width: 208
GlyphClass: 2
Flags: W
LayerCount: 2
Fore
SplineSet
694 550 m 0,1,2
 694 528 694 528 711 507.5 c 128,-1,3
 728 487 728 487 743 475.5 c 128,-1,4
 758 464 758 464 798 436 c 1,5,-1
 716 436 l 1,6,7
 608 516 608 516 527 549 c 0,8,9
 409 596 409 596 274 596 c 0,10,11
 188 596 188 596 148 575 c 128,-1,12
 108 554 108 554 108 517 c 0,13,14
 108 481 108 481 131 456 c 1,15,-1
 231 456 l 1,16,-1
 231 408 l 1,17,-1
 130 408 l 1,18,-1
 130 0 l 1,19,-1
 75 0 l 1,20,-1
 75 408 l 1,21,-1
 -24 408 l 1,22,-1
 -24 456 l 1,23,-1
 70 456 l 1,24,25
 53 488 53 488 53 520 c 0,26,27
 53 577 53 577 107.5 613 c 128,-1,28
 162 649 162 649 276 649 c 0,29,30
 412 649 412 649 551 596 c 0,31,32
 577 585 577 585 641 552 c 1,33,-1
 641 557 l 2,34,35
 641 603 641 603 674.5 628.5 c 128,-1,36
 708 654 708 654 757 654 c 0,37,38
 807 654 807 654 858 622 c 1,39,-1
 830 577 l 1,40,41
 787 602 787 602 756 602 c 0,42,0
 694 602 694 602 694 550 c 0,1,2
EndSplineSet
EndChar

StartChar: uni093F0930094D0902.alt14
Encoding: 65614 -1 170
Width: 208
GlyphClass: 2
Flags: W
LayerCount: 2
Fore
SplineSet
756 602 m 0,1,2
 694 602 694 602 694 550 c 0,3,4
 694 528 694 528 711 507.5 c 128,-1,5
 728 487 728 487 743 475.5 c 128,-1,6
 758 464 758 464 798 436 c 1,7,-1
 716 436 l 1,8,9
 608 516 608 516 527 549 c 0,10,11
 409 596 409 596 274 596 c 0,12,13
 188 596 188 596 148 575 c 128,-1,14
 108 554 108 554 108 517 c 0,15,16
 108 481 108 481 131 456 c 1,17,-1
 231 456 l 1,18,-1
 231 408 l 1,19,-1
 130 408 l 1,20,-1
 130 0 l 1,21,-1
 75 0 l 1,22,-1
 75 408 l 1,23,-1
 -24 408 l 1,24,-1
 -24 456 l 1,25,-1
 70 456 l 1,26,27
 53 488 53 488 53 520 c 0,28,29
 53 577 53 577 107.5 613 c 128,-1,30
 162 649 162 649 276 649 c 0,31,32
 412 649 412 649 551 596 c 0,33,34
 577 585 577 585 641 552 c 1,35,-1
 641 557 l 2,36,37
 641 603 641 603 674.5 628.5 c 128,-1,38
 708 654 708 654 757 654 c 0,39,40
 807 654 807 654 858 622 c 1,41,-1
 830 577 l 1,42,0
 787 602 787 602 756 602 c 0,1,2
743 560.5 m 128,-1,44
 751 569 751 569 763 569 c 0,45,46
 776 569 776 569 784 560.5 c 128,-1,47
 792 552 792 552 792 540 c 256,48,49
 792 528 792 528 784 520 c 128,-1,50
 776 512 776 512 763 512 c 0,51,52
 751 512 751 512 743 520 c 128,-1,53
 735 528 735 528 735 540 c 256,54,43
 735 552 735 552 743 560.5 c 128,-1,44
EndSplineSet
EndChar

StartChar: uni093F0930094D_candrabindudeva.alt14
Encoding: 65615 -1 171
Width: 208
GlyphClass: 3
Flags: W
LayerCount: 2
Fore
SplineSet
711 507.5 m 128,-1,1
 728 487 728 487 743 475.5 c 128,-1,2
 758 464 758 464 798 436 c 1,3,-1
 716 436 l 1,4,5
 607 517 607 517 527 549 c 0,6,7
 408 596 408 596 274 596 c 0,8,9
 188 596 188 596 148 575 c 128,-1,10
 108 554 108 554 108 517 c 0,11,12
 108 481 108 481 131 456 c 1,13,-1
 231 456 l 1,14,-1
 231 408 l 1,15,-1
 130 408 l 1,16,-1
 130 0 l 1,17,-1
 75 0 l 1,18,-1
 75 408 l 1,19,-1
 -24 408 l 1,20,-1
 -24 456 l 1,21,-1
 70 456 l 1,22,23
 53 488 53 488 53 520 c 0,24,25
 53 577 53 577 107.5 613 c 128,-1,26
 162 649 162 649 276 649 c 0,27,28
 412 649 412 649 551 596 c 0,29,30
 577 585 577 585 641 552 c 1,31,-1
 641 557 l 2,32,33
 641 603 641 603 674.5 628.5 c 128,-1,34
 708 654 708 654 757 654 c 0,35,36
 780 654 780 654 811 645 c 1,37,-1
 793 595 l 1,38,39
 772 602 772 602 756 602 c 0,40,41
 694 602 694 602 694 550 c 0,42,0
 694 528 694 528 711 507.5 c 128,-1,1
819.5 559.5 m 128,-1,44
 813 567 813 567 813 577 c 256,45,46
 813 587 813 587 819.5 594.5 c 128,-1,47
 826 602 826 602 837 602 c 256,48,49
 848 602 848 602 855 594.5 c 128,-1,50
 862 587 862 587 862 577 c 256,51,52
 862 567 862 567 855 559.5 c 128,-1,53
 848 552 848 552 837 552 c 256,54,43
 826 552 826 552 819.5 559.5 c 128,-1,44
900 498 m 128,-1,56
 875 479 875 479 837 479 c 0,57,58
 800 479 800 479 775 498 c 128,-1,59
 750 517 750 517 740 550 c 1,60,-1
 775 565 l 1,61,62
 784 541 784 541 800.5 528.5 c 128,-1,63
 817 516 817 516 837 516 c 0,64,65
 858 516 858 516 874 528.5 c 128,-1,66
 890 541 890 541 900 565 c 1,67,-1
 934 549 l 1,68,55
 925 517 925 517 900 498 c 128,-1,56
EndSplineSet
EndChar

StartChar: uni093F.alt15
Encoding: 65616 -1 172
Width: 208
GlyphClass: 2
Flags: W
LayerCount: 2
Fore
SplineSet
612.5 627.5 m 128,-1,1
 770 606 770 606 907.5 558.5 c 128,-1,2
 1045 511 1045 511 1120 436 c 1,3,-1
 1029 436 l 1,4,5
 958 490 958 490 835 526 c 128,-1,6
 712 562 712 562 569.5 579 c 128,-1,7
 427 596 427 596 293 596 c 0,8,9
 108 596 108 596 108 517 c 0,10,11
 108 481 108 481 131 456 c 1,12,-1
 231 456 l 1,13,-1
 231 408 l 1,14,-1
 130 408 l 1,15,-1
 130 0 l 1,16,-1
 75 0 l 1,17,-1
 75 408 l 1,18,-1
 -24 408 l 1,19,-1
 -24 456 l 1,20,-1
 70 456 l 1,21,22
 53 488 53 488 53 521 c 0,23,24
 53 580 53 580 111 614.5 c 128,-1,25
 169 649 169 649 310 649 c 0,26,0
 455 649 455 649 612.5 627.5 c 128,-1,1
EndSplineSet
Substitution2: "Single Substitution lookup 42 subtable" uni093F0930094D_candrabindudeva.alt15
Substitution2: "Single Substitution lookup 41 subtable" uni093F0930094D0902.alt15
Substitution2: "Single Substitution lookup 40 subtable" uni093F0930094D.alt15
AlternateSubs2: "'aalt' Access All Alternates lookup 1 subtable" uni093F0930094D.alt15 uni093F0930094D0902.alt15 uni093F0930094D_candrabindudeva.alt15
EndChar

StartChar: uni093F0930094D.alt15
Encoding: 65617 -1 173
Width: 208
GlyphClass: 2
Flags: W
LayerCount: 2
Fore
SplineSet
1018 550 m 0,1,2
 1018 522 1018 522 1043.5 496 c 128,-1,3
 1069 470 1069 470 1122 436 c 1,4,-1
 1029 436 l 1,5,6
 958 490 958 490 835 526 c 128,-1,7
 712 562 712 562 569.5 579 c 128,-1,8
 427 596 427 596 293 596 c 0,9,10
 108 596 108 596 108 517 c 0,11,12
 108 481 108 481 131 456 c 1,13,-1
 231 456 l 1,14,-1
 231 408 l 1,15,-1
 130 408 l 1,16,-1
 130 0 l 1,17,-1
 75 0 l 1,18,-1
 75 408 l 1,19,-1
 -24 408 l 1,20,-1
 -24 456 l 1,21,-1
 70 456 l 1,22,23
 53 488 53 488 53 521 c 0,24,25
 53 580 53 580 111 614.5 c 128,-1,26
 169 649 169 649 310 649 c 0,27,28
 477 649 477 649 656 621 c 128,-1,29
 835 593 835 593 967 534 c 1,30,31
 965 550 965 550 965 557 c 0,32,33
 965 603 965 603 998.5 628.5 c 128,-1,34
 1032 654 1032 654 1081 654 c 0,35,36
 1131 654 1131 654 1182 622 c 1,37,-1
 1154 578 l 1,38,39
 1138 587 1138 587 1118 594.5 c 128,-1,40
 1098 602 1098 602 1080 602 c 0,41,0
 1018 602 1018 602 1018 550 c 0,1,2
EndSplineSet
EndChar

StartChar: uni093F0930094D0902.alt15
Encoding: 65618 -1 174
Width: 208
GlyphClass: 2
Flags: W
LayerCount: 2
Fore
SplineSet
1118 594.5 m 128,-1,1
 1098 602 1098 602 1080 602 c 0,2,3
 1018 602 1018 602 1018 550 c 0,4,5
 1018 522 1018 522 1043.5 496 c 128,-1,6
 1069 470 1069 470 1122 436 c 1,7,-1
 1029 436 l 1,8,9
 958 490 958 490 835 526 c 128,-1,10
 712 562 712 562 569.5 579 c 128,-1,11
 427 596 427 596 293 596 c 0,12,13
 108 596 108 596 108 517 c 0,14,15
 108 481 108 481 131 456 c 1,16,-1
 231 456 l 1,17,-1
 231 408 l 1,18,-1
 130 408 l 1,19,-1
 130 0 l 1,20,-1
 75 0 l 1,21,-1
 75 408 l 1,22,-1
 -24 408 l 1,23,-1
 -24 456 l 1,24,-1
 70 456 l 1,25,26
 53 488 53 488 53 521 c 0,27,28
 53 580 53 580 111 614.5 c 128,-1,29
 169 649 169 649 310 649 c 0,30,31
 477 649 477 649 656 621 c 128,-1,32
 835 593 835 593 967 534 c 1,33,34
 965 550 965 550 965 557 c 0,35,36
 965 603 965 603 998.5 628.5 c 128,-1,37
 1032 654 1032 654 1081 654 c 0,38,39
 1131 654 1131 654 1182 622 c 1,40,-1
 1154 578 l 1,41,0
 1138 587 1138 587 1118 594.5 c 128,-1,1
1067 560.5 m 128,-1,43
 1075 569 1075 569 1087 569 c 0,44,45
 1100 569 1100 569 1108 560.5 c 128,-1,46
 1116 552 1116 552 1116 540 c 256,47,48
 1116 528 1116 528 1108 520 c 128,-1,49
 1100 512 1100 512 1087 512 c 0,50,51
 1075 512 1075 512 1067 520 c 128,-1,52
 1059 528 1059 528 1059 540 c 256,53,42
 1059 552 1059 552 1067 560.5 c 128,-1,43
EndSplineSet
EndChar

StartChar: uni093F0930094D_candrabindudeva.alt15
Encoding: 65619 -1 175
Width: 208
GlyphClass: 3
Flags: W
LayerCount: 2
Fore
SplineSet
1043.5 496 m 128,-1,1
 1069 470 1069 470 1122 436 c 1,2,-1
 1029 436 l 1,3,4
 958 490 958 490 835 526 c 128,-1,5
 712 562 712 562 569.5 579 c 128,-1,6
 427 596 427 596 293 596 c 0,7,8
 108 596 108 596 108 517 c 0,9,10
 108 481 108 481 131 456 c 1,11,-1
 231 456 l 1,12,-1
 231 408 l 1,13,-1
 130 408 l 1,14,-1
 130 0 l 1,15,-1
 75 0 l 1,16,-1
 75 408 l 1,17,-1
 -24 408 l 1,18,-1
 -24 456 l 1,19,-1
 70 456 l 1,20,21
 53 488 53 488 53 521 c 0,22,23
 53 580 53 580 111 614.5 c 128,-1,24
 169 649 169 649 310 649 c 0,25,26
 477 649 477 649 656 621 c 128,-1,27
 835 593 835 593 967 534 c 1,28,29
 965 550 965 550 965 557 c 0,30,31
 965 603 965 603 998.5 628.5 c 128,-1,32
 1032 654 1032 654 1081 654 c 0,33,34
 1104 654 1104 654 1135 645 c 1,35,-1
 1118 595 l 1,36,37
 1097 602 1097 602 1080 602 c 0,38,39
 1018 602 1018 602 1018 550 c 0,40,0
 1018 522 1018 522 1043.5 496 c 128,-1,1
1145.5 559.5 m 128,-1,42
 1139 567 1139 567 1139 577 c 256,43,44
 1139 587 1139 587 1145.5 594.5 c 128,-1,45
 1152 602 1152 602 1163 602 c 256,46,47
 1174 602 1174 602 1181 594.5 c 128,-1,48
 1188 587 1188 587 1188 577 c 256,49,50
 1188 567 1188 567 1181 559.5 c 128,-1,51
 1174 552 1174 552 1163 552 c 256,52,41
 1152 552 1152 552 1145.5 559.5 c 128,-1,42
1225 498 m 128,-1,54
 1200 479 1200 479 1162 479 c 0,55,56
 1125 479 1125 479 1100 498 c 128,-1,57
 1075 517 1075 517 1065 550 c 1,58,-1
 1101 565 l 1,59,60
 1109 541 1109 541 1125.5 528.5 c 128,-1,61
 1142 516 1142 516 1162 516 c 0,62,63
 1205 516 1205 516 1226 565 c 1,64,-1
 1259 549 l 1,65,53
 1250 517 1250 517 1225 498 c 128,-1,54
EndSplineSet
EndChar

StartChar: uni093F.alt16
Encoding: 65620 -1 176
Width: 208
GlyphClass: 2
Flags: W
LayerCount: 2
Fore
SplineSet
926 436 m 1,1,-1
 842 436 l 1,2,3
 836 440 836 440 770.5 483.5 c 128,-1,4
 705 527 705 527 577.5 562 c 128,-1,5
 450 597 450 597 308 597 c 0,6,7
 199 597 199 597 152.5 576 c 128,-1,8
 106 555 106 555 106 517 c 0,9,10
 106 481 106 481 129 456 c 1,11,-1
 231 456 l 1,12,-1
 231 408 l 1,13,-1
 130 408 l 1,14,-1
 130 0 l 1,15,-1
 75 0 l 1,16,-1
 75 408 l 1,17,-1
 -24 408 l 1,18,-1
 -24 456 l 1,19,-1
 71 456 l 1,20,21
 54 488 54 488 54 521 c 0,22,23
 54 648 54 648 310 648 c 0,24,25
 419 648 419 648 522 626.5 c 128,-1,26
 625 605 625 605 714 566 c 0,27,0
 810 524 810 524 926 436 c 1,1,-1
EndSplineSet
Substitution2: "Single Substitution lookup 42 subtable" uni093F0930094D_candrabindudeva.alt16
Substitution2: "Single Substitution lookup 41 subtable" uni093F0930094D0902.alt16
Substitution2: "Single Substitution lookup 40 subtable" uni093F0930094D.alt16
AlternateSubs2: "'aalt' Access All Alternates lookup 1 subtable" uni093F0930094D.alt16 uni093F0930094D0902.alt16 uni093F0930094D_candrabindudeva.alt16
EndChar

StartChar: uni093F0930094D.alt16
Encoding: 65621 -1 177
Width: 208
GlyphClass: 2
Flags: W
LayerCount: 2
Fore
SplineSet
822 550 m 0,1,2
 822 524 822 524 838 503 c 128,-1,3
 854 482 854 482 873.5 468.5 c 128,-1,4
 893 455 893 455 926 436 c 1,5,-1
 842 436 l 1,6,7
 836 440 836 440 770.5 483.5 c 128,-1,8
 705 527 705 527 577.5 562 c 128,-1,9
 450 597 450 597 308 597 c 0,10,11
 199 597 199 597 152.5 576 c 128,-1,12
 106 555 106 555 106 517 c 0,13,14
 106 481 106 481 129 456 c 1,15,-1
 231 456 l 1,16,-1
 231 408 l 1,17,-1
 130 408 l 1,18,-1
 130 0 l 1,19,-1
 75 0 l 1,20,-1
 75 408 l 1,21,-1
 -24 408 l 1,22,-1
 -24 456 l 1,23,-1
 71 456 l 1,24,25
 54 488 54 488 54 521 c 0,26,27
 54 648 54 648 310 648 c 0,28,29
 419 648 419 648 522 626.5 c 128,-1,30
 625 605 625 605 714 566 c 0,31,32
 743 553 743 553 772 537 c 1,33,34
 768 590 768 590 795 622 c 128,-1,35
 822 654 822 654 885 654 c 0,36,37
 935 654 935 654 986 622 c 1,38,-1
 958 578 l 1,39,40
 915 602 915 602 884 602 c 0,41,0
 822 602 822 602 822 550 c 0,1,2
EndSplineSet
EndChar

StartChar: uni093F0930094D0902.alt16
Encoding: 65622 -1 178
Width: 208
GlyphClass: 2
Flags: W
LayerCount: 2
Fore
SplineSet
884 602 m 0,1,2
 822 602 822 602 822 550 c 0,3,4
 822 524 822 524 838 503 c 128,-1,5
 854 482 854 482 873.5 468.5 c 128,-1,6
 893 455 893 455 926 436 c 1,7,-1
 842 436 l 1,8,9
 836 440 836 440 770.5 483.5 c 128,-1,10
 705 527 705 527 577.5 562 c 128,-1,11
 450 597 450 597 308 597 c 0,12,13
 199 597 199 597 152.5 576 c 128,-1,14
 106 555 106 555 106 517 c 0,15,16
 106 481 106 481 129 456 c 1,17,-1
 231 456 l 1,18,-1
 231 408 l 1,19,-1
 130 408 l 1,20,-1
 130 0 l 1,21,-1
 75 0 l 1,22,-1
 75 408 l 1,23,-1
 -24 408 l 1,24,-1
 -24 456 l 1,25,-1
 71 456 l 1,26,27
 54 488 54 488 54 521 c 0,28,29
 54 648 54 648 310 648 c 0,30,31
 419 648 419 648 522 626.5 c 128,-1,32
 625 605 625 605 714 566 c 0,33,34
 743 553 743 553 772 537 c 1,35,36
 768 590 768 590 795 622 c 128,-1,37
 822 654 822 654 885 654 c 0,38,39
 935 654 935 654 986 622 c 1,40,-1
 958 578 l 1,41,0
 915 602 915 602 884 602 c 0,1,2
872 560.5 m 128,-1,43
 880 569 880 569 892 569 c 0,44,45
 905 569 905 569 913 560.5 c 128,-1,46
 921 552 921 552 921 540 c 256,47,48
 921 528 921 528 913 520 c 128,-1,49
 905 512 905 512 892 512 c 0,50,51
 880 512 880 512 872 520 c 128,-1,52
 864 528 864 528 864 540 c 256,53,42
 864 552 864 552 872 560.5 c 128,-1,43
EndSplineSet
EndChar

StartChar: uni093F0930094D_candrabindudeva.alt16
Encoding: 65623 -1 179
Width: 208
GlyphClass: 3
Flags: W
LayerCount: 2
Fore
SplineSet
838 503 m 128,-1,1
 854 482 854 482 873.5 468.5 c 128,-1,2
 893 455 893 455 926 436 c 1,3,-1
 842 436 l 1,4,5
 836 440 836 440 770.5 483.5 c 128,-1,6
 705 527 705 527 577.5 562 c 128,-1,7
 450 597 450 597 308 597 c 0,8,9
 199 597 199 597 152.5 576 c 128,-1,10
 106 555 106 555 106 517 c 0,11,12
 106 481 106 481 129 456 c 1,13,-1
 231 456 l 1,14,-1
 231 408 l 1,15,-1
 130 408 l 1,16,-1
 130 0 l 1,17,-1
 75 0 l 1,18,-1
 75 408 l 1,19,-1
 -24 408 l 1,20,-1
 -24 456 l 1,21,-1
 71 456 l 1,22,23
 54 488 54 488 54 521 c 0,24,25
 54 648 54 648 310 648 c 0,26,27
 419 648 419 648 522 626.5 c 128,-1,28
 625 605 625 605 714 566 c 1,29,-1
 772 537 l 1,30,31
 768 590 768 590 795 622 c 128,-1,32
 822 654 822 654 885 654 c 0,33,34
 909 654 909 654 938 645 c 1,35,-1
 922 596 l 1,36,37
 904 602 904 602 884 602 c 0,38,39
 822 602 822 602 822 550 c 0,40,0
 822 524 822 524 838 503 c 128,-1,1
948 559.5 m 128,-1,42
 941 567 941 567 941 577 c 256,43,44
 941 587 941 587 948 594.5 c 128,-1,45
 955 602 955 602 966 602 c 256,46,47
 977 602 977 602 984 594.5 c 128,-1,48
 991 587 991 587 991 577 c 256,49,50
 991 567 991 567 984 559.5 c 128,-1,51
 977 552 977 552 966 552 c 256,52,41
 955 552 955 552 948 559.5 c 128,-1,42
1028 498 m 128,-1,54
 1003 479 1003 479 965 479 c 0,55,56
 928 479 928 479 903 498 c 128,-1,57
 878 517 878 517 868 550 c 1,58,-1
 903 565 l 1,59,60
 912 541 912 541 928 528.5 c 128,-1,61
 944 516 944 516 965 516 c 256,62,63
 986 516 986 516 1002 528.5 c 128,-1,64
 1018 541 1018 541 1028 565 c 1,65,-1
 1062 549 l 1,66,53
 1053 517 1053 517 1028 498 c 128,-1,54
EndSplineSet
EndChar

StartChar: uni093F.alt17
Encoding: 65624 -1 180
Width: 208
GlyphClass: 2
Flags: W
LayerCount: 2
Fore
SplineSet
315.5 626 m 128,-1,1
 363 603 363 603 403.5 560.5 c 128,-1,2
 444 518 444 518 507 436 c 1,3,-1
 439 436 l 1,4,5
 387 501 387 501 358.5 532 c 128,-1,6
 330 563 330 563 293.5 581 c 128,-1,7
 257 599 257 599 206 599 c 0,8,9
 107 599 107 599 107 522 c 0,10,11
 107 485 107 485 132 456 c 1,12,-1
 231 456 l 1,13,-1
 231 408 l 1,14,-1
 130 408 l 1,15,-1
 130 0 l 1,16,-1
 75 0 l 1,17,-1
 75 408 l 1,18,-1
 -24 408 l 1,19,-1
 -24 456 l 1,20,-1
 72 456 l 1,21,22
 53 486 53 486 53 527 c 0,23,24
 53 582 53 582 90 615.5 c 128,-1,25
 127 649 127 649 205 649 c 0,26,0
 268 649 268 649 315.5 626 c 128,-1,1
EndSplineSet
Substitution2: "Single Substitution lookup 42 subtable" uni093F0930094D_candrabindudeva.alt17
Substitution2: "Single Substitution lookup 41 subtable" uni093F0930094D0902.alt17
Substitution2: "Single Substitution lookup 40 subtable" uni093F0930094D.alt17
AlternateSubs2: "'aalt' Access All Alternates lookup 1 subtable" uni093F0930094D.alt17 uni093F0930094D0902.alt17 uni093F0930094D_candrabindudeva.alt17
EndChar

StartChar: uni093F0930094D.alt17
Encoding: 65625 -1 181
Width: 208
GlyphClass: 2
Flags: W
LayerCount: 2
Fore
SplineSet
436 550 m 0,1,2
 436 531 436 531 448.5 511 c 128,-1,3
 461 491 461 491 480.5 471.5 c 128,-1,4
 500 452 500 452 517 436 c 1,5,-1
 439 436 l 1,6,7
 387 501 387 501 358.5 532 c 128,-1,8
 330 563 330 563 293.5 581 c 128,-1,9
 257 599 257 599 206 599 c 0,10,11
 107 599 107 599 107 522 c 0,12,13
 107 485 107 485 132 456 c 1,14,-1
 231 456 l 1,15,-1
 231 408 l 1,16,-1
 130 408 l 1,17,-1
 130 0 l 1,18,-1
 75 0 l 1,19,-1
 75 408 l 1,20,-1
 -24 408 l 1,21,-1
 -24 456 l 1,22,-1
 72 456 l 1,23,24
 53 486 53 486 53 527 c 0,25,26
 53 582 53 582 90 615.5 c 128,-1,27
 127 649 127 649 205 649 c 0,28,29
 259 649 259 649 302 630.5 c 128,-1,30
 345 612 345 612 386 575 c 1,31,32
 396 614 396 614 426.5 634 c 128,-1,33
 457 654 457 654 499 654 c 0,34,35
 549 654 549 654 600 622 c 1,36,-1
 572 578 l 1,37,38
 556 587 556 587 536 594.5 c 128,-1,39
 516 602 516 602 498 602 c 0,40,0
 436 602 436 602 436 550 c 0,1,2
EndSplineSet
EndChar

StartChar: uni093F0930094D0902.alt17
Encoding: 65626 -1 182
Width: 208
GlyphClass: 2
Flags: W
LayerCount: 2
Fore
SplineSet
600 622 m 1,1,-1
 572 578 l 1,2,3
 556 587 556 587 536 594.5 c 128,-1,4
 516 602 516 602 498 602 c 0,5,6
 436 602 436 602 436 550 c 0,7,8
 436 531 436 531 448.5 511 c 128,-1,9
 461 491 461 491 480.5 471.5 c 128,-1,10
 500 452 500 452 517 436 c 1,11,-1
 439 436 l 1,12,13
 387 501 387 501 358.5 532 c 128,-1,14
 330 563 330 563 293.5 581 c 128,-1,15
 257 599 257 599 206 599 c 0,16,17
 107 599 107 599 107 522 c 0,18,19
 107 485 107 485 132 456 c 1,20,-1
 231 456 l 1,21,-1
 231 408 l 1,22,-1
 130 408 l 1,23,-1
 130 0 l 1,24,-1
 75 0 l 1,25,-1
 75 408 l 1,26,-1
 -24 408 l 1,27,-1
 -24 456 l 1,28,-1
 72 456 l 1,29,30
 53 486 53 486 53 527 c 0,31,32
 53 582 53 582 90 615.5 c 128,-1,33
 127 649 127 649 205 649 c 0,34,35
 259 649 259 649 302 630.5 c 128,-1,36
 345 612 345 612 386 575 c 1,37,38
 396 614 396 614 426.5 634 c 128,-1,39
 457 654 457 654 499 654 c 0,40,0
 549 654 549 654 600 622 c 1,1,-1
525 560.5 m 128,-1,42
 533 552 533 552 533 540 c 256,43,44
 533 528 533 528 525 520 c 128,-1,45
 517 512 517 512 504 512 c 0,46,47
 492 512 492 512 484 520 c 128,-1,48
 476 528 476 528 476 540 c 256,49,50
 476 552 476 552 484 560.5 c 128,-1,51
 492 569 492 569 504 569 c 0,52,41
 517 569 517 569 525 560.5 c 128,-1,42
EndSplineSet
EndChar

StartChar: uni093F0930094D_candrabindudeva.alt17
Encoding: 65627 -1 183
Width: 208
GlyphClass: 3
Flags: W
LayerCount: 2
Fore
SplineSet
448.5 511 m 128,-1,1
 461 491 461 491 480.5 471.5 c 128,-1,2
 500 452 500 452 517 436 c 1,3,-1
 439 436 l 1,4,5
 387 501 387 501 358.5 532 c 128,-1,6
 330 563 330 563 293.5 581 c 128,-1,7
 257 599 257 599 206 599 c 0,8,9
 107 599 107 599 107 522 c 0,10,11
 107 485 107 485 132 456 c 1,12,-1
 231 456 l 1,13,-1
 231 408 l 1,14,-1
 130 408 l 1,15,-1
 130 0 l 1,16,-1
 75 0 l 1,17,-1
 75 408 l 1,18,-1
 -24 408 l 1,19,-1
 -24 456 l 1,20,-1
 72 456 l 1,21,22
 53 486 53 486 53 527 c 0,23,24
 53 582 53 582 90 615.5 c 128,-1,25
 127 649 127 649 205 649 c 0,26,27
 259 649 259 649 302 630.5 c 128,-1,28
 345 612 345 612 386 575 c 1,29,30
 396 613 396 613 426.5 633 c 128,-1,31
 457 653 457 653 499 653 c 0,32,33
 527 653 527 653 552 644 c 1,34,-1
 535 596 l 1,35,36
 517 602 517 602 498 602 c 0,37,38
 436 602 436 602 436 550 c 0,39,0
 436 531 436 531 448.5 511 c 128,-1,1
562 559.5 m 128,-1,41
 555 567 555 567 555 577 c 256,42,43
 555 587 555 587 562 594.5 c 128,-1,44
 569 602 569 602 580 602 c 256,45,46
 591 602 591 602 598 594.5 c 128,-1,47
 605 587 605 587 605 577 c 256,48,49
 605 567 605 567 598 559.5 c 128,-1,50
 591 552 591 552 580 552 c 256,51,40
 569 552 569 552 562 559.5 c 128,-1,41
642 498 m 128,-1,53
 617 479 617 479 579 479 c 0,54,55
 542 479 542 479 517 498 c 128,-1,56
 492 517 492 517 482 550 c 1,57,-1
 517 565 l 1,58,59
 526 541 526 541 542.5 528.5 c 128,-1,60
 559 516 559 516 579 516 c 0,61,62
 600 516 600 516 616 528.5 c 128,-1,63
 632 541 632 541 642 565 c 1,64,-1
 676 549 l 1,65,52
 667 517 667 517 642 498 c 128,-1,53
EndSplineSet
EndChar

StartChar: uni0940
Encoding: 2368 2368 184
Width: 208
GlyphClass: 2
Flags: W
AnchorPoint: "Anchor-2" 107 447 basechar 0
LayerCount: 2
Fore
SplineSet
135 408 m 1,0,-1
 135 0 l 1,1,-1
 80 0 l 1,2,-1
 80 408 l 1,3,-1
 -24 408 l 1,4,-1
 -24 456 l 1,5,-1
 77 456 l 1,6,7
 56 530 56 530 19 563 c 128,-1,8
 -18 596 -18 596 -56 596 c 0,9,10
 -87 596 -87 596 -102.5 580 c 128,-1,11
 -118 564 -118 564 -118 534 c 0,12,13
 -118 505 -118 505 -97 478.5 c 128,-1,14
 -76 452 -76 452 -54 439 c 1,15,-1
 -118 439 l 2,16,17
 -122 439 -122 439 -135.5 451.5 c 128,-1,18
 -149 464 -149 464 -160.5 486 c 128,-1,19
 -172 508 -172 508 -172 538 c 0,20,21
 -172 587 -172 587 -143 618 c 128,-1,22
 -114 649 -114 649 -53 649 c 0,23,24
 -13 649 -13 649 25 625 c 128,-1,25
 63 601 63 601 91.5 557 c 128,-1,26
 120 513 120 513 133 456 c 1,27,-1
 232 456 l 1,28,-1
 232 408 l 1,29,-1
 135 408 l 1,0,-1
EndSplineSet
Substitution2: "Single Substitution lookup 46 subtable" uni0940.alt5
Substitution2: "Single Substitution lookup 45 subtable" uni0940.alt4
Substitution2: "Single Substitution lookup 44 subtable" uni0940.alt3
Substitution2: "Single Substitution lookup 43 subtable" uni0940.alt2
Substitution2: "Single Substitution lookup 42 subtable" uni0940.alt1
AlternateSubs2: "'aalt' Access All Alternates lookup 1 subtable" uni0940.alt1 uni0940.alt2 uni0940.alt3 uni0940.alt4 uni0940.alt5
EndChar

StartChar: iiMatra_reph-deva
Encoding: 65628 -1 185
Width: 208
GlyphClass: 2
Flags: W
LayerCount: 2
Fore
SplineSet
135 408 m 1,0,-1
 135 0 l 1,1,-1
 80 0 l 1,2,-1
 80 408 l 1,3,-1
 -24 408 l 1,4,-1
 -24 456 l 1,5,-1
 78 456 l 1,6,7
 57 530 57 530 19.5 563.5 c 128,-1,8
 -18 597 -18 597 -56 597 c 0,9,10
 -87 597 -87 597 -102.5 581 c 128,-1,11
 -118 565 -118 565 -118 538 c 0,12,13
 -118 485 -118 485 -54 439 c 1,14,-1
 -125 439 l 2,15,16
 -125 437 -125 437 -138 451.5 c 128,-1,17
 -151 466 -151 466 -161 488 c 128,-1,18
 -171 510 -171 510 -171 538 c 0,19,20
 -171 586 -171 586 -140.5 617 c 128,-1,21
 -110 648 -110 648 -50 648 c 0,22,23
 6 648 6 648 62 595 c 1,24,25
 73 624 73 624 98.5 639 c 128,-1,26
 124 654 124 654 160 654 c 0,27,28
 187 654 187 654 217 644 c 128,-1,29
 247 634 247 634 266 620 c 1,30,-1
 239 578 l 1,31,32
 226 587 226 587 205.5 594.5 c 128,-1,33
 185 602 185 602 169 602 c 0,34,35
 138 602 138 602 120.5 591 c 128,-1,36
 103 580 103 580 104 550 c 0,37,38
 104 514 104 514 133 456 c 1,39,-1
 232 456 l 1,40,-1
 232 408 l 1,41,-1
 135 408 l 1,0,-1
EndSplineSet
Substitution2: "Single Substitution lookup 46 subtable" iiMatra_reph-deva.alt5
Substitution2: "Single Substitution lookup 45 subtable" iiMatra_reph-deva.alt4
Substitution2: "Single Substitution lookup 44 subtable" iiMatra_reph-deva.alt3
Substitution2: "Single Substitution lookup 43 subtable" iiMatra_reph-deva.alt2
Substitution2: "Single Substitution lookup 42 subtable" iiMatra_reph-deva.alt1
Ligature2: "'abvs' Above Base Substitutions lookup 17 subtable" uni0940 uni0930094D
AlternateSubs2: "'aalt' Access All Alternates lookup 1 subtable" iiMatra_reph-deva.alt1 iiMatra_reph-deva.alt2 iiMatra_reph-deva.alt3 iiMatra_reph-deva.alt4 iiMatra_reph-deva.alt5
EndChar

StartChar: iiMatra_reph_anusvara-deva
Encoding: 65629 -1 186
Width: 208
GlyphClass: 2
Flags: W
LayerCount: 2
Fore
SplineSet
137 408 m 1,0,-1
 137 0 l 1,1,-1
 82 0 l 1,2,-1
 82 408 l 1,3,-1
 -22 408 l 1,4,-1
 -22 456 l 1,5,-1
 80 456 l 1,6,7
 59 530 59 530 21.5 563.5 c 128,-1,8
 -16 597 -16 597 -54 597 c 0,9,10
 -85 597 -85 597 -100.5 580.5 c 128,-1,11
 -116 564 -116 564 -116 534 c 0,12,13
 -116 480 -116 480 -50 439 c 1,14,-1
 -116 439 l 2,15,16
 -116 437 -116 437 -131 451.5 c 128,-1,17
 -146 466 -146 466 -158 488 c 128,-1,18
 -170 510 -170 510 -170 538 c 0,19,20
 -172 586 -172 586 -142 617.5 c 128,-1,21
 -112 649 -112 649 -51 649 c 256,22,23
 10 649 10 649 64 595 c 1,24,25
 75 624 75 624 100.5 639 c 128,-1,26
 126 654 126 654 162 654 c 0,27,28
 189 654 189 654 219 644 c 128,-1,29
 249 634 249 634 268 620 c 1,30,-1
 241 578 l 1,31,32
 228 587 228 587 207.5 594.5 c 128,-1,33
 187 602 187 602 171 602 c 0,34,35
 140 602 140 602 122.5 591 c 128,-1,36
 105 580 105 580 106 550 c 0,37,38
 106 514 106 514 135 456 c 1,39,-1
 234 456 l 1,40,-1
 234 408 l 1,41,-1
 137 408 l 1,0,-1
151 508 m 128,-1,43
 143 516 143 516 143 528 c 256,44,45
 143 540 143 540 151 548.5 c 128,-1,46
 159 557 159 557 171 557 c 0,47,48
 184 557 184 557 192 548.5 c 128,-1,49
 200 540 200 540 200 528 c 256,50,51
 200 516 200 516 192 508 c 128,-1,52
 184 500 184 500 171 500 c 0,53,42
 159 500 159 500 151 508 c 128,-1,43
EndSplineSet
Substitution2: "Single Substitution lookup 46 subtable" iiMatra_reph_anusvara-deva.alt5
Substitution2: "Single Substitution lookup 45 subtable" iiMatra_reph_anusvara-deva.alt4
Substitution2: "Single Substitution lookup 44 subtable" iiMatra_reph_anusvara-deva.alt3
Substitution2: "Single Substitution lookup 43 subtable" iiMatra_reph_anusvara-deva.alt2
Substitution2: "Single Substitution lookup 42 subtable" iiMatra_reph_anusvara-deva.alt1
Ligature2: "'abvs' Above Base Substitutions lookup 17 subtable" uni0940 uni0930094D anusvaradeva
AlternateSubs2: "'aalt' Access All Alternates lookup 1 subtable" iiMatra_reph_anusvara-deva.alt1 iiMatra_reph_anusvara-deva.alt2 iiMatra_reph_anusvara-deva.alt3 iiMatra_reph_anusvara-deva.alt4 iiMatra_reph_anusvara-deva.alt5
EndChar

StartChar: uni09400930094D_candrabindudeva
Encoding: 65630 -1 187
Width: 208
GlyphClass: 3
Flags: W
LayerCount: 2
Fore
SplineSet
135 408 m 1,0,-1
 135 0 l 1,1,-1
 80 0 l 1,2,-1
 80 408 l 1,3,-1
 -24 408 l 1,4,-1
 -24 456 l 1,5,-1
 78 456 l 1,6,7
 57 530 57 530 19.5 563.5 c 128,-1,8
 -18 597 -18 597 -56 597 c 0,9,10
 -87 597 -87 597 -102.5 581 c 128,-1,11
 -118 565 -118 565 -118 538 c 0,12,13
 -118 485 -118 485 -54 439 c 1,14,-1
 -125 439 l 2,15,16
 -125 437 -125 437 -138 451.5 c 128,-1,17
 -151 466 -151 466 -161 488 c 128,-1,18
 -171 510 -171 510 -171 538 c 0,19,20
 -171 586 -171 586 -141 617 c 128,-1,21
 -111 648 -111 648 -53 648 c 0,22,23
 -19 648 -19 648 9 631.5 c 128,-1,24
 37 615 37 615 62 586 c 1,25,26
 84 654 84 654 160 654 c 0,27,28
 189 654 189 654 219 644 c 1,29,-1
 202 596 l 1,30,31
 184 602 184 602 169 602 c 0,32,33
 136 602 136 602 120 587.5 c 128,-1,34
 104 573 104 573 104 535 c 0,35,36
 104 518 104 518 109.5 503.5 c 128,-1,37
 115 489 115 489 122.5 475.5 c 128,-1,38
 130 462 130 462 133 456 c 1,39,-1
 232 456 l 1,40,-1
 232 408 l 1,41,-1
 135 408 l 1,0,-1
229 559.5 m 128,-1,43
 222 567 222 567 222 577 c 256,44,45
 222 587 222 587 229 594.5 c 128,-1,46
 236 602 236 602 247 602 c 256,47,48
 258 602 258 602 265 594.5 c 128,-1,49
 272 587 272 587 272 577 c 256,50,51
 272 567 272 567 265 559.5 c 128,-1,52
 258 552 258 552 247 552 c 256,53,42
 236 552 236 552 229 559.5 c 128,-1,43
184 498 m 128,-1,55
 159 517 159 517 149 550 c 1,56,-1
 184 565 l 1,57,58
 193 541 193 541 209.5 528.5 c 128,-1,59
 226 516 226 516 246 516 c 0,60,61
 267 516 267 516 283 528.5 c 128,-1,62
 299 541 299 541 309 565 c 1,63,-1
 343 549 l 1,64,65
 334 517 334 517 309 498 c 128,-1,66
 284 479 284 479 246 479 c 0,67,54
 209 479 209 479 184 498 c 128,-1,55
EndSplineSet
Substitution2: "Single Substitution lookup 46 subtable" uni09400930094D_candrabindudeva.alt5
Substitution2: "Single Substitution lookup 45 subtable" uni09400930094D_candrabindudeva.alt4
Substitution2: "Single Substitution lookup 44 subtable" uni09400930094D_candrabindudeva.alt3
Substitution2: "Single Substitution lookup 43 subtable" uni09400930094D_candrabindudeva.alt2
Substitution2: "Single Substitution lookup 42 subtable" uni09400930094D_candrabindudeva.alt1
Ligature2: "'abvs' Above Base Substitutions lookup 17 subtable" uni0940 uni0930094D candrabindudeva
AlternateSubs2: "'aalt' Access All Alternates lookup 1 subtable" uni09400930094D_candrabindudeva.alt1 uni09400930094D_candrabindudeva.alt2 uni09400930094D_candrabindudeva.alt3 uni09400930094D_candrabindudeva.alt4 uni09400930094D_candrabindudeva.alt5
EndChar

